<svg width="1607" height="979" viewBox="0 0 1607 979" fill="none" xmlns="http://www.w3.org/2000/svg">
<path d="M240.998 776.404C208.463 743.425 182.834 704.289 165.614 661.286C130.785 573.107 130.167 476.875 168.13 389.488C203.141 307.782 269.151 243.302 351.669 210.203C418.183 184.756 490.548 178.675 560.378 192.664C571.828 194.854 581.364 198.075 592.169 200.532C612.367 205.125 627.318 208.191 646.572 216.563C645.236 220.518 642.149 231.071 639.706 233.712C638.434 234.082 635.341 234.911 634.965 236.109C632.504 243.973 636.075 252.861 630.827 260.409C629.507 262.307 629.006 261.813 626.228 262.101C621.859 263.055 613.803 265.063 609.778 265.253C601.435 265.646 592.343 263.546 583.773 263.186L588.681 259.404C591.713 256.209 591.719 257.489 592.165 253.759C593.178 254.746 594.253 255.747 595.722 255.915C607.026 257.212 617.593 258.167 628.841 260.276L633.585 246.69C631.903 242.271 629.663 239.069 631.977 234.736C634.322 232.822 636.469 232.467 639.357 231.697L644.421 217.826C633.926 212.98 595.031 201.727 582.872 201.653C580.55 201.501 576.751 200.959 574.768 201.745C572.626 199.802 569.527 200.104 566.547 200.329C514.148 204.273 480.401 216.677 438.862 246.694C435.673 249.224 434.861 249.013 433.71 252.266C434.45 254.593 434.854 255.214 436.124 257.317C434.555 255.625 433.363 254.323 431.625 252.769C403.326 269.607 356.796 341.996 347.73 373.692C351.529 375.812 359.137 380.715 362.105 383.889L361.737 385.003C354.402 385.203 349.762 387.777 344.129 384.993C335.413 395.519 323.601 465.078 323.403 479.945L322.531 490.607C318.949 533.032 326.361 600.733 342.213 640.447C343.804 639.412 345.332 638.282 346.79 637.065C357.208 628.311 380.081 603.859 389.311 592.751C390.461 591.366 390.849 586.732 391.032 584.735L391.891 585.201L392.081 585.883C392.653 587.905 392.686 588.519 393.902 590.147C394.468 593.679 394.537 594.223 392.245 597.64L393.02 598.495C388.798 603.936 384.944 608.226 380.304 613.333C381.08 617.883 381.54 621.013 381.858 625.602C378.295 633.864 370.191 644.777 368.058 650.433C371.089 651.919 371.238 651.081 373.389 651.685C378.216 652.969 379.578 652.966 384.649 652.329C389.021 651.116 396.737 653.411 401.319 654.589C407.92 670.169 412.234 678.148 426.416 686.357C429.275 698.076 432.948 701.263 440.48 710.567C438.811 713.951 431.207 730.165 429.504 732.033L428.815 732.882L427.359 736.757C428.768 737.88 428.293 737.535 430.408 737.694C432.619 738.096 434.345 738.35 436.463 739.187C441.917 741.339 454.433 739.189 458.527 742.512C461.003 746.276 463.171 749.916 466.433 753.043C468.755 753.745 472.459 754.303 473.235 756.387C476.267 764.525 473.842 765.264 481.082 771.246C482.553 772.309 485.748 775.006 487.265 775.279C494.476 774.788 503.774 774.576 510.978 775.223C510.631 778.34 509.76 782.268 511.14 784.832C513.225 786.463 514.009 786.393 516.653 786.832C516.195 789.444 515.986 791.468 514.796 793.869C517.114 794.214 518.815 794.575 521.176 794.449C519.956 797.642 520.597 797.359 518.197 799.187L511.889 799.768L510.338 806.789L508.737 807.612C498.805 808.671 426.814 808.977 420.139 807.165C416.547 808.585 412.748 808.263 409.091 807.314C402.933 809.315 373.595 809.04 366.908 808.303C364.264 809.299 362.268 810.225 359.446 810.538C357.554 811.166 352.033 813.151 350.399 813.182C347.136 814.704 340.121 816.571 336.411 817.677C332.126 815.182 319.274 806.694 315.394 807.714L314.69 809.44C313.119 811.856 311.446 812.021 308.706 812.821C306.627 813.527 301.523 812.57 299.538 811.55C296.491 809.989 296.761 808.507 296.113 805.549C290.866 809.973 262.373 808.005 253.832 807.816C221.535 807.306 189.251 806.145 157 804.325C148.146 803.784 100.463 802.458 97.8661 794.559C98.4656 793.798 98.9364 793.351 99.8419 792.951C109.071 788.919 124.721 787.436 134.786 786.173C147.747 784.557 222.785 777.993 229.895 781.156C230.028 781.215 230.155 781.284 230.285 781.348C232.762 780.629 238.434 777.661 240.998 776.404ZM317.405 776.043C329.14 782.088 334.751 786.856 344.533 795.853C346.497 795.014 368.388 790.566 372.35 789.656L372.717 787.648C371.263 785.804 368.776 781.75 369.109 779.389C367.812 775.572 366.931 769.724 365.838 766.701C362.813 758.328 353.73 757.742 344.427 749.77C336.169 747.101 331.879 743.303 324.882 739.095C318.669 741.256 314.803 741.918 308.27 742.626C311.262 752.848 315.444 765.787 317.405 776.043ZM247.678 788.315C251.081 786.926 256.951 786.134 260.954 785.169C260.343 783.374 257.692 780.804 256.302 779.273C247.709 775.285 239.363 776.844 232.085 782.87C239.266 786.456 241.406 785.797 247.678 788.315Z" fill="#051C42"/>
<path d="M256.572 271.901C261.185 271.509 292.678 261.203 300.952 259.316C313.476 256.533 326.132 254.388 338.871 252.888C353.058 251.23 419.865 246.881 429.381 251.276C359.873 313.056 327.057 396.746 320.522 488.456C319.693 500.08 319.03 517.46 319.665 528.708C321.979 548.783 321.576 561.1 325.4 582.829C338.055 646.771 355.418 695.278 395.263 748.289C390.419 750.164 362.337 741.512 353.756 740.519C345.036 739.509 334.421 738.63 325.7 737.72C323.216 737.458 323.645 737.759 320.979 739.026C315.747 737.59 302.69 735.828 296.263 734.54C278.722 731.159 261.348 726.961 244.199 721.958C232.95 718.641 221.862 714.799 210.973 710.446C204.754 707.947 193.775 703.037 187.701 701.389C183.282 695.602 174.749 676.716 171.689 669.597C147.111 613.503 137.468 552.005 143.697 491.084C150.962 424.436 177.462 361.341 219.967 309.486C229.737 297.512 244.45 281.645 256.572 271.901Z" fill="#E2F2F0"/>
<path d="M319.665 528.708C321.979 548.783 321.576 561.1 325.4 582.829C319.934 582.957 314.566 582.82 309.104 582.713C299.289 589.407 291.357 591.131 280.13 593.749C283.366 589.424 286.47 584.618 289.495 580.114C273.777 570.767 264.166 557.501 278.897 541.767C288.602 531.402 306.235 528.782 319.665 528.708Z" fill="#B6D2FD"/>
<path d="M295.239 551.932C297.464 550.858 300.138 551.767 301.249 553.972C302.36 556.177 301.498 558.865 299.312 560.015C297.864 560.776 296.118 560.696 294.745 559.807C293.372 558.918 292.585 557.357 292.687 555.724C292.79 554.092 293.766 552.642 295.239 551.932Z" fill="#FDFDFD"/>
<path d="M314.791 551.94C317.098 551.815 319.105 553.504 319.373 555.799C319.642 558.094 318.078 560.201 315.805 560.61C314.203 560.899 312.573 560.274 311.575 558.99C310.576 557.705 310.374 555.972 311.049 554.492C311.724 553.012 313.166 552.029 314.791 551.94Z" fill="#FDFDFD"/>
<path d="M216.264 431.712C238.645 429.51 272.523 435.877 280.908 459.706C283.18 466.015 282.769 472.979 279.773 478.977C274.121 490.328 262.32 495.769 250.984 499.533C253.26 504.394 258.608 512.14 261.699 516.714C257.123 515.676 252.767 514.39 248.267 513.095C238.749 509.565 234.861 507.651 226.442 501.991C210.315 502.35 196.803 500.97 182.988 491.583C171.707 484.148 165.021 469.783 171.287 456.853C179.393 440.122 199.366 434.181 216.264 431.712Z" fill="#B6D2FD"/>
<path d="M222.391 461.667C225.203 460.041 228.8 460.979 230.459 463.771C232.118 466.563 231.222 470.171 228.448 471.862C226.625 472.973 224.345 473.019 222.479 471.982C220.613 470.945 219.447 468.985 219.429 466.85C219.411 464.716 220.542 462.736 222.391 461.667Z" fill="#FDFDFD"/>
<path d="M245.765 461.768C247.614 460.674 249.91 460.674 251.758 461.767C253.607 462.859 254.713 464.871 254.647 467.017C254.579 469.162 253.35 471.101 251.437 472.076C248.604 473.52 245.137 472.455 243.605 469.669C242.072 466.884 243.029 463.386 245.765 461.768Z" fill="#FDFDFD"/>
<path d="M198.909 461.674C201.635 460.056 205.152 460.892 206.859 463.561C208.566 466.232 207.847 469.773 205.234 471.567C203.465 472.78 201.176 472.934 199.261 471.967C197.346 471.001 196.111 469.068 196.038 466.925C195.964 464.782 197.065 462.769 198.909 461.674Z" fill="#FDFDFD"/>
<path d="M264.257 335.29C282.214 334.211 308.204 341.621 314.414 360.612C316.422 366.767 315.833 373.475 312.781 379.185C306.939 390.128 295.889 394.165 284.936 397.609C287.502 403.371 289.538 407.614 292.57 413.142C288.342 411.844 284.124 410.512 279.916 409.146C273.443 406.56 268.718 403.173 262.985 399.317C203.072 398.665 197.874 340.086 264.257 335.29Z" fill="#B6D2FD"/>
<path d="M265.389 362.07C268.218 361.546 270.963 363.322 271.643 366.116C272.323 368.911 270.701 371.749 267.948 372.583C266.026 373.165 263.94 372.637 262.526 371.21C261.113 369.784 260.605 367.695 261.204 365.778C261.805 363.862 263.415 362.436 265.389 362.07Z" fill="#FDFDFD"/>
<path d="M286.475 361.981C289.233 361.779 291.697 363.691 292.184 366.413C292.672 369.133 291.024 371.782 288.368 372.549C286.386 373.121 284.251 372.513 282.867 370.985C281.484 369.455 281.092 367.271 281.86 365.357C282.626 363.443 284.418 362.133 286.475 361.981Z" fill="#FDFDFD"/>
<path d="M242.458 362.828C244.138 361.824 246.23 361.812 247.921 362.795C249.613 363.779 250.638 365.602 250.596 367.558C250.555 369.514 249.455 371.293 247.724 372.204C245.145 373.562 241.953 372.619 240.526 370.078C239.099 367.538 239.955 364.322 242.458 362.828Z" fill="#FDFDFD"/>
<path d="M257.013 617.595C272.696 615.719 291.997 618.309 304.271 628.793C314.781 637.77 316.574 652.951 306.787 663.188C296.666 673.773 282.378 675.712 268.528 676.333L271.134 682.922C272.372 685.04 272.935 685.753 273.479 688.162C264.425 691.383 251.306 677.477 245.053 674.924C202.201 657.424 215.741 623.837 257.013 617.595Z" fill="#B6D2FD"/>
<path d="M264.5 642.01C267.081 641.091 269.921 642.412 270.88 644.977C271.84 647.543 270.562 650.403 268.012 651.401C266.326 652.062 264.415 651.763 263.012 650.618C261.609 649.475 260.932 647.663 261.24 645.88C261.549 644.097 262.794 642.617 264.5 642.01Z" fill="#FDFDFD"/>
<path d="M284.425 642.088C287.013 641.204 289.828 642.587 290.709 645.177C291.59 647.765 290.202 650.578 287.612 651.455C285.026 652.331 282.219 650.947 281.34 648.362C280.46 645.778 281.841 642.97 284.425 642.088Z" fill="#FDFDFD"/>
<path d="M245.002 642.046C247.6 641.345 250.282 642.853 251.032 645.437C251.781 648.021 250.323 650.73 247.753 651.528C246.047 652.057 244.188 651.624 242.892 650.396C241.595 649.167 241.063 647.334 241.501 645.603C241.938 643.871 243.278 642.511 245.002 642.046Z" fill="#FDFDFD"/>
<path d="M199.131 530.58C212.956 528.818 231.168 532.593 241.639 541.942C251.711 550.935 253.079 565.726 243.297 575.516C233.141 585.684 219.79 587.392 206.163 587.57C206.975 591.17 208.034 593.417 209.486 596.817L210.344 598.614L209.852 599.776C207.659 599.857 196.909 596.646 195.752 595.318C190.088 587.297 174.408 583.057 169.33 578.198C141.099 551.186 176.301 533.313 199.131 530.58Z" fill="#B6D2FD"/>
<path d="M202.38 555.008C203.919 554.127 205.813 554.143 207.337 555.049C208.861 555.955 209.779 557.61 209.739 559.382C209.701 561.155 208.711 562.768 207.148 563.607C204.779 564.878 201.826 564.011 200.522 561.658C199.218 559.306 200.046 556.343 202.38 555.008Z" fill="#FDFDFD"/>
<path d="M221.809 554.863C223.414 554.016 225.359 554.14 226.844 555.185C228.327 556.23 229.099 558.018 228.842 559.815C228.585 561.611 227.34 563.111 225.623 563.697C223.239 564.51 220.631 563.353 219.632 561.041C218.634 558.73 219.582 556.04 221.809 554.863Z" fill="#FDFDFD"/>
<path d="M183.472 554.98C184.984 554.104 186.853 554.12 188.349 555.024C189.845 555.928 190.729 557.574 190.656 559.32C190.584 561.065 189.566 562.632 187.999 563.408C185.685 564.555 182.878 563.66 181.656 561.384C180.434 559.109 181.238 556.275 183.472 554.98Z" fill="#FDFDFD"/>
<path d="M256.572 271.901C267.533 261.082 288.755 246.035 301.805 237.933C379.427 189.742 481.951 176.427 570.669 197.958C510.697 201.479 476.618 214.703 429.381 251.276C419.865 246.881 353.058 251.23 338.871 252.888C326.132 254.388 313.476 256.533 300.952 259.316C292.678 261.203 261.185 271.509 256.572 271.901Z" fill="#B6D2FD"/>
<path d="M373.389 651.685C378.216 652.969 379.578 652.966 384.649 652.329C389.021 651.116 396.737 653.411 401.319 654.589C407.92 670.169 412.234 678.148 426.416 686.357C429.275 698.076 432.948 701.263 440.48 710.567C438.811 713.951 431.207 730.165 429.504 732.033L428.815 732.882C425.626 735.963 422.455 743.613 421.135 747.803C417.352 750.298 404.901 749.869 399.499 750.385C380.886 725.144 368.854 706.097 355.808 677.217L355.926 677.001C358.351 672.66 359.179 668.37 360.393 663.571L363.157 658.345L365.838 653.677C368.451 651.798 370.197 652.779 373.389 651.685Z" fill="#B6D2FD"/>
<path d="M373.389 651.685C378.216 652.969 379.578 652.966 384.649 652.329C389.021 651.116 396.737 653.411 401.319 654.589C407.92 670.169 412.234 678.148 426.416 686.357C429.275 698.076 432.948 701.263 440.48 710.567C438.811 713.951 431.207 730.165 429.504 732.033C430.175 729.447 432.108 724.623 433.099 721.936C429.73 713.181 428.258 710.685 431.035 701.622C427.114 696.771 426.404 694.318 424.853 688.269C410.814 678.194 407.506 671.662 400.104 655.746C383.73 652.667 380.147 661.734 366.988 658.097L363.157 658.345L365.838 653.677C368.451 651.798 370.197 652.779 373.389 651.685Z" fill="#192932"/>
<path d="M373.389 651.685C378.216 652.969 379.578 652.966 384.649 652.329L386.365 652.983L385.788 654.171C381.796 655.408 377.197 656.951 373.121 657.792C371.357 658.156 369.054 657.635 366.988 658.097L363.157 658.345L365.838 653.677C368.451 651.798 370.197 652.779 373.389 651.685Z" fill="#0961F5"/>
<path d="M431.035 701.622L438.654 711.684C436.658 714.621 433.697 718.528 433.099 721.936C429.731 713.181 428.258 710.685 431.035 701.622Z" fill="#3B80F7"/>
<path d="M187.701 701.389C193.775 703.037 204.754 707.947 210.973 710.446C221.862 714.799 232.95 718.641 244.199 721.958C261.348 726.961 278.722 731.159 296.263 734.54C302.69 735.828 315.747 737.59 320.979 739.026C297.916 743.114 308.215 745.383 295.493 761.322C298.323 771.152 299.126 775.924 299.674 786.15L299.899 787.601C292.412 787.93 266.192 785.294 261.691 786.887L260.954 785.169C260.343 783.374 257.692 780.804 256.302 779.273C253.587 774.832 247.983 775.66 243.604 775.856C223.349 755.368 201.128 726.459 187.701 701.389Z" fill="#B6D2FD"/>
<path d="M256.302 779.273C259.527 780.734 260.294 781.793 262.737 784.335C275.038 785.153 287.352 785.765 299.674 786.15L299.899 787.601C292.412 787.93 266.192 785.294 261.691 786.887L260.954 785.169C260.343 783.374 257.692 780.804 256.302 779.273Z" fill="#2471F6"/>
<path d="M458.527 742.512C461.003 746.276 463.171 749.916 466.433 753.043C468.755 753.744 472.459 754.303 473.235 756.387C476.267 764.525 473.842 765.264 481.081 771.246C482.553 772.309 485.748 775.006 487.265 775.279C494.476 774.787 503.774 774.576 510.978 775.223C510.631 778.34 509.76 782.268 511.14 784.832C513.225 786.463 514.009 786.393 516.653 786.832C516.195 789.444 515.986 791.468 514.796 793.869C517.114 794.214 518.815 794.575 521.176 794.449C519.956 797.642 520.597 797.359 518.197 799.187L511.889 799.768L510.338 806.789L508.737 807.612C498.805 808.671 426.814 808.977 420.139 807.165C424.108 805.565 426.166 805.259 430.419 804.482C432.379 798.662 435.649 793.79 432.308 788.558C430.907 787.915 431.259 787.922 430.282 786.338C427.889 784.397 412.53 766.568 409.65 763.291C412.454 759.524 412.927 756.602 414.127 752.147L423.245 748.211C425.93 748.438 429.216 748.971 431.94 749.344L439.073 745.097C444.994 745.741 446.742 746.411 451.732 743.384C453.808 743.274 456.42 742.813 458.527 742.512Z" fill="#B6D2FD"/>
<path d="M487.265 775.279C494.476 774.787 503.774 774.576 510.978 775.223C510.631 778.34 509.76 782.268 511.14 784.832C513.225 786.463 514.009 786.393 516.653 786.832C516.195 789.444 515.986 791.468 514.796 793.869C517.114 794.214 518.815 794.575 521.176 794.449C519.956 797.642 520.597 797.359 518.197 799.187L511.889 799.768L510.338 806.789L508.737 807.612C498.805 808.671 426.814 808.977 420.139 807.165C424.108 805.565 426.167 805.259 430.419 804.482C432.379 798.662 435.649 793.79 432.308 788.558C450.157 786.746 473.463 787.06 492.174 786L486.821 776.55L487.265 775.279Z" fill="#E2F2F0"/>
<path d="M514.796 793.869C517.114 794.214 518.815 794.575 521.176 794.449C519.956 797.642 520.597 797.359 518.197 799.187L511.889 799.768C512.344 797.689 512.759 796.402 513.436 794.371L514.796 793.869Z" fill="#3B80F7"/>
<path d="M481.082 771.246C482.553 772.309 485.748 775.006 487.265 775.279L486.821 776.55L492.174 786C473.463 787.059 450.157 786.746 432.308 788.558C430.907 787.915 431.259 787.922 430.282 786.338C439.197 787.334 452.308 785.867 461.674 785.553C471.053 785.232 479.983 785.177 489.373 785.169C487.406 780.73 483.579 775.936 481.082 771.246Z" fill="#5B8999"/>
<path d="M296.113 805.549C290.866 809.973 262.373 808.005 253.832 807.816C221.535 807.306 189.251 806.145 157 804.325C148.146 803.784 100.463 802.458 97.8661 794.559C98.4656 793.798 98.9364 793.351 99.8419 792.951C109.071 788.919 124.721 787.436 134.786 786.173C147.747 784.557 222.785 777.993 229.895 781.156C230.028 781.215 230.155 781.284 230.285 781.348L229.992 786.118L232.085 782.87C239.266 786.456 241.406 785.797 247.678 788.315C251.081 786.926 256.951 786.134 260.954 785.169L261.691 786.887C266.192 785.294 292.412 787.93 299.899 787.601C304.938 805.502 296.525 797.077 296.113 805.549Z" fill="#E2F2F0"/>
<path d="M232.085 782.87C239.266 786.455 241.406 785.797 247.678 788.315C251.081 786.926 256.951 786.134 260.954 785.169L261.691 786.887L261.74 791.798L263.889 793.743L263.397 795.069C258.991 797.093 237.851 795.641 231.726 795.406C231.516 792.37 230.662 789.115 229.992 786.118L232.085 782.87Z" fill="#0961F5"/>
<path d="M247.678 788.315C251.081 786.926 256.951 786.134 260.954 785.169L261.691 786.887L261.74 791.798L260.584 791.374C258.131 793.319 249.483 796.293 246.728 793.869C246.346 791.241 246.671 790.895 247.678 788.315Z" fill="#B6D2FD"/>
<path d="M320.979 739.026C323.645 737.759 323.216 737.458 325.7 737.72C331 741.319 341.245 745.762 344.427 749.77C336.169 747.101 331.879 743.303 324.882 739.095C318.669 741.256 314.803 741.918 308.27 742.626C311.262 752.848 315.444 765.787 317.405 776.043C329.14 782.088 334.751 786.856 344.533 795.853C346.497 795.014 368.388 790.566 372.35 789.656L372.717 787.648C374.701 788.778 374.101 788.597 375.093 791.445C372.32 797.046 369.592 802.662 366.908 808.303C364.264 809.299 362.268 810.225 359.446 810.538C357.554 811.166 352.033 813.151 350.399 813.182C347.136 814.704 340.121 816.571 336.411 817.677C332.126 815.182 319.274 806.694 315.394 807.714L314.69 809.44C313.119 811.856 311.446 812.021 308.706 812.821C306.627 813.527 301.523 812.57 299.538 811.55C296.491 809.989 296.761 808.507 296.112 805.549C296.525 797.077 304.938 805.502 299.899 787.601L299.674 786.15C299.126 775.924 298.323 771.152 295.493 761.322C308.215 745.383 297.916 743.114 320.979 739.026Z" fill="#0961F5"/>
<path d="M372.717 787.648C374.701 788.778 374.101 788.597 375.093 791.445C372.32 797.046 369.592 802.662 366.908 808.303C364.264 809.299 362.268 810.225 359.446 810.538C357.554 811.166 352.033 813.151 350.399 813.182C346.097 813.103 343.746 815.276 338.514 814.429C337.647 811.487 343.299 799.579 344.533 795.853C346.497 795.014 368.388 790.566 372.35 789.656L372.717 787.648Z" fill="#B6D2FD"/>
<path d="M372.717 787.648C374.701 788.778 374.101 788.597 375.093 791.445C372.32 797.046 369.592 802.662 366.908 808.303C364.264 809.299 362.268 810.225 359.446 810.538C361.738 808.452 363.266 808.828 365.341 806.279C368.277 802.67 372.95 794.316 372.35 789.656L372.717 787.648Z" fill="#344B6A"/>
<path d="M311.463 803.172C313.343 805.902 313.844 806.098 314.69 809.44C313.119 811.856 311.446 812.021 308.706 812.821C306.228 811.331 306.127 807.612 307.594 805.228C309.847 804.773 309.955 804.788 311.463 803.172Z" fill="#2471F6"/>
<path d="M307.594 805.227C304.843 804.835 302.271 804.788 300.255 802.89L300.754 801.862C304.441 800.662 308.367 800.607 311.463 803.172C309.955 804.788 309.847 804.772 307.594 805.227Z" fill="#FDFDFD"/>
<path d="M325.7 737.72C334.421 738.63 345.036 739.509 353.756 740.519C362.337 741.513 390.419 750.164 395.263 748.289C397.643 751.392 421.484 780.474 421.648 781C418.464 782.579 405.488 777.081 398.501 783.385C397.51 784.279 395.644 784.422 394.454 786.644L394.067 788.205C388.736 788.228 380.518 787.813 375.719 788.848C374.97 790.064 375.056 790.001 375.093 791.445C374.101 788.597 374.701 788.778 372.717 787.648C371.263 785.804 368.776 781.75 369.109 779.389C367.812 775.572 366.931 769.724 365.838 766.701C362.813 758.328 353.73 757.742 344.427 749.77C341.245 745.762 331 741.319 325.7 737.72Z" fill="#B6D2FD"/>
<path d="M369.109 779.389C371.157 781.56 372.032 784.018 373.292 786.754C379.6 786.738 388.346 786.997 394.454 786.644L394.067 788.205C388.736 788.228 380.518 787.813 375.719 788.848C374.97 790.064 375.056 790.001 375.093 791.445C374.101 788.597 374.701 788.777 372.717 787.648C371.263 785.804 368.776 781.75 369.109 779.389Z" fill="#2471F6"/>
<path d="M391.032 584.735L391.891 585.201L392.081 585.883C392.653 587.905 392.686 588.519 393.902 590.147C394.468 593.679 394.537 594.223 392.245 597.64C388.273 602.334 383.201 608.675 378.742 612.641C379.866 619.383 380.555 623.66 377.759 630.278C374.2 638.703 369.196 647.708 362.747 654.278C361.694 655.351 358.443 655.621 356.936 655.782C354.072 656.764 351.119 657.601 348.582 659.227C346.159 652.706 344.234 647.101 342.213 640.447C343.804 639.412 345.332 638.282 346.789 637.065C357.208 628.311 380.081 603.859 389.311 592.751C390.461 591.366 390.849 586.732 391.032 584.735Z" fill="#B6D2FD"/>
<path d="M375.093 791.445C375.056 790.001 374.97 790.064 375.719 788.848C380.518 787.813 388.736 788.228 394.067 788.205C394.846 791.837 395.991 800.45 395.866 804.106C400.738 804.843 404.534 805.212 409.091 807.314C402.933 809.315 373.595 809.04 366.908 808.303C369.592 802.662 372.32 797.046 375.093 791.445Z" fill="#E2F2F0"/>
<path d="M588.681 259.404C597.296 255.186 617.236 258.592 626.228 262.101C621.859 263.055 613.803 265.063 609.778 265.253C601.435 265.646 592.343 263.546 583.773 263.186L588.681 259.404Z" fill="#3B80F7"/>
<path d="M430.408 737.694C432.619 738.096 434.345 738.35 436.463 739.187C441.917 741.339 454.433 739.189 458.527 742.512C456.42 742.813 453.808 743.274 451.732 743.384C444.03 742.856 429.165 748.911 424.222 746.282C423.67 742.361 426.562 738.679 430.408 737.694Z" fill="#0961F5"/>
<path d="M347.73 373.692C351.529 375.812 359.137 380.715 362.105 383.889C357.375 383.909 349.417 383.075 344.454 382.691C345.434 379.418 346.457 376.863 347.73 373.692Z" fill="#0961F5"/>
<path d="M360.392 663.571C359.179 668.37 358.351 672.66 355.926 677.001L355.808 677.217L350.898 665.733L360.392 663.571Z" fill="#0961F5"/>
<path d="M348.582 659.227C351.119 657.601 354.072 656.764 356.936 655.782L360.062 656.633C360.25 660.589 354.256 662.614 350.98 663.123C348.976 661.799 349.579 662.063 348.582 659.227Z" fill="#275D6A"/>
<path d="M397.092 786.895C397.698 785.381 399.946 784.042 401.42 783.285C408.475 779.667 414.094 782.411 420.705 783.862C425.443 784.37 428.528 788.338 431.901 791.735C423.364 795.681 422.731 794.528 416.452 796.771C406.718 793.571 400.698 787.938 397.092 786.895Z" fill="#3B80F7"/>
<path d="M397.092 786.895C397.698 785.381 399.946 784.042 401.42 783.285C408.475 779.667 414.094 782.411 420.705 783.862C413.445 785.436 404.601 786.126 397.092 786.895Z" fill="#FDFDFD"/>
<path d="M395.096 787.397C398.612 787.97 409.546 795.54 413.915 798.05C414.852 800.897 413.952 803.925 413.426 807.016C398.629 803.07 395.377 805.133 395.096 787.397Z" fill="#0961F5"/>
<path d="M431.184 792.896L432.102 793.774C433.514 803.368 423.038 805.086 416.052 806.765L415.359 806.122C414.478 803.98 414.437 803.714 414.77 801.431C416.69 797.454 425.835 795.469 431.184 792.896Z" fill="#B6D2FD"/>
<path d="M402.127 750.804C406.025 750.597 410.235 749.639 411.394 754.019C410.877 756.63 409.775 757.771 408.203 759.862C405.87 759.187 402.372 754.349 401.391 752.067L402.127 750.804Z" fill="#0753D1"/>
<path d="M639.675 520.615C651.576 522.955 667.552 556.554 663.825 568.276C657.311 588.765 625.934 594.86 608.91 601.952C607.041 607.762 606.004 611.037 605.622 617.312C605.615 628.147 605.777 638.981 606.107 649.81C606.33 655.993 608.188 675.921 604.956 680.002L602.699 681.341C577.935 689.009 558.526 690.304 532.735 685.605C529.967 685.186 525.221 683.887 522.348 683.198L519.769 682.425C508.823 683.439 483.322 678.554 480.044 666.111C478.177 659.025 482.047 645.166 485.684 638.933L486.394 637.995C487.301 635.225 488.932 630.365 488.222 627.668C487.321 611.602 506.454 589.935 517.255 578.977C517.194 577.186 516.944 572.724 517.36 571.176C520.178 560.676 536.647 561.126 544.719 560.644C551.989 560.726 559.049 560.789 566.309 561.189C569.634 561.797 583.229 564.611 585.958 564.811C589.416 566.206 593.019 567.379 595.742 569.904C603.585 568.157 628.459 563.753 634.034 558.859C638.193 555.21 625.334 540.908 625.187 532.298L625.181 531.527C628.023 525.419 633.883 523.068 639.675 520.615Z" fill="#3B80F7"/>
<path d="M544.719 560.644C551.989 560.726 559.049 560.789 566.309 561.189C569.634 561.797 583.229 564.611 585.958 564.811C589.416 566.206 593.019 567.379 595.742 569.903C593.645 571.374 593.075 571.919 591.301 573.776C587.367 578.612 583.463 583.471 579.587 588.354C576.949 590.029 572.303 593.173 569.656 594.441C562.615 599.905 556.917 607.1 550.136 611.699C549.34 612.557 545.953 616.05 545.368 616.845L545.387 617.232C549.642 623.698 548.127 629.023 546.965 636.545L545.062 647.102C543.886 652.719 540.511 671.03 538.019 675.313L539.435 677.342C536.867 681.391 534.559 682.454 532.735 685.605C529.967 685.186 525.221 683.887 522.348 683.198L519.769 682.425C508.823 683.439 483.322 678.554 480.044 666.111C478.177 659.025 482.047 645.166 485.684 638.933L486.394 637.995C487.301 635.225 488.932 630.365 488.222 627.668C487.321 611.602 506.454 589.935 517.255 578.977C517.194 577.186 516.944 572.724 517.36 571.176C520.178 560.676 536.647 561.126 544.719 560.644Z" fill="#051C42"/>
<path d="M544.719 560.644C551.989 560.726 559.049 560.789 566.309 561.189C569.634 561.797 583.229 564.611 585.958 564.811C589.416 566.206 593.019 567.379 595.742 569.903C593.644 571.374 593.075 571.919 591.301 573.776C587.367 578.612 583.463 583.471 579.587 588.354C576.949 590.029 572.303 593.173 569.656 594.441C562.615 599.905 556.917 607.1 550.136 611.699C547.14 611.275 548.073 613.46 544.117 612.695L544.42 610.496C545.496 609.165 546.028 608.02 546.823 606.525C543.631 609.129 542.132 611.135 538.372 610.963C535.475 607.28 538.675 596.823 525.728 594.714C523.888 594.415 520.346 594.623 518.379 594.678C513.794 598.484 512.072 603.75 510.641 604.44C504.361 607.466 498.886 606.233 494.287 613.241C491.529 617.444 491.017 624.108 488.222 627.668C487.321 611.602 506.454 589.935 517.255 578.977C517.194 577.186 516.944 572.724 517.36 571.176C520.178 560.676 536.647 561.126 544.719 560.644Z" fill="#0961F5"/>
<path d="M576.312 586.381C575.286 589.075 571.787 592.257 569.656 594.441C562.615 599.905 556.917 607.1 550.136 611.699C547.14 611.275 548.073 613.46 544.117 612.695L544.42 610.496C545.496 609.165 546.028 608.02 546.823 606.525C548.776 603.08 554.747 603.31 558.567 600.797C564.814 596.69 570.673 591.285 576.312 586.381Z" fill="#051C42"/>
<path d="M576.312 586.381C579.792 582.845 586.84 574.58 591.301 573.776C587.367 578.612 583.463 583.471 579.587 588.354C576.949 590.029 572.303 593.173 569.656 594.441C571.787 592.257 575.286 589.075 576.312 586.381Z" fill="#0753D1"/>
<path d="M486.394 637.995C496.465 641.799 506.797 644.872 517.309 647.189L517.922 648.194C520.63 648.613 521.567 648.613 523.807 650.252C526.805 655.008 521.311 669.129 520.127 675.188C518.217 676.736 516.844 677.771 515.171 679.61L517.082 679.975C517.704 680.636 519.025 682.06 519.769 682.425C508.823 683.439 483.322 678.554 480.044 666.111C478.177 659.025 482.047 645.166 485.684 638.933L486.394 637.995Z" fill="#051C42"/>
<path d="M486.395 637.995C496.465 641.799 506.797 644.872 517.309 647.189L517.922 648.194C518.691 650.959 518.899 652.676 517.467 655.023C509.336 659.542 491.475 653.16 486.387 645.662C484.482 642.854 485.216 641.963 485.684 638.933L486.395 637.995Z" fill="#0961F5"/>
<path d="M517.082 679.975L517.765 679.385C525.516 672.779 526.251 657.89 529.121 647.139C533.549 648.403 540.152 647.392 545.062 647.102C543.886 652.719 540.511 671.03 538.019 675.313L539.435 677.342C536.867 681.391 534.559 682.454 532.735 685.605C529.967 685.186 525.221 683.887 522.348 683.198L519.769 682.425C519.025 682.06 517.704 680.636 517.082 679.975Z" fill="#051C42"/>
<path d="M522.348 683.198C529.678 680.97 532.214 680.467 538.019 675.313L539.435 677.342C536.867 681.391 534.559 682.454 532.735 685.605C529.967 685.186 525.221 683.887 522.348 683.198Z" fill="#0753D1"/>
<path d="M529.121 647.139C531.237 636.446 531.988 617.633 545.387 617.232C549.642 623.698 548.127 629.023 546.965 636.545L545.062 647.102C540.152 647.392 533.549 648.403 529.121 647.139Z" fill="#051C42"/>
<path d="M545.368 616.845L545.387 617.232C531.988 617.633 531.237 636.446 529.121 647.139C526.251 657.89 525.516 672.779 517.765 679.385L517.082 679.975L515.171 679.61C516.844 677.771 518.217 676.736 520.127 675.188C521.311 669.129 526.805 655.008 523.807 650.252C521.567 648.613 520.63 648.613 517.922 648.194L517.309 647.189C521.087 647.721 522.723 648.306 526.357 649.529C529.266 639.893 529.609 626.293 535.896 619.32C538.54 616.388 541.676 616.71 545.368 616.845Z" fill="#0753D1"/>
<path d="M524.636 597.665C530.197 598.464 534.567 602.367 532.172 608.134C529.626 609.469 530.193 608.985 526.63 608.07C523.155 606.928 516.697 607.102 517.254 602.625C519.431 600.02 521.606 599.194 524.636 597.665Z" fill="#0961F5"/>
<path d="M569.656 594.441C572.303 593.173 576.949 590.029 579.587 588.354C571.151 599.196 558.686 608.858 551.659 619.927C549.411 623.468 551.106 632.853 546.965 636.545C548.127 629.023 549.642 623.698 545.387 617.232L545.368 616.845C545.953 616.05 549.34 612.557 550.136 611.699C556.917 607.1 562.615 599.905 569.656 594.441Z" fill="#0961F5"/>
<path d="M599.289 604.497C602.324 603.569 605.804 602.753 608.91 601.952C607.041 607.762 606.004 611.037 605.622 617.312C603.038 610.895 603.352 610.507 599.289 604.497Z" fill="#0961F5"/>
<path d="M576.583 611.143C585.081 613.182 578.726 625.357 580.529 632.804C581.138 635.322 583.541 633.277 585.244 635.79C580.899 642.206 578.766 635.664 575.342 635.117C574.805 635.564 574.263 636.005 573.716 636.439C566.329 642.281 567.05 637.324 562.1 636.742C560.35 640.242 563.156 651.147 557.796 651.918C555.962 649.668 556.534 649.585 556.431 646.216C557.673 636.595 557.633 621.084 559.329 612.878L560.605 612.211C565.979 616.468 557.641 632.546 568.613 635.226C577.387 633.254 576.329 618.531 576.583 611.143Z" fill="#FDFDFD"/>
<path d="M532.735 685.605C558.526 690.304 577.935 689.009 602.699 681.341C605.691 710.341 607.637 746.389 611.651 774.42C611.999 777.46 612.843 781.388 611.48 783.945C609.689 785.718 608.542 785.749 606.078 786.346C598.63 787.632 592.515 788.621 585.009 789.327C585.146 792.088 585.483 793.602 584.33 796.096C582.639 798.567 582.709 800.466 582.425 803.408L582.099 805.988C581.217 806.412 581.014 806.632 580.09 806.765C567.247 805.816 555.226 807.142 542.651 806.922L539.079 805.212C536.971 801.572 541.105 799.917 536.805 793.131C535.826 795.712 535.545 797.508 533.261 798.858C528.63 798.669 528.942 794.684 521.176 794.449C518.815 794.575 517.114 794.214 514.795 793.869C515.986 791.468 516.195 789.444 516.653 786.832C514.008 786.393 513.225 786.463 511.14 784.832C509.76 782.268 510.63 778.34 510.978 775.223C514.078 767.981 520.987 694.877 522.348 683.198C525.221 683.887 529.967 685.186 532.735 685.605ZM575.718 774.165C574.28 762.166 566.882 722.649 563.487 711.385C561.617 709.871 562.527 710.246 559.878 710.246C556.648 730.507 551.272 753.511 547.515 774.199C556.916 774.356 566.318 774.345 575.718 774.165Z" fill="#051C42"/>
<path d="M547.515 774.199C556.916 774.356 566.318 774.345 575.718 774.165C576.331 778.575 576.475 784.23 578.969 787.64C581.227 789.272 582.226 789.107 585.009 789.327C585.146 792.088 585.483 793.602 584.33 796.096C582.639 798.568 582.709 800.466 582.425 803.408L582.099 805.988C581.217 806.412 581.014 806.632 580.09 806.765C567.247 805.816 555.226 807.142 542.651 806.922L539.079 805.212C536.971 801.572 541.105 799.917 536.805 793.131L536.993 789.358C539.82 789.311 541.53 789.546 543.932 787.977C546.75 784.808 546.92 778.674 547.515 774.199Z" fill="#E2F2F0"/>
<path d="M516.653 786.832C524.281 788.181 529.234 788.895 536.993 789.358L536.805 793.131C535.826 795.712 535.545 797.508 533.261 798.858C528.63 798.669 528.942 794.684 521.176 794.449C518.815 794.575 517.114 794.214 514.796 793.869C515.986 791.468 516.195 789.444 516.653 786.832Z" fill="#FAC1AE"/>
<path d="M544.719 560.644C526.642 549.696 515.433 529.79 522.325 508.603C526.34 496.263 528.911 498.342 536.991 490.55C534.408 488.696 532.264 487.417 531.551 484.351C532.52 481.503 531.84 482.516 534.172 480.54C538.579 479.421 540.811 481.055 544.56 483.241C548.094 477.943 554.221 467.401 561.49 468.102C563.607 469.241 563.269 468.673 564.298 470.486C563.373 473.917 559.843 479.055 557.857 482.255C587.441 469.166 590.994 487.155 617.764 487.407C626.306 494.534 611.47 505.472 604.828 508.034C612.867 514.124 622.235 502.404 639.675 520.615C633.883 523.068 628.023 525.419 625.181 531.527C621.23 530.655 614.429 529.408 611.555 526.458L611.427 524.96C613.373 524.003 613.648 524.053 615.849 523.814C615.224 521.853 610.412 518.976 608.466 517.856C608.139 539.07 613.521 558.301 585.958 564.811C583.229 564.611 569.634 561.797 566.309 561.189C559.049 560.789 551.989 560.726 544.719 560.644Z" fill="#051C42"/>
<path d="M584.3 541.577C579.863 535.926 577.027 530.058 582.438 523.404C589.413 520.558 590.083 527.206 593.101 531.683L594.334 531.674C599.512 524.735 593.927 516.359 598.29 509.41C599.159 508.024 602.779 508.205 604.828 508.034C612.867 514.124 622.235 502.404 639.675 520.615C633.883 523.068 628.023 525.419 625.181 531.527C621.23 530.655 614.429 529.408 611.555 526.458L611.427 524.96C613.373 524.003 613.648 524.053 615.849 523.814C615.224 521.853 610.412 518.976 608.466 517.856C608.139 539.07 613.521 558.301 585.958 564.811C583.229 564.611 569.634 561.797 566.309 561.189C576.607 557.168 579.832 550.808 584.3 541.577Z" fill="#FAC1AE"/>
<path d="M1046.36 613.707C1072.89 609.686 1101.56 644.504 1123.68 654.3C1141.17 662.054 1150.75 651.589 1167.3 652.843C1177.35 653.605 1191.84 659.702 1201.84 662.302C1207.24 663.705 1213.69 664.448 1218.71 666.068C1215.68 667.021 1194.04 666.842 1188.94 666.86C1160.83 666.958 1132.72 666.859 1104.62 666.563C1063.09 666.14 1021.57 665.954 980.05 666.004C962.827 665.984 940.66 665.063 924.166 665.809C941.358 661.641 962.066 652.092 977.94 644.157C999.212 633.517 1022.58 616.516 1046.36 613.707Z" fill="#E2F2F0"/>
<path d="M738.823 751.935C741.851 750.828 741.54 750.357 744.139 751.251C745.548 754.028 744.452 758.181 743.707 761.328L744.299 763.229C744.63 766.159 744.491 768.721 746.415 770.718C751.775 773.722 760.011 770.285 759.168 778.181C764.788 776.924 798.933 777.396 803.32 778.969L804.01 781.501C807.525 783.391 816.416 782.037 822.866 783.333C833.341 786.918 834.157 782.045 843.44 779.65C849.584 779.887 868 779.824 872.213 782.931C873.375 776.79 875.109 774.95 882.022 774.374L882.626 774.74L876.082 777.295L875.744 778.074C880.994 781.302 882.485 780.387 887.844 778.568L888.77 779.218C889.139 781.845 888.95 782.539 888.511 785.177C891.453 785.295 893.392 785.098 895.855 786.769L895.989 788.079C884.697 798.418 701.428 803.274 673.191 804.082L640.462 804.78C636.809 804.851 627.075 804.82 624.035 805.29L622.543 805.455C608.615 799.611 614.528 795.892 606.484 790.817L606.078 786.346C608.542 785.749 609.689 785.718 611.48 783.945C612.843 781.388 611.999 777.46 611.651 774.42C623.191 774.392 666.86 773.479 674.925 776.579C676.279 779.378 678.4 784.093 680.017 786.526L680.305 785.145C678.84 782.288 677.208 779.734 677.05 776.557C687.617 776.016 708.897 777.323 720.597 777.469C726.602 768.907 732.677 760.395 738.823 751.935Z" fill="#E2F2F0"/>
<path d="M738.823 751.935C741.851 750.828 741.54 750.357 744.139 751.251C745.548 754.028 744.452 758.181 743.707 761.328L744.299 763.229C744.63 766.159 744.491 768.721 746.415 770.718C751.775 773.722 760.011 770.285 759.168 778.181L757.857 781.798L758.839 783.006C760.48 783.076 762 782.98 763.472 783.64L762.855 784.667C753.701 786.809 745.687 785.491 736.391 785.71C732.176 785.804 728.755 787.326 725.214 787.671C722.488 785.749 685.901 785.004 680.305 785.145C678.84 782.288 677.208 779.734 677.05 776.557C687.617 776.016 708.897 777.323 720.597 777.469C726.602 768.907 732.677 760.395 738.823 751.935Z" fill="#0961F5"/>
<path d="M872.213 782.931C873.375 776.79 875.109 774.95 882.022 774.374L882.626 774.74L876.082 777.295L875.744 778.074C880.994 781.302 882.485 780.387 887.844 778.568L888.77 779.218C889.139 781.845 888.95 782.539 888.511 785.177C882.83 785.836 876.443 787.358 872.213 782.931Z" fill="#0753D1"/>
<path d="M680.305 785.145C685.901 785.004 722.488 785.749 725.214 787.671C721.972 789.052 686.037 786.777 680.017 786.526L680.305 785.145Z" fill="#0753D1"/>
<path d="M585.009 789.327C592.515 788.621 598.63 787.632 606.078 786.346L606.484 790.817C614.528 795.892 608.615 799.611 622.543 805.455L624.035 805.29C632.671 809.997 633.23 811.401 634.726 821.097C639.026 820.383 653.353 821.136 654.724 826C646.135 839.9 516.628 837.963 494.695 832.887C490.139 831.836 473.487 830.926 472.726 825.686C477.061 819.348 501.378 819.928 508.958 816.335L509.942 817.536C514.306 822.839 508.985 824 517.295 823.419C522.284 823.552 529.057 825.043 532.349 821.332L533.814 819.105C536.067 818.391 541.065 818.234 543.656 818.061C544.446 811.88 542.191 810.726 539.079 805.212L542.651 806.922C544.245 810.091 545.523 814.931 547.466 816.233C558.114 815.159 569.625 816.712 580.519 815.072L581.598 813.755C582.059 811.127 582.385 810.044 581.832 807.361L580.09 806.765C581.014 806.632 581.217 806.412 582.099 805.988L582.425 803.408C582.709 800.466 582.639 798.567 584.33 796.096C585.483 793.602 585.146 792.088 585.009 789.327Z" fill="#E2F2F0"/>
<path d="M585.009 789.327C592.515 788.621 598.63 787.632 606.078 786.346L606.484 790.817C614.528 795.892 608.615 799.611 622.543 805.455L622.264 806.71C621.124 810.083 621.736 816.226 622.08 819.905C616.7 819.842 609.257 819.952 604.066 819.544C593.437 813.488 594.614 812.507 581.598 813.755C582.059 811.127 582.385 810.044 581.832 807.361L580.09 806.765C581.014 806.632 581.217 806.412 582.099 805.988L582.425 803.408C582.709 800.466 582.64 798.567 584.33 796.096C585.483 793.602 585.146 792.088 585.009 789.327Z" fill="#0961F5"/>
<path d="M582.425 803.408C589.553 794.237 602.565 810.915 604.066 819.544C593.437 813.488 594.614 812.507 581.598 813.754C582.059 811.127 582.385 810.044 581.832 807.361L580.09 806.765C581.014 806.632 581.217 806.412 582.099 805.988L582.425 803.408Z" fill="#051C42"/>
<path d="M585.009 789.327C592.515 788.621 598.63 787.632 606.078 786.346L606.484 790.817C603.947 793.398 603.851 794.308 603.169 797.744C597.329 803.486 593.378 795.516 584.33 796.096C585.483 793.602 585.146 792.088 585.009 789.327Z" fill="#FAC1AE"/>
<path d="M624.035 805.29C632.671 809.997 633.23 811.401 634.726 821.097L633.32 823.701C629.673 826.07 613.39 826.11 608.211 825.937C600.417 825.678 582.082 829.31 581.591 818.971C581.563 818.626 580.668 815.598 580.519 815.072L581.598 813.754C594.614 812.507 593.437 813.488 604.066 819.544C609.257 819.952 616.7 819.842 622.08 819.905C621.736 816.225 621.124 810.083 622.264 806.71L622.543 805.455L624.035 805.29Z" fill="#FDFDFD"/>
<path d="M624.035 805.29C632.671 809.997 633.23 811.401 634.726 821.097L633.32 823.701C629.673 826.07 613.39 826.11 608.211 825.937C600.417 825.678 582.082 829.31 581.591 818.971C583.068 821.434 583.616 822.548 586.551 823.254C593.016 824.807 627.81 824.658 632.089 822.156L632.113 821.003L629.747 819.387C632.025 818.681 631.233 819.363 632.311 817.394C631.218 810.923 627.628 809.393 622.264 806.71L622.543 805.455L624.035 805.29Z" fill="#051C42"/>
<path d="M539.079 805.212L542.651 806.922C544.245 810.091 545.523 814.931 547.466 816.233L545.935 817.104C545.69 819.018 545.777 821.936 543.787 822.823C536.745 825.961 512.145 828.973 507.767 821.795C508.175 818.901 507.731 820.015 509.942 817.536C514.306 822.839 508.985 824 517.295 823.419C522.284 823.552 529.057 825.043 532.349 821.332L533.814 819.105C536.067 818.391 541.065 818.234 543.656 818.061C544.446 811.88 542.191 810.727 539.079 805.212Z" fill="#051C42"/>
<path d="M543.656 818.061C543.154 825.106 534.04 823.725 532.349 821.332L533.814 819.105C536.067 818.391 541.065 818.234 543.656 818.061Z" fill="#FDFDFD"/>
<path d="M669.35 239.584C673.44 239.957 680.344 238.95 684.547 238.288L680.881 246.938L682.081 247.227C680.138 252.277 672.389 266.601 672.151 271.21C672.129 271.625 674.9 273.722 675.66 274.31C682.794 278.629 690.024 285.576 696.574 288.826L697.373 289.229C694.519 291.853 691.407 293.01 688.414 295.257C684.726 294.681 675.626 288.505 672.482 286.045C666.01 283.199 659.414 279.254 653.224 275.737C655.093 271.32 656.167 269.158 658.626 265.045C662.389 255.415 665.41 251.518 669.35 239.584Z" fill="#0961F5"/>
<path d="M655.478 275.618C664.318 273.041 667.636 270.697 675.66 274.31C682.794 278.629 690.025 285.576 696.574 288.826L697.373 289.229C694.519 291.853 691.407 293.01 688.414 295.257C684.726 294.681 675.626 288.505 672.482 286.045C670.146 283.574 659.029 277.619 655.478 275.618Z" fill="#3B80F7"/>
<path d="M669.911 270.108C673.495 262.612 677.671 254.493 680.881 246.938L682.081 247.227C680.138 252.277 672.389 266.601 672.151 271.21C672.129 271.625 674.9 273.722 675.66 274.31C667.636 270.697 664.318 273.041 655.478 275.618C659.028 277.619 670.146 283.574 672.482 286.045C666.01 283.199 659.414 279.254 653.224 275.737C655.093 271.32 656.167 269.158 658.626 265.045C658.232 267.267 656.127 272.1 655.19 274.429L669.911 270.108Z" fill="#275D6A"/>
<path d="M1429.53 492.766L1430.06 493.444C1424.32 507.134 1418.41 520.755 1412.36 534.306C1408.35 532.726 1404.12 530.668 1400.18 528.859L1393.75 533.787C1394.39 531.704 1394.58 527.853 1394.78 525.554C1398.37 522.808 1415.79 506.908 1417.58 503.878L1416.33 504.279C1407.15 510.735 1398.16 516.987 1389.3 523.892L1371.52 519.668C1386.16 511.673 1413.4 500.333 1429.53 492.766Z" fill="#0961F5"/>
<path d="M1449.7 649.889L1451.75 650.353L1451.79 656.137C1460.6 651.655 1471.37 652.407 1480.37 655.653C1492.84 660.148 1506.59 664.632 1519.93 665.842C1495.96 667.298 1471.29 667.007 1447.24 666.834C1435.68 666.751 1423.99 665.818 1412.35 665.928C1419.56 663.982 1425.18 662.297 1432.17 659.686C1434.91 658.662 1445.18 654.556 1447.37 654.246C1448.76 656.758 1448.57 658.721 1448.69 661.609C1449.15 658.064 1449.39 653.529 1449.7 649.889Z" fill="#E2F2F0"/>
<path d="M1449.7 649.889L1451.75 650.353L1451.79 656.137C1452.15 659.54 1452.82 662.18 1451.1 665.092L1450.18 665.649L1448.87 664.743C1448.81 663.995 1448.65 662.265 1448.69 661.609C1449.15 658.064 1449.39 653.529 1449.7 649.889Z" fill="#0961F5"/>
<path d="M798.353 675.094C805.375 681.512 801.742 717.268 796.477 725.152C793.237 729.997 772.696 728.643 769.52 725.324C768.317 723.287 764.189 716.827 764.481 714.799L767.149 714.897L765.681 714.458C771.347 716.902 775.349 718.155 781.223 719.964C798.627 698.979 790.255 699.913 798.353 675.094Z" fill="#3B80F7"/>
<path d="M448.391 270.401C454.22 280.536 453.176 286.368 466.254 282.14L461.208 286.08L457.93 286.362C457.733 290.208 463.918 295.548 466.633 299.31C464.29 308.646 465.268 312.481 467.172 321.959C449.872 343.556 444.391 353.989 433.327 379.097L421.645 381.823C416.646 384.296 412.225 386.452 407.071 388.618C400.067 392.891 381.321 393.505 375.9 387.372L378.76 386.865C389.445 383.055 388.277 388.385 402.819 379.106C415.273 380.368 420.263 379.754 432.113 375.982C432.926 374.325 435.51 369.304 435.857 367.761C440.237 348.288 452.659 335.355 465.702 320.753C463.5 311.34 462.661 308.732 465.395 299.544C457.902 292.126 451.341 280.524 448.391 270.401Z" fill="black"/>
<path d="M403.617 381.029C409.741 381.734 416.131 380.66 421.645 381.823C416.646 384.296 412.225 386.452 407.071 388.618C400.067 392.891 381.321 393.505 375.9 387.372L378.76 386.865C391.047 385.275 390.956 388.951 403.617 381.029Z" fill="#0961F5"/>
<path d="M380.332 484.177L380.664 486.542C377.479 488.573 374.056 490.9 370.641 492.432C366.251 497.732 366.46 497.473 368.052 504.149C376.251 508.73 381.378 515.183 389.621 520.351C389.869 545.125 393.607 568.865 396.211 593.363C396.285 594.055 393.566 597.796 393.02 598.495L392.245 597.64C394.537 594.223 394.468 593.679 393.902 590.147C392.686 588.519 392.653 587.905 392.081 585.883L391.891 585.201L391.032 584.735C387.718 579.778 386.17 557.655 388.564 551.97C390.131 549.913 387.857 535.104 387.362 531.626C382.709 525.57 381.418 523.709 380.711 516.364C378.272 513.427 353.178 494.383 349.037 491.671L349.334 491.272L352.055 491.901C358.068 490.587 359.802 490.139 364.385 486.098C371.593 485.83 373.4 485.905 380.332 484.177Z" fill="black"/>
<path d="M380.332 484.177L380.664 486.542C377.479 488.573 374.056 490.9 370.641 492.432C365.442 495.185 356.942 495.393 352.055 491.901C358.068 490.587 359.802 490.139 364.385 486.098C371.593 485.83 373.4 485.905 380.332 484.177Z" fill="#0753D1"/>
<path d="M388.564 551.97C390.213 555.879 393.182 584.283 393.902 590.147C392.686 588.519 392.653 587.905 392.081 585.883L391.891 585.201L391.032 584.735C387.718 579.778 386.17 557.655 388.564 551.97Z" fill="#2471F6"/>
<path d="M380.711 516.364L387.737 520.934L387.362 531.626C382.709 525.57 381.418 523.709 380.711 516.364Z" fill="#3B80F7"/>
<path d="M536.805 793.131C541.105 799.917 536.971 801.572 539.079 805.212C542.191 810.727 544.446 811.88 543.656 818.061C541.065 818.234 536.067 818.391 533.814 819.105C532.127 818.344 529.847 815.763 528.479 814.186C525.264 810.483 514.936 812.131 509.516 812.39L508.922 811.668L509.809 808.734L508.737 807.612L510.338 806.789L511.889 799.768L518.197 799.187C520.597 797.359 519.956 797.642 521.176 794.449C528.942 794.684 528.63 798.669 533.261 798.858C535.545 797.508 535.826 795.712 536.805 793.131Z" fill="#0961F5"/>
<path d="M518.197 799.187C524.02 799.258 526.438 799.462 527.811 806.137C525.895 811.338 515.2 808.671 509.809 808.734L508.737 807.612L510.338 806.789L511.889 799.768L518.197 799.187Z" fill="#051C42"/>
<path d="M515.428 804.427C519.728 803.619 521.477 802.56 524.316 806.106H523.752C520.476 806.098 517.474 806.498 515.428 804.427Z" fill="#E2F2F0"/>
<path d="M803.32 778.969C803.445 773.442 799.137 766.024 800.738 759.478C802.378 757.642 801.452 758.1 804.073 757.904L802.378 759.076L802.268 760.121C807.706 763.928 809.087 765.103 813.575 769.977C827.118 765.598 829.355 771.782 834.549 770.395C832.454 774.339 831.497 779.016 830.391 783.375C828.319 783.245 824.835 782.93 822.866 783.333C816.416 782.037 807.525 783.391 804.01 781.501L803.32 778.969Z" fill="#0961F5"/>
<path d="M742.408 726.241C746.276 725.747 748.562 724.934 752.291 723.749C760.15 726.001 765.178 727.478 773.204 728.596C773.096 736.434 773.749 738.477 774.6 745.997C772.856 750.964 765.695 764.117 761.555 767.051C758.396 766.956 757.785 766.963 754.742 767.71L754.063 767.883C752.207 766.951 752.11 766.938 750.956 765.27C752.271 765.631 753.528 765.846 754.865 766.098C757.409 764.952 756.527 765.706 758.025 762.809C759.347 765.023 758.645 764.542 760.713 765.519C761.17 765.297 761.759 765.044 762.078 764.648C776.66 746.551 771.504 747.825 771.376 729.804C763.908 737.628 759.8 742.754 753.819 751.782C754.563 754.544 755.7 757.193 756.753 759.86C754.993 758.94 753.433 755.775 752.221 753.831C754.295 746.308 764.322 735.097 769.928 729.591C763.452 728.349 758.576 726.759 752.555 725.472C748.741 726.827 747.087 727.381 743.132 728.077C741.038 730.999 736.327 736.3 735.44 738.946C737.395 745.185 739.379 747.352 745.48 748.963C745.806 750.949 745.992 753.43 747.067 755.038C746.357 757.308 746.434 758.177 746.231 760.533C748.085 763.502 748.904 763.24 750.956 765.27L744.299 763.229L743.707 761.328C744.452 758.181 745.548 754.028 744.139 751.251C741.54 750.357 741.851 750.828 738.823 751.935C735.193 750.437 731.109 748.753 727.726 746.771C721.033 742.85 719.65 743.528 712.573 745.693C709.684 744.799 700.981 741.81 699.788 743.566C694.325 751.612 681.881 769.052 677.05 776.557C677.208 779.733 678.84 782.288 680.305 785.145L680.017 786.526C678.4 784.093 676.279 779.378 674.925 776.579C685.817 762.348 690.047 754.738 699.434 740.668C710.493 743.914 711.695 744.54 722.562 741.419L728.749 746.607C731.713 739.414 737.725 732.973 742.408 726.241Z" fill="#344B6A" fill-opacity="0.780392"/>
<path d="M400.527 416.288C391.122 407.371 380.555 391.396 370.301 387.012L369.435 386.648L369.519 386.211L375.9 387.372C381.321 393.505 400.067 392.891 407.071 388.618L406.545 389.214C400.424 396.046 394.044 390.844 388.589 394.007C385.147 402.938 399.456 412.474 405.036 417.947C398.508 437.614 391.883 462.981 388.484 483.37L380.664 486.542L380.332 484.177C389.584 481.626 386.093 479.399 386.907 471.319C388.736 453.172 394.817 433.648 400.527 416.288Z" fill="black"/>
<path d="M773.571 398.017L777.122 396.075L778.882 396.801C775.432 401.302 771.27 410.876 778.542 413.963C780.557 411.433 781.656 410.394 782.458 407.257C781.625 402.827 778.374 402.768 778.593 399.905C788.529 399.944 789.093 406.338 787.022 413.939C789.117 423.958 780.846 424.458 773.486 425.76C770.79 420.873 765.821 417.915 765.246 414.253C767.143 405.95 767.187 403.518 773.571 398.017Z" fill="#0961F5"/>
<path d="M778.542 413.963C780.557 411.433 781.656 410.394 782.458 407.257C781.625 402.827 778.374 402.768 778.593 399.905C788.529 399.944 789.093 406.338 787.022 413.939L785.115 418.129C782.661 419.514 783.707 419.4 781.263 418.793C779.464 416.728 779.074 416.532 778.542 413.963Z" fill="#FDFDFD"/>
<path d="M773.571 398.017C776.924 401.696 773.742 413.422 765.246 414.253C767.143 405.95 767.187 403.518 773.571 398.017Z" fill="#3B80F7"/>
<path d="M392.848 629.013C396.891 617.923 396.841 614.994 409.226 615.072C412.538 617.289 413.518 617.503 414.429 621.479C415.404 625.73 411.939 634.409 408.443 636.457L407.956 636.166C405.576 639.081 399.885 638.176 396.526 637.578C394.256 635.828 393.807 632.196 392.848 629.013Z" fill="#0961F5"/>
<path d="M409.226 615.072C412.538 617.289 413.518 617.503 414.429 621.479C415.404 625.73 411.939 634.409 408.443 636.457L407.956 636.166C406.665 635.191 403.326 632.8 402.832 631.377C400.57 624.865 402.754 617.698 409.226 615.072Z" fill="#B6D2FD"/>
<path d="M710.316 301.101C717.939 309.114 723.2 319.173 731.325 325.817C726.645 326.391 721.472 326.874 716.943 328.032C712.593 324.222 710.788 323.217 705.881 320.451C704.893 314.297 705.026 311.731 700.954 306.923C703.605 305.988 708.147 303.05 710.316 301.101Z" fill="#3B80F7"/>
<path d="M436.124 257.317C434.854 255.214 434.45 254.593 433.709 252.266C434.861 249.013 435.673 249.224 438.862 246.694C442.89 253.024 444.092 255.541 447.025 262.709C453.069 267.613 461.251 272.813 469.157 273.961C471.735 274.335 472.29 274.306 474.675 275.408C473.327 276.653 467.707 281.948 466.254 282.14C453.176 286.368 454.22 280.536 448.391 270.401L445.254 263.543C441.347 261.923 438.783 260.56 436.124 257.317Z" fill="#0961F5"/>
<path d="M753.819 751.782C759.8 742.754 763.908 737.628 771.376 729.804C771.504 747.825 776.66 746.551 762.078 764.648C761.759 765.044 761.17 765.297 760.713 765.519C758.645 764.542 759.347 765.023 758.025 762.809L756.753 759.86C755.7 757.193 754.563 754.544 753.819 751.782Z" fill="#B6D2FD"/>
<path d="M474.675 275.408C484.664 282.066 495.23 286.798 503.481 292.297C495.504 292.46 493.286 292.726 485.425 295.175C474.004 291.844 473.173 286.112 461.208 286.08L466.254 282.14C467.707 281.948 473.327 276.653 474.675 275.408Z" fill="#0961F5"/>
<path d="M713.406 282.154C717.093 278.147 716.517 278.005 721.033 280.39C723.094 280.132 725.345 279.601 727.102 280.665C722.919 282.056 713.745 284.669 711.4 287.911C711.337 293.287 711.073 295.807 710.316 301.101C708.147 303.05 703.605 305.988 700.954 306.923C698.799 304.436 702.192 302.587 700.486 295.473L699.891 294.707C697.441 293.858 691.327 294.923 688.414 295.257C691.407 293.01 694.519 291.853 697.373 289.229C705.359 282.482 709.631 291.133 713.406 282.154Z" fill="#0961F5"/>
<path d="M713.406 282.154C717.093 278.147 716.517 278.005 721.033 280.39C723.094 280.132 725.345 279.601 727.102 280.665C722.919 282.056 713.745 284.669 711.4 287.911C707.555 288.282 702.539 292.395 700.486 295.473L699.891 294.707C697.441 293.858 691.327 294.923 688.414 295.257C691.407 293.01 694.519 291.853 697.373 289.229C705.359 282.482 709.631 291.133 713.406 282.154Z" fill="#2471F6"/>
<path d="M837.029 769.11C847.041 764.641 846.06 760.573 851.074 758.159C852.769 761.068 849.623 770.781 849.097 774.354C848.673 777.237 845.786 778.562 843.44 779.65C834.157 782.045 833.341 786.918 822.866 783.333C824.835 782.93 828.319 783.245 830.391 783.375C831.497 779.016 832.454 774.339 834.549 770.395L837.029 769.11Z" fill="#B6D2FD"/>
<path d="M837.029 769.11C847.041 764.641 846.06 760.573 851.074 758.159C852.769 761.068 849.623 770.781 849.097 774.354C848.673 777.237 845.786 778.562 843.44 779.65C834.157 782.045 833.341 786.918 822.866 783.333C824.835 782.93 828.319 783.245 830.391 783.375L847.779 775.825C848.116 770.733 849.756 765.225 850.25 759.717C845.127 766.431 845.221 767.858 837.029 769.11Z" fill="#5B8999"/>
<path d="M572.196 255.387C573.099 249.214 583.111 238.935 578.926 232.607L579.708 233.153L578.781 233.776C580.245 239.045 588.579 248.407 592.165 253.759C591.719 257.489 591.713 256.209 588.681 259.404L583.773 263.186C579.906 260.352 576.21 257.973 572.196 255.387Z" fill="#0961F5"/>
<path d="M1450.92 648.182C1453.32 642.899 1457.65 634.908 1464.59 636.856C1469.8 644.087 1458.74 649.196 1452.76 649.901L1451.75 650.353L1449.7 649.889C1439.5 650.138 1436.12 643.576 1433.71 635.044C1444.2 638.556 1445.12 638.324 1449.98 647.927L1450.92 648.182Z" fill="#0961F5"/>
<path d="M730.461 825.396C735.166 823.678 736.014 823.694 740.636 822.697C743.244 822.132 747.709 818.649 750.957 818.83C751.843 820.964 749.184 829.036 748.479 831.687C742.469 833.601 736.359 835.107 730.254 836.692C729.594 833.476 729.533 828.589 730.461 825.396Z" fill="#B6D2FD"/>
<path d="M709.642 813.864C714.612 818.163 723.98 824.603 730.461 825.396C729.533 828.589 729.594 833.476 730.254 836.692C726.84 836.088 717.041 831.821 713.269 830.275L709.642 813.864Z" fill="#0961F5"/>
<path d="M367.018 834.833C366.78 831.656 366.15 828.165 367.378 825.317C368.957 823.497 369.24 823.388 371.569 822.705L371.87 823.309L369.381 824.839C370.33 827.388 377.635 829.993 380.273 830.832L389.154 826.518L389.551 825.874C391.417 829.318 390.981 834.59 386.862 836.229C380.686 838.7 373.081 836.59 367.018 834.833Z" fill="#0961F5"/>
<path d="M389.154 826.518C389.028 832.864 386.322 838.967 379.067 835.115C378.416 833.185 378.548 832.244 380.273 830.832L389.154 826.518Z" fill="#B6D2FD"/>
<path d="M669.35 239.584C672.209 238.076 682.624 237.036 686.423 236.532C695.869 244.973 714.348 261.926 721.829 271.787C719.811 274.599 718.566 275.187 718.76 277.976L721.033 280.39C716.517 278.005 717.093 278.147 713.406 282.154C714.614 278.23 717.253 275.286 719.775 272.044C708.872 260.669 697.546 249.708 685.819 239.183L682.081 247.227L680.881 246.938L684.547 238.288C680.344 238.95 673.44 239.957 669.35 239.584Z" fill="black" fill-opacity="0.960784"/>
<path d="M747.908 362.318C751.407 364.675 757.648 369.544 757.496 374.017C754.73 377.323 752.285 376.527 748.052 376.539C745.127 370.964 744.181 369.703 739.066 366.09C742.52 363.974 743.933 362.841 747.908 362.318Z" fill="#3B80F7"/>
<path d="M488.281 325.096C495.509 328.211 499.367 323.877 503.052 318.295C502.672 323.465 501.623 328.469 500.475 333.514C495.654 332.943 483.265 332.324 480.628 329.326L480.565 328.585C483.465 328.502 485.7 326.683 488.281 325.096Z" fill="#0753D1"/>
<path d="M508.958 816.335C514.551 812.758 526.251 810.876 528.736 819.285C526.524 823.16 519.076 821.834 514.707 821.607L514.446 822.07L517.295 823.419C508.985 824 514.306 822.839 509.942 817.536L508.958 816.335Z" fill="#FDFDFD"/>
<path d="M738.717 354.143C740.768 351.411 742.268 348.765 745.934 348.457L746.7 349.734C746.287 353.508 745.657 359.262 747.908 362.318C743.934 362.841 742.52 363.974 739.066 366.09L738.275 365.549C737.107 363.097 738.329 357.197 738.717 354.143Z" fill="#0961F5"/>
<path d="M752.221 753.831C753.433 755.775 754.993 758.94 756.753 759.86L758.025 762.809C756.527 765.706 757.409 764.952 754.865 766.098C753.528 765.846 752.271 765.631 750.956 765.271C748.904 763.24 748.085 763.502 746.231 760.533C746.434 758.177 746.357 757.308 747.067 755.038L752.221 753.831Z" fill="#0961F5"/>
<path d="M480.565 328.585C481.334 323.989 481.798 314.246 484.911 311.553L488.561 311.824C486.722 311.983 486.827 311.675 485.641 312.626C488.006 317.093 488.974 320.051 488.281 325.096C485.7 326.683 483.465 328.502 480.565 328.585Z" fill="#0961F5"/>
<path d="M323.403 479.945C328.953 482.471 332.726 485.842 337.868 488.623C333.375 489.501 326.882 491.14 322.531 490.607L323.403 479.945Z" fill="#B6D2FD"/>
<path d="M574.768 201.745C576.751 200.959 580.55 201.501 582.872 201.653C581.022 208.097 579.228 213.617 578.556 220.312C577.125 214.002 575.763 208.142 574.768 201.745Z" fill="#42BEBA" fill-opacity="0.980392"/>
<path d="M941.57 806.577L943.1 806.985L943.234 808.569C941.625 810.083 931.205 813.943 927.595 815.865C926.081 815.559 926.756 815.904 925.641 814.578L926.246 813.08C930.483 809.573 936.313 807.871 941.57 806.577Z" fill="#0961F5"/>
<path d="M910.56 824.502C910.929 824.439 912.349 824.533 912.812 824.556L913.087 825.851C910.489 829.146 902.133 831.122 897.927 832.236L895.989 832.087L895.432 831.036C897.307 827.804 906.495 825.741 910.56 824.502Z" fill="#0961F5"/>
<path d="M839.124 836.598C841.847 836.708 840.882 836.3 842.788 838.033L842.678 839.281C840.34 840.355 831.081 840.653 827.785 840.92C826.797 840.92 825.494 840.74 824.482 840.646L823.917 839.634C826.71 836.794 834.989 836.802 839.124 836.598Z" fill="#0961F5"/>
<path d="M877.196 832.723L878.185 833.17L878.585 834.315C876.027 837.1 865.81 837.555 861.55 838.049C860.035 837.304 860.608 837.876 859.949 836.119C862.279 833.562 873.226 833.131 877.196 832.723Z" fill="#0961F5"/>
<path d="M1078.65 785.498C1080.49 785.185 1081.26 785.224 1082.55 786.408C1080.17 789.46 1071.72 790.354 1067.5 791.17C1066.8 791.154 1065.33 790.911 1064.56 790.817L1063.99 789.805C1066.33 786.997 1074.74 786.157 1078.65 785.498Z" fill="#0961F5"/>
<path d="M976.692 800.505C977.861 801.329 977.343 800.803 977.83 802.576C975.256 805.094 964.584 805.565 960.496 805.988L959.72 804.42L960.457 803.11C965.04 801.643 971.772 801.093 976.692 800.505Z" fill="#0961F5"/>
<path d="M1005.65 796.528C1008.06 796.042 1010.42 795.822 1012.52 796.85L1012.42 797.979C1010.26 799.972 1007.5 799.76 1004.38 800.034C1001.06 800.599 998.466 801.47 995.642 799.979L996.01 798.771C998.631 796.81 1002.28 796.85 1005.65 796.528Z" fill="#0961F5"/>
<path d="M1039.97 791.907C1042.85 791.46 1044.71 790.809 1047.23 792.096L1047.14 793.202C1045.07 795.155 1041.71 795.092 1038.77 795.398C1035.75 795.885 1033.16 796.708 1030.47 795.539L1030.51 794.41C1033.16 792.221 1036.48 792.284 1039.97 791.907Z" fill="#0961F5"/>
<path d="M1113.4 775.872C1113.6 776.128 1114.06 777.43 1114.2 777.786C1112.3 781.084 1102.54 782.991 1098.79 783.988C1097.81 782.68 1098.21 783.419 1098.04 781.462C1100.45 779.799 1109.8 777.098 1113.4 775.872Z" fill="#0961F5"/>
<path d="M795.818 838.928C799.153 838.763 803.657 838.292 806.395 840.348C805.085 841.956 805.03 841.422 802.127 841.72C799.051 841.822 790.114 842.387 788.262 840.183C790.726 838.904 793.064 839.037 795.818 838.928Z" fill="#0961F5"/>
<path d="M1121.44 756.587C1128.27 757.498 1127.75 763.291 1127.26 768.546L1125.28 768.259C1123.61 764.499 1124.91 763.522 1121.44 756.587Z" fill="#0961F5"/>
<path d="M1249.93 714.235L1250.23 714.691L1249.52 715.758C1244.69 716.884 1237.32 717.094 1232.2 717.412L1231.62 716.789C1233.73 714.665 1246.19 714.469 1249.93 714.235Z" fill="#2471F6" fill-opacity="0.921569"/>
<path d="M1165.02 722.127L1166.04 722.053L1165.83 723.104C1161.78 724.44 1158.16 724.768 1153.97 725.306C1153.63 725.335 1152.98 725.102 1152.6 724.998L1152.95 724.062C1158.05 722.504 1159.64 722.441 1165.02 722.127Z" fill="#5ABEC5" fill-opacity="0.976471"/>
<path d="M1208.45 717.404C1212.1 717.179 1215.41 716.761 1218.97 717.572C1217.8 718.97 1217.5 718.588 1215.16 719.05C1211.28 719.323 1208.89 719.682 1205.1 718.829C1205.85 717.623 1206.54 717.868 1208.45 717.404Z" fill="#5ABEC5" fill-opacity="0.941176"/>
<path d="M1181.69 719.674C1185.89 719.369 1188.26 718.994 1192.34 719.945L1192.09 720.746L1189.37 721.092C1186.4 721.522 1182.03 721.971 1179.14 721.314L1179.36 720.525L1181.69 719.674Z" fill="#2471F6" fill-opacity="0.921569"/>
<path d="M1297.49 707.852C1298.12 707.687 1299.49 707.701 1300.21 707.678L1300.39 708.328C1297.1 710.101 1293.95 710.465 1290.28 711.159C1289.66 711.178 1288.31 711.037 1287.62 710.988L1287.66 710.228C1291.21 708.659 1293.64 708.451 1297.49 707.852Z" fill="#5ABEC5" fill-opacity="0.937255"/>
<path d="M1356.66 687.14L1357.18 687.624L1357.08 688.775C1354.78 691.365 1351.03 693.29 1347.98 695.085L1347.44 694.466C1348.08 692.461 1354.39 688.718 1356.66 687.14Z" fill="#62CBC5" fill-opacity="0.937255"/>
<path d="M1363.57 667.868C1364.94 668.551 1364.95 668.755 1365.86 669.951C1366.95 674.356 1366.09 676.459 1364.04 680.221C1362.54 678.626 1365.01 674.153 1363.57 667.868Z" fill="#62CBC5" fill-opacity="0.956863"/>
<path d="M1335.97 698.29L1336.74 698.382L1336.93 699.384C1333.96 701.226 1330.47 701.929 1327.07 702.829L1325.77 702.21C1327.34 700.574 1333.42 699.073 1335.97 698.29Z" fill="#5ABEC5" fill-opacity="0.937255"/>
<path d="M1356.41 574.147L1357.21 575.277C1355.11 577.426 1350.46 579.408 1347.57 580.834L1346.87 579.851C1348.02 578.154 1354.22 575.291 1356.41 574.147Z" fill="#5ABEC5" fill-opacity="0.862745"/>
<path d="M1337.17 583.613L1338.16 584.211C1336.68 586.236 1331.31 588.17 1328.7 589.312C1327.94 589.032 1328.13 589.042 1327.5 588.403C1329.42 586.434 1334.37 584.752 1337.17 583.613Z" fill="#2471F6" fill-opacity="0.921569"/>
<path d="M1296.8 625.428L1297.39 625.307C1299.94 627.773 1302.54 630.805 1305.05 633.431C1301.39 633.326 1297.08 629.109 1296.8 625.428Z" fill="#62CBC5" fill-opacity="0.937255"/>
<path d="M1318.93 592.356L1318.89 593.099C1317.6 595.102 1311.57 597.95 1309.12 599.282C1309.07 598.528 1309.29 598.198 1309.54 597.399C1312.94 594.615 1314.82 594.034 1318.93 592.356Z" fill="#5ABEC5" fill-opacity="0.901961"/>
<path d="M1329.93 645.68C1334.45 645.427 1338.5 647.442 1341.84 650.322C1338.4 649.965 1332.98 647.405 1329.93 645.68Z" fill="#62CBC5" fill-opacity="0.898039"/>
<path d="M1386.12 545.025L1386.83 546.113C1385.65 549.533 1384.01 551.47 1381.9 554.39L1381.29 553.968C1381.42 551.718 1384.71 547.213 1386.12 545.025Z" fill="#5ABEC5" fill-opacity="0.905882"/>
</svg>
