<svg width="1536" height="1024" viewBox="0 0 1536 1024" fill="none" xmlns="http://www.w3.org/2000/svg">
<path d="M600.762 437.284C604.948 409.898 622.727 412.878 645.091 416.649L644.714 421.043C644.615 431.809 645.926 448.088 652.296 456.91L652.777 460.958L651.792 462.105C647.585 463.029 646.291 460.859 642.184 458.42C643.87 460.6 651.629 470.985 653.288 472.039C659.429 481.506 673.196 501.996 677.199 512.122C679.305 522.97 698.572 534.419 701.76 540.148L701.698 541.154C697.88 545.638 679.172 567.258 677.948 570.916C679.373 575.559 680.969 588.279 679.127 592.81C684.377 595.324 688.556 605.177 693.083 606.327C693.541 608.895 695.481 611.24 696.964 613.419C711.532 634.818 726.785 657.353 713.358 683.907C724.253 684.532 756.345 694.532 751.148 701.925C727.349 735.773 563.909 727.856 540.895 726.066C520.7 724.539 500.621 721.76 480.771 717.744C472.712 716.043 422.179 707.443 450.725 691.176C457.056 687.568 464.925 686.935 469.514 693.925C472.794 695.072 473.735 697.484 479.079 698.397L479.528 697.192C478.346 694.428 477.107 692.043 475.733 689.379C477.035 675.681 483.398 664.415 490.422 652.593C491.698 650.446 492.811 650.451 494.834 650.069C500.067 643.111 506.456 633.074 515.434 633.086C521.447 636.476 525.791 637.191 529.729 642.758C531.056 641.222 531.989 641.192 533.085 639.341C529.742 637.131 526.762 634.417 524.25 631.294C512.758 617.104 513.405 603.719 515.109 586.78C514.062 585.334 513.284 583.985 513.578 582.124C521.015 535.017 552.843 495.56 588.905 467.009L588.896 466.409C584.143 451.665 589.183 445.392 600.762 437.284ZM477.066 689.515C482.143 700.616 489.47 704.373 500.167 696.894C512.978 683.037 489.915 676.618 479.214 676.484C477.707 681.766 477.533 684.158 477.066 689.515Z" fill="#051C42"/>
<path d="M600.762 437.284C604.948 409.898 622.727 412.878 645.091 416.649L644.714 421.043C644.615 431.809 645.926 448.088 652.296 456.91L652.777 460.958L651.792 462.105C647.585 463.029 646.291 460.859 642.184 458.42C643.87 460.6 651.629 470.985 653.288 472.039C659.429 481.506 673.196 501.996 677.199 512.122C679.305 522.97 698.572 534.419 701.76 540.148L701.698 541.154C697.88 545.638 679.172 567.258 677.948 570.916C679.373 575.559 680.969 588.279 679.127 592.81C668.912 598.377 653.804 602.188 642.562 605.043C642.524 606.744 642.534 606.914 642.845 608.585C639.983 609.648 638.063 610.386 635.3 611.738C627.159 614.286 620.563 623.549 615.62 630.011C608.078 622.988 606.445 623.23 597.88 617.747C593.798 615.133 587.214 608.925 583.487 605.495C560.869 605.567 534.965 597.366 515.109 586.78C514.062 585.334 513.284 583.985 513.578 582.124C521.015 535.017 552.843 495.56 588.905 467.009L588.896 466.409C584.143 451.665 589.183 445.392 600.762 437.284Z" fill="#3B80F7"/>
<path d="M642.184 458.42C636.941 452.249 620.009 435.352 620.717 427.856C625.227 421.28 636.974 426.243 643.619 424.184C643.971 423.012 644.272 422.185 644.714 421.043C644.615 431.809 645.926 448.088 652.296 456.91L652.777 460.958L651.792 462.105C647.585 463.029 646.291 460.859 642.184 458.42Z" fill="#0753D1"/>
<path d="M588.896 466.409C594.196 462.84 598.07 460.708 604.742 462.321C622.208 466.544 635.377 481.873 647.914 493.785C650.121 495.882 656.419 501.602 657.586 503.834L656.823 504.405C637.639 491.371 614.396 455.351 588.905 467.009L588.896 466.409Z" fill="#0753D1"/>
<path d="M654.89 527.7C656.216 528.013 656.764 528.262 658.014 528.743C660.126 535.448 644.258 546.8 653.542 552.363C664.967 559.208 669.645 535.978 676.722 534.019L677.971 534.883C678.92 540.681 668.279 548.529 668.471 555.163C668.525 557.022 669.443 557.163 671.129 558.475C668.618 560.56 669.747 560.093 666.805 560.652C664.268 559.313 664.515 558.765 662.888 556.076C654.706 554.243 654.795 560.775 647.01 551.547C644.185 556.051 640.381 567.298 634.531 565.24C633.953 562.17 651.793 532.911 654.89 527.7Z" fill="#FAFDFD"/>
<path d="M630.549 516.239C627.599 528.616 617.624 548.207 612.595 561.211C611.026 559.311 609.935 557.856 608.042 556.243L606.608 553.153L610.179 555.365C611.521 554.243 626.68 522.413 630.549 516.239Z" fill="#0753D1"/>
<path d="M608.042 556.243C600.903 555.551 593.637 560.105 586.075 561.969L586.284 561.3C594.464 555.881 599.132 556.714 606.608 553.153L608.042 556.243Z" fill="#0961F5"/>
<path d="M494.834 650.069C500.067 643.111 506.456 633.074 515.434 633.086C521.447 636.476 525.791 637.191 529.729 642.758C529.568 643.288 528.945 645.479 528.76 645.832C525.596 656.818 523.913 667.274 524.548 678.781L525.137 681.354C525.965 687.667 526.711 692.913 529.108 698.943C560.853 705.841 635.821 724.645 658.393 696.121C679.251 700.18 699.218 703.64 713.358 683.907C724.253 684.532 756.345 694.532 751.148 701.925C727.349 735.773 563.909 727.856 540.895 726.066C520.7 724.539 500.621 721.76 480.771 717.744C472.712 716.043 422.179 707.443 450.725 691.176C457.056 687.568 464.925 686.935 469.514 693.925C472.794 695.072 473.735 697.484 479.079 698.397L479.528 697.192C478.346 694.428 477.107 692.043 475.733 689.379C477.035 675.681 483.398 664.415 490.422 652.593C491.698 650.446 492.811 650.451 494.834 650.069ZM477.066 689.515C482.143 700.616 489.47 704.373 500.167 696.894C512.978 683.037 489.915 676.618 479.214 676.484C477.707 681.766 477.533 684.158 477.066 689.515Z" fill="#E6EFFF"/>
<path d="M494.834 650.069C500.067 643.111 506.456 633.074 515.434 633.086C521.447 636.476 525.791 637.191 529.729 642.758C529.568 643.288 528.945 645.479 528.76 645.832C525.596 656.818 523.913 667.274 524.548 678.781L525.137 681.354C522.803 684.465 521.908 686.147 517.708 686.019C515.368 684.145 516.108 685.13 515.057 682.097L513.077 684.246L513.038 685.262L508.314 688.985C504.12 691.11 505.68 692.695 502.798 695.664C493.41 705.331 477.104 706.017 469.513 693.925C472.794 695.072 473.734 697.484 479.079 698.397L479.527 697.192C478.346 694.428 477.107 692.043 475.733 689.379C477.034 675.681 483.398 664.415 490.422 652.593C491.698 650.446 492.811 650.451 494.834 650.069ZM477.066 689.515C482.143 700.616 489.469 704.373 500.167 696.894C512.978 683.037 489.915 676.618 479.214 676.484C477.706 681.766 477.532 684.158 477.066 689.515Z" fill="#0961F5"/>
<path d="M524.548 678.781C519.207 675.31 522.851 673.514 519.863 668.47C519.01 666.837 515.692 666.783 514.915 665.139C509.921 654.572 523.093 650.537 528.207 646.296L528.76 645.832C525.596 656.818 523.913 667.274 524.548 678.781Z" fill="#FEC6A4"/>
<path d="M494.834 650.069C500.067 643.111 506.456 633.074 515.434 633.086C510.892 641.321 506.094 651.479 494.834 650.069Z" fill="#BFEBD9"/>
<path d="M505.01 672.141C509.905 671.466 512.897 678.15 515.057 682.097L513.077 684.246C510.517 681.956 506.516 675.286 505.01 672.141Z" fill="#FAFDFD"/>
<path d="M503.372 676.54C504.318 675.009 504.486 673.89 505.01 672.141C506.516 675.286 510.517 681.956 513.077 684.246L513.038 685.262L508.314 688.985L507.994 687.385C508.702 686.375 508.769 686.034 509.284 684.882C508.531 680.9 506.291 679.118 503.372 676.54Z" fill="#0961F5"/>
<path d="M507.994 687.385C506.208 684.337 501.194 679.389 501.244 677.227L503.372 676.54C506.291 679.118 508.531 680.9 509.284 684.882C508.769 686.034 508.702 686.375 507.994 687.385Z" fill="#FAFDFD"/>
<path d="M497.855 661.238C500.962 661.911 500.427 661.313 502.303 663.235C501.936 666.289 501.848 665.579 499.611 668.298C496.58 667.906 497.433 668.467 495.697 666.571C495.662 664.004 496.326 663.496 497.855 661.238Z" fill="#025A81"/>
<path d="M642.844 608.585C656.717 614.276 666.373 620.377 669.613 636.221L668.22 637.96C666.592 637.984 666.343 638.072 664.739 637.621C665.11 640.02 665.605 644.969 666.144 646.851L664.095 648.641L663.211 649.953C659.137 650.646 655.284 653.39 652.042 651.233C651.214 650.335 651.414 650.595 650.273 650.001C642.711 656.057 638.509 646.524 634.826 640.818C612.576 630.681 619.055 624.852 635.3 611.738C638.063 610.386 639.982 609.648 642.844 608.585Z" fill="#FEC6A4"/>
<path d="M649.38 627.103C651.179 628.746 652.618 630.668 654.58 632.224C658.373 635.232 656.86 631.872 661.143 633.485C663.161 637.259 665.209 644.443 664.095 648.641L663.211 649.953C659.137 650.646 655.284 653.39 652.042 651.233L655.241 650.929C661.667 646.518 651.994 632.175 649.38 627.103Z" fill="#FDBF9C"/>
<path d="M661.143 633.485C659.565 630.497 656.561 625.596 655.331 622.916C660.57 628.682 662.534 630.14 664.739 637.621C665.111 640.02 665.605 644.969 666.144 646.851L664.095 648.641C665.209 644.443 663.161 637.259 661.143 633.485Z" fill="#FAB391"/>
<path d="M641.481 633.657C646.253 635.532 650.304 641.18 650.635 646.331C648.019 645.136 643.16 636.5 641.481 633.657Z" fill="#FDBF9C"/>
<path d="M669.614 636.221C669.756 640.091 670.437 644.959 666.144 646.851C665.605 644.969 665.111 640.02 664.739 637.621C666.343 638.072 666.592 637.984 668.22 637.96L669.614 636.221Z" fill="#FDBF9C"/>
<path d="M537.599 642.223C542.425 642.113 584.331 655.406 589.532 660.256C586.516 659.98 540.568 644.049 537.599 642.223Z" fill="#073475"/>
<path d="M704.809 355.987C706.9 350.094 708.124 346.477 712.706 341.993C716.401 338.377 728.653 330.802 731.952 337.696C731.734 343.626 722.718 351.026 718.462 357.101C743.629 352.261 764.685 357.571 785.032 371.377C803.122 383.653 808.897 397.112 832.477 394.226C832.65 394.205 834.817 397.476 834.517 398.035C835.17 405.258 828.615 410.713 823.005 413.476C834.945 426.987 840.525 442.154 839.34 460.219C838.395 474.692 828.817 467.055 822.757 461.608C822.525 477.1 816.172 497.429 797.535 483.314C783.615 512.794 764.782 533.46 729.349 529.988C722.619 529.053 718.7 528.116 712.308 526.072C708.406 529.741 706.08 536.194 701.76 540.148C698.572 534.419 679.305 522.97 677.199 512.122C673.196 501.996 659.428 481.506 653.288 472.039C651.628 470.985 643.87 460.6 642.184 458.42C646.291 460.859 647.584 463.029 651.792 462.105L652.777 460.958L652.296 456.91C645.925 448.088 644.614 431.809 644.714 421.043L645.091 416.649C650.268 389.168 663.367 368.557 692.266 362.262C686.124 358.623 674.931 355.299 672.96 350.69C673.117 344.278 683.771 344.51 688.373 345.406C695.898 346.872 699.753 350.511 704.809 355.987Z" fill="#051C42"/>
<path d="M652.296 456.91C654.616 445.897 658.513 441.853 669.564 439.251C673.559 440.31 681.048 442.672 682.894 446.7C686.416 454.38 679.441 472.449 697.292 461.636C705.407 456.721 710.546 449.011 713.721 439.484C719.615 448.378 739.929 476.357 753.81 469.895C755.94 468.905 755.392 465.061 755.212 462.892L755.857 462.589C761.865 469.211 779.947 487.304 789.067 482.458C790.267 480.49 790.387 480.119 790.965 477.883C793.657 479.309 795.33 481.197 797.535 483.314C783.615 512.794 764.782 533.46 729.349 529.988C722.619 529.053 718.7 528.116 712.308 526.072C708.406 529.741 706.08 536.194 701.76 540.148C698.572 534.419 679.305 522.97 677.199 512.122C673.196 501.996 659.428 481.506 653.288 472.039C651.628 470.985 643.87 460.6 642.184 458.42C646.291 460.859 647.584 463.029 651.792 462.105L652.777 460.958L652.296 456.91Z" fill="#FEC6A4"/>
<path d="M677.199 512.122L684.829 508.58C695.275 518.904 699.524 520.321 712.308 526.072C708.406 529.741 706.08 536.194 701.76 540.148C698.572 534.419 679.305 522.97 677.199 512.122Z" fill="#0961F5"/>
<path d="M642.184 458.42C646.291 460.859 647.584 463.029 651.792 462.105L652.777 460.958L653.044 461.874C656.506 473.579 660.59 469.706 668.026 475.843L667.834 476.438C662.243 475.366 661.573 474.993 657.247 471.382C655.354 470.993 655.042 471.282 653.288 472.039C651.628 470.985 643.87 460.6 642.184 458.42Z" fill="#0961F5"/>
<path d="M725.38 481.483C737.147 483.864 732.553 492.678 725.081 497.508C712.97 497.431 716.837 486.102 725.38 481.483Z" fill="#051C42"/>
<path d="M771.375 494.068C773.542 494.565 773.707 494.846 775.507 496.279C778.32 502.707 772.957 506.991 767.722 509.619C765.615 509.051 765.495 508.923 763.65 507.689C760.267 501.434 766.515 496.989 771.375 494.068Z" fill="#073475"/>
<path d="M736.41 510.953C739.676 512.131 741.683 512.668 745.072 513.468L745.188 514.547C741.734 515.441 738.304 513.922 736.41 510.953Z" fill="#B25347"/>
<path d="M303.112 626.864C316.034 610.522 326.604 603.66 348.373 604.471C351.118 604.712 354.28 604.865 356.918 605.509C370.578 612.164 372.643 616.984 373.656 631.452C370.928 650.995 365.7 658.517 361.87 674.94C366.727 675.956 371.572 677.023 376.406 678.142C377.513 678.509 378.003 678.792 379.15 678.812C383.893 679.682 389.526 681.17 394.142 681.283C392.104 689.781 387.18 705.142 383.647 713.204L389.303 712.968L394.144 715.64L393.679 724.199C407.177 729.741 422.317 729.702 432.37 718.126C436.491 718.705 443.474 719.946 444.307 724.693C431.908 745.257 234.334 745.384 221.742 725.764C221.843 716.862 251.71 712.894 258.586 712.652C260.381 712.474 261.338 712.522 262.939 711.653C263.929 705.973 261.084 706.141 263.308 696.941C265.647 689.822 274.528 671.704 275.211 667.647C276.656 661.722 280.579 659.938 285.88 658.476L287.065 658.342C288.835 654.673 289.767 652.667 291.004 648.813C292.405 647.064 301.372 630.08 303.112 626.864Z" fill="#A7E7D2"/>
<path d="M318.551 722.306C320.83 720.705 322.55 719.207 325.225 718.542C325.892 719.458 325.921 719.617 326.21 720.678L326.464 721.638C328.984 723.45 334.886 722.318 337.473 720.975C350.575 714.174 357.128 687.886 361.87 674.94C366.727 675.956 371.572 677.023 376.406 678.142C377.513 678.509 378.003 678.792 379.15 678.812C383.893 679.682 389.526 681.17 394.142 681.283C392.104 689.781 387.18 705.142 383.647 713.204L389.303 712.968L394.144 715.64L393.679 724.199C407.177 729.741 422.317 729.702 432.37 718.126C436.491 718.706 443.474 719.946 444.307 724.693C431.908 745.257 234.334 745.384 221.742 725.764C221.843 716.862 251.71 712.894 258.586 712.652C259.932 712.694 264.655 712.733 265.717 712.898C279.235 718.498 303.784 720.826 318.551 722.306Z" fill="#E6EFFF"/>
<path d="M318.551 722.306C320.83 720.705 322.55 719.207 325.226 718.542C325.892 719.458 325.921 719.617 326.21 720.678L326.465 721.638C328.984 723.45 334.886 722.318 337.473 720.975C350.576 714.174 357.128 687.886 361.87 674.94C366.727 675.956 371.573 677.023 376.406 678.142C377.513 678.509 378.003 678.792 379.15 678.812C383.894 679.682 389.526 681.17 394.142 681.283C392.105 689.781 387.18 705.142 383.647 713.204C381.89 716.327 379.207 720.736 378.031 723.973C360.765 736.883 318.593 730.795 298.086 728.572C285.674 727.226 272.037 724.723 265.717 712.898C279.235 718.498 303.785 720.826 318.551 722.306Z" fill="#0961F5"/>
<path d="M383.647 713.204L389.303 712.968L394.144 715.64L393.68 724.199C388.093 723.011 383.702 723.641 378.031 723.973C379.207 720.735 381.89 716.327 383.647 713.204Z" fill="#0753D1"/>
<path d="M303.112 626.864C316.034 610.522 326.604 603.66 348.373 604.471C351.118 604.712 354.28 604.865 356.918 605.509C370.578 612.164 372.643 616.984 373.656 631.452C363.365 637.024 353.35 658.201 338.749 661.06C330.046 662.764 322.109 660.776 313.363 659.782C303.871 658.504 296.662 658.042 287.065 658.342C288.835 654.673 289.767 652.667 291.004 648.813C292.405 647.064 301.372 630.08 303.112 626.864Z" fill="#BFEBD9"/>
<path d="M322.724 640.306C320.452 644.723 318.686 648.05 316.031 652.302L314.298 652.695L313.676 651.562C314.369 647.375 326.293 625.465 329.015 622.381L330.956 622.356L329.918 621.738L330.964 622.696C330.59 626.945 326.819 633.609 324.796 637.613C324.071 639.293 324.184 639.228 322.724 640.306Z" fill="#0961F5"/>
<path d="M333.989 641.05C339.801 636.407 340.352 630.09 344.906 625.611L346.426 626.109C346.635 629.682 343.95 631.718 342.644 635.383C341.054 639.85 341.317 642.66 340.856 647.176C337.833 648.139 336.506 645.617 335.387 643.222L333.989 641.05Z" fill="#0961F5"/>
<path d="M322.724 640.306C324.184 639.228 324.07 639.293 324.796 637.613C325.795 640.154 325.77 640.4 327.934 641.851C330.645 642.425 331.321 641.962 333.989 641.049L335.386 643.222C328.896 645.92 326.83 646.488 322.724 640.306Z" fill="#0961F5"/>
<path d="M275.211 667.647C298.243 667.634 309.448 670.128 331.831 673.499C333.101 673.899 336.052 674.988 337.153 675.156L340.348 675.992L338.549 682.552C322.838 697.139 319.456 703.837 294.927 703.052C285.787 702.76 271.768 700.483 263.308 696.941C265.647 689.822 274.528 671.704 275.211 667.647Z" fill="#BFEBD9"/>
<path d="M331.831 673.499C333.101 673.899 336.052 674.988 337.154 675.156C336.078 679.113 335.186 680.862 330.921 680.733L329.666 679.292C329.666 675.929 329.812 676.733 331.831 673.499Z" fill="#3B80F7"/>
<path d="M275.211 667.647C276.656 661.722 280.579 659.938 285.88 658.476C283.266 660.539 279.993 662.983 277.638 665.24C294.157 665.52 326.958 668.683 342.019 675.148C344.567 676.082 348.115 676.922 349.525 678.948C347.572 679.311 342.634 676.901 340.348 675.992L337.153 675.156C336.052 674.988 333.101 673.899 331.831 673.499C309.448 670.128 298.243 667.634 275.211 667.647Z" fill="#0753D1"/>
<path d="M342.019 675.148C342.281 670.862 341.176 669.099 339.414 665.229C344.488 664.256 352.62 671.671 349.525 678.948C348.116 676.922 344.567 676.082 342.019 675.148Z" fill="#3B80F7"/>
<path d="M881.25 645.114C884.033 644.159 896.288 643.374 899.835 643.124C912.083 642.244 924.345 641.479 936.608 640.829C944.153 640.429 957.39 640.01 964.297 638.611C994.627 632.463 1016.75 608.015 1047.39 599.534C1090.64 587.567 1103.89 616.194 1139.93 621.769C1156.31 624.302 1174.99 608.98 1195.45 609.887C1206.46 610.375 1238.19 621.667 1244.39 628.256L1248.6 629.325C1266.36 637.329 1287.46 638.467 1306.82 640.823C1325.82 643.233 1344.84 645.417 1363.89 647.374C1361.25 647.95 1358.65 648.563 1355.98 648.947C1344.88 650.522 1313.24 649.205 1300.52 649.106L1171.35 647.527L976.223 646.064C944.348 645.875 913.147 646.043 881.25 645.114Z" fill="#E6EFFF"/>
<path d="M471.379 232.774C497.692 229.39 519.544 250.109 523.951 275.127C542.319 270.149 555.613 273.992 563.953 292.011L427.789 291.944L343.631 291.964C352.626 280.398 360.327 277.95 374.389 281.833C376.318 276.786 378.157 273.334 382.026 269.41C387.6 263.764 395.205 260.59 403.138 260.6C414.08 260.591 421.099 265.719 428.452 273.01C433.057 250.252 448.635 236.149 471.379 232.774Z" fill="#E6EFFF"/>
<path d="M774.593 544.697C784.643 537.123 795.99 531.446 808.08 527.947C820.395 524.291 835.178 521.893 846.915 528.247C849.038 531.217 850.838 534.584 852.638 537.781C862.74 552.023 842.078 569.319 830.378 574.445C820.125 584.155 793.755 588.106 779.873 588.703C783.593 591.653 787.305 593.624 787.598 598.639C788.025 606.008 783.99 613.541 779.07 618.795C773.003 625.272 766.973 628.199 758.43 624.338C754.643 628.97 751.883 633.529 745.362 633.819C737.468 634.169 731.12 626.701 735.779 619.34C736.226 618.87 737.875 617.09 737.849 616.51C737.186 601.668 736.332 588.431 750.653 579.174C755.58 576.996 756.945 576.61 762.203 577.609C759.083 571.623 758.693 570.22 759.203 563.512C763.62 554.74 767.483 551.019 774.593 544.697Z" fill="#E6EFFF"/>
<path d="M759.203 563.512C762.458 565.703 765.435 567.338 769.448 567.814C767.948 570.207 766.725 571.946 765.72 574.61C768.105 575.96 767.115 575.85 769.515 575.402L770.34 574.51C771.038 576.426 771.443 577.874 772.56 579.583C781.14 580.263 785.79 580.868 794.333 579.816L798.45 582.658C811.433 580.522 818.385 574.94 828.72 571.451C830.513 571.08 830.752 570.978 832.65 571.009C831.93 572.861 831.75 572.957 830.378 574.445C820.125 584.155 793.755 588.106 779.873 588.703C783.593 591.653 787.305 593.624 787.598 598.639C788.025 606.008 783.99 613.541 779.07 618.795C773.003 625.272 766.973 628.199 758.43 624.338C754.643 628.97 751.883 633.529 745.362 633.818C737.468 634.169 731.12 626.701 735.779 619.34C736.226 618.87 737.875 617.09 737.849 616.51C737.186 601.668 736.332 588.431 750.653 579.174C755.58 576.996 756.945 576.61 762.203 577.609C759.083 571.623 758.693 570.22 759.203 563.512Z" fill="#073475"/>
<path d="M759.202 563.512C762.457 565.703 765.435 567.338 769.447 567.814C767.947 570.207 766.725 571.946 765.72 574.61L765.817 580.253L765.06 580.661L762.202 577.609C759.082 571.623 758.692 570.22 759.202 563.512Z" fill="#034E6F"/>
<path d="M772.56 579.583C781.14 580.263 785.79 580.868 794.332 579.816L798.45 582.658C788.557 584.157 780.922 585.314 772.56 579.583Z" fill="#0961F5"/>
<path d="M763.485 595.251C771.48 588.746 794.258 592.829 784.14 604.604L783.93 606.528C781.687 626.923 741.301 633.762 755.107 606.777C756.945 603.178 756.007 600.08 761.295 600.885C761.88 598.082 762.015 597.703 763.485 595.251Z" fill="#FDBF9C"/>
<path d="M763.485 595.251C771.48 588.746 794.258 592.829 784.14 604.604C773.385 594.597 770.557 599.496 763.485 595.251Z" fill="#FEC6A4"/>
<path d="M763.522 602.066C766.927 602.102 776.835 604.032 779.467 606.191C773.587 606.608 768.585 604.844 763.522 602.066Z" fill="#FE9F48"/>
<path d="M745.105 587.362C748.254 583.099 749.772 580.847 755.437 579.739C768.15 577.249 764.707 593.019 758.265 595.789C754.665 595.103 753.495 592.135 752.145 588.991C750.285 589.972 751.057 589.305 749.867 591.199C749.439 589.324 746.725 588.282 745.105 587.362Z" fill="#FAB391"/>
<path d="M745.106 587.362C746.725 588.282 749.439 589.324 749.867 591.199C751.2 593.406 751.463 593.627 751.838 596.107C750.758 599.092 751.508 598.097 749.096 599.963C739.102 601.21 741.569 592.974 745.106 587.362Z" fill="#FDBF9C"/>
<path d="M739.602 598.239C742.249 600.37 745.114 601.309 746.81 603.484C746.395 606.388 744.705 607.639 742.663 610.265C741.634 611.801 741.671 611.757 740.24 612.927L739.181 612.339C737.991 608.357 738.815 602.316 739.602 598.239Z" fill="#FAB391"/>
<path d="M774.593 544.697C784.643 537.123 795.99 531.446 808.08 527.947C820.395 524.291 835.177 521.893 846.915 528.247C849.037 531.217 850.837 534.584 852.637 537.781C827.34 532.437 807.023 538.987 785.483 552.463C783.518 553.691 781.988 554.724 780.3 556.333C777.915 553.031 776.213 548.506 774.593 544.697Z" fill="#0753D1"/>
<path d="M780.3 556.333C781.988 554.724 783.518 553.691 785.483 552.463C807.023 538.987 827.34 532.437 852.637 537.781C862.74 552.023 842.078 569.319 830.378 574.445C831.75 572.957 831.93 572.861 832.65 571.009C830.752 570.978 830.512 571.08 828.72 571.451C835.95 564.551 853.38 556.193 848.625 543.481C831.097 528.143 778.26 552.491 770.34 574.51L769.515 575.402C767.115 575.85 768.105 575.96 765.72 574.61C766.725 571.946 767.948 570.207 769.448 567.814C765.435 567.338 762.458 565.703 759.203 563.512C763.62 554.74 767.483 551.019 774.593 544.698C776.213 548.506 777.915 553.031 780.3 556.333Z" fill="#051C42"/>
<path d="M774.593 544.698C776.213 548.506 777.915 553.031 780.3 556.333C776.715 560.19 773.093 564.017 769.448 567.814C765.435 567.338 762.458 565.703 759.203 563.512C763.62 554.74 767.483 551.019 774.593 544.698Z" fill="#025A81"/>
<path d="M848.625 543.481C853.38 556.193 835.95 564.551 828.72 571.451C818.385 574.94 811.433 580.522 798.45 582.658L794.333 579.816C814.763 575.285 840.735 564.37 848.625 543.481Z" fill="#0961F5"/>
<path d="M831.398 543.709C834.225 544.035 834.833 544.061 836.535 545.791L836.415 547.397C832.718 552.525 827.835 551.419 822.735 549.966C815.445 552.616 808.02 555.874 800.79 558.298L792.165 560.415C801.12 551.85 808.29 549.691 820.35 547.205C824.483 546.353 827.768 545.864 831.398 543.709Z" fill="#FAFDFD"/>
<path d="M224.794 601.861L229.696 602.096C238.741 603.512 246.619 605.742 254.808 609.954C273.882 619.765 280.91 628.285 303.112 626.864C301.373 630.08 292.406 647.064 291.005 648.813L224.487 649.665C219.287 649.697 202.952 650.212 198.368 649.772C191.195 648.964 177.544 649.341 169.922 649.356C153.11 649.356 136.298 649.442 119.486 649.614C113.807 649.674 98.8928 650.163 94.299 649.48L93.8385 648.329C108.764 645.494 118.978 647.311 134.572 641.264C166.401 628.922 188.729 601.427 224.794 601.861Z" fill="#E6EFFF"/>
<path d="M712.308 526.072C718.7 528.116 722.619 529.053 729.349 529.988C728.297 538.184 725.113 558.984 725.313 566.493L725.114 567.211C733.414 571.382 742.582 574.973 750.652 579.174C736.332 588.431 737.185 601.668 737.849 616.51C737.875 617.09 736.226 618.87 735.778 619.34C732.313 618.261 726.496 617.857 722.359 616.978C711.601 614.696 702.886 611.131 693.083 606.327C688.555 605.177 684.377 595.324 679.126 592.81C680.968 588.279 679.372 575.559 677.948 570.916C679.171 567.259 697.88 545.638 701.698 541.154L701.76 540.148C706.08 536.194 708.406 529.741 712.308 526.072Z" fill="#0961F5"/>
<path d="M701.698 541.154C703.123 545.479 682.837 569.317 677.948 570.916C679.171 567.259 697.88 545.638 701.698 541.154Z" fill="#0753D1"/>
<path d="M725.114 567.21C717.081 566.784 717.502 568.74 711.475 568.955C712.691 564.307 721.77 565.572 725.313 566.493L725.114 567.21Z" fill="#0753D1"/>
<path d="M1021.15 330.331C1040.68 330.047 1053.42 340.518 1058.77 359.097C1075.89 351.613 1088.43 353.798 1097.26 371.138C1076 370.614 1053.65 370.954 1032.32 371.048C1006.17 370.836 980.1 371.203 953.917 370.726C962.842 355.941 972.247 353.675 988.147 358.117C994.185 340.972 1003.86 333.885 1021.15 330.331Z" fill="#E6EFFF"/>
<path d="M379.572 587.745C394.018 591.946 395.78 601.969 392.442 615.177C404.618 625.328 404.981 636.579 402.709 651.734C400.883 655.677 397.771 668.891 396.517 673.757L394.142 681.283C389.526 681.17 383.893 679.682 379.15 678.812C378.003 678.792 377.513 678.509 376.406 678.142C371.572 677.023 366.727 675.956 361.87 674.94C365.7 658.517 370.928 650.995 373.656 631.452C372.643 616.984 370.578 612.164 356.918 605.509L357.581 605.181C363.386 605.514 369.547 606.155 375.115 607.924L379.16 609.315C381.928 610.34 382.18 610.981 384.629 610.285C386.339 608.087 386.348 603.762 386.637 600.772C385.332 597.465 384.881 595.768 382.39 593.223C380.758 590.951 379.255 589.876 379.572 587.745Z" fill="#3B80F7"/>
<path d="M379.572 587.745C394.018 591.946 395.78 601.969 392.442 615.177C404.618 625.328 404.981 636.579 402.71 651.734C400.883 655.677 397.771 668.891 396.517 673.757L394.142 681.283C389.526 681.17 383.894 679.682 379.15 678.812C384.964 662.952 391.586 644.53 389.609 627.383C388.629 618.892 384.16 615.602 379.16 609.315C381.929 610.34 382.181 610.981 384.629 610.285C386.339 608.087 386.348 603.762 386.637 600.772C385.332 597.465 384.881 595.768 382.391 593.223C380.758 590.951 379.255 589.876 379.572 587.745Z" fill="#3B80F7"/>
<path d="M375.115 607.924L379.16 609.314C384.16 615.602 388.629 618.892 389.609 627.383C391.586 644.53 384.964 662.952 379.15 678.812C378.003 678.792 377.513 678.509 376.406 678.142C383.04 652.502 396.456 630.023 375.115 607.924Z" fill="#0753D1"/>
<path d="M183.296 526.976C206.025 518.685 223.716 528.291 225.861 552.892C222.084 548.295 219.719 545.506 215.086 541.676C223.78 554.207 222.818 548.321 228.171 563.055C231.615 560.771 234.325 533.174 260.906 538.759C263.171 539.235 265.322 539.944 267.727 540.779C263.573 557.054 252.384 565.356 235.472 560.879C234.667 560.665 233.864 560.44 233.064 560.205C226.511 574.124 229.864 586.6 229.697 602.095L224.794 601.861C225.49 585.83 228.39 567.679 221.723 553.244C199.523 556.945 188.408 549.011 183.296 526.976Z" fill="#3B80F7"/>
<path d="M201.249 534.878C207.1 535.082 213.498 539.271 216.719 544.082C214.435 543.532 203.954 536.593 201.249 534.878Z" fill="#BFEBD9"/>
<path d="M396.517 673.757C397.771 668.891 400.883 655.677 402.709 651.734C403.695 661.809 404.056 666.511 408.032 676.233C414.146 691.18 429.238 693.82 432.843 708.883C433.856 713.117 432.382 715.483 432.37 718.126C422.317 729.702 407.177 729.741 393.679 724.199L394.144 715.64L389.303 712.968C396.109 711.362 415.066 711.967 420.42 715.506C428.658 706.416 407.21 695.896 403.132 688.797C400.138 683.587 398.427 679.445 396.517 673.757Z" fill="#0961F5"/>
<path d="M389.303 712.968C396.109 711.362 415.066 711.967 420.42 715.506C413.303 721.599 401.933 718.798 394.144 715.64L389.303 712.968Z" fill="#E6EFFF"/>
<path d="M1242.59 590.68C1237 590.074 1230.6 592.89 1224.45 589.359C1220.18 586.906 1208.51 574.601 1212.5 569.362C1217.41 562.919 1230.49 566.324 1236.1 570.97C1242.73 576.468 1244.43 581.327 1245.5 589.754L1242.59 590.68Z" fill="#3B80F7"/>
<path d="M1226.36 576.124C1231.36 576.435 1236.62 579.051 1238.82 583.727C1236.74 583.099 1228.69 577.629 1226.36 576.124Z" fill="#BFEBD9"/>
<path d="M1250.24 595.405C1251.08 579.184 1268.08 575.948 1281 580.787C1276.08 594.782 1267.02 602.473 1251.84 596.607L1250.24 595.405Z" fill="#3B80F7"/>
<path d="M1261.81 800.093C1265.96 798.172 1279.55 791.473 1283.57 794.339C1281.43 798.142 1271.48 801.068 1267.14 802.651C1271.27 804.121 1282.75 807.58 1285.05 810.843L1284.37 812.936C1277.69 812.786 1268.19 808.022 1261.68 805.262C1256.54 807.535 1244.24 813.829 1238.9 811.203L1239.47 809.92C1244.63 806.327 1249.84 804.909 1255.81 802.914C1250.56 800.483 1244.44 798.457 1239.47 795.697C1238.1 794.939 1238.48 794.857 1238.16 793.154C1245.94 792.306 1254.18 796.957 1261.81 800.093Z" fill="#0961F5"/>
<path d="M348.374 604.471C354.929 591.052 364.402 583.971 379.572 587.745C379.255 589.876 380.758 590.951 382.391 593.223C370.602 591.189 363.153 593.949 357.581 605.181L356.918 605.509C354.28 604.865 351.119 604.712 348.374 604.471Z" fill="#0753D1"/>
<path d="M1245.5 589.754C1246.06 591.883 1246.9 597.094 1248.2 597.909C1249.04 596.96 1249.53 596.472 1250.24 595.405L1251.84 596.607C1246.09 607.69 1248.04 616.8 1248.6 629.325L1244.39 628.256C1245.64 616.433 1246.47 601.906 1242.58 590.68L1245.5 589.754Z" fill="#0961F5"/>
<path d="M427.371 647.318C423.054 647.35 405.905 649.038 405.821 643.834L406.745 642.921C409.433 642.193 454.323 645.841 461.414 646.079C449.966 647.467 437.338 645.879 427.371 647.318Z" fill="#DFF1F5" fill-opacity="0.984314"/>
<path d="M198.368 649.772C193.477 650.395 182.648 650.237 177.456 650.283L134.956 650.412L97.6875 650.437C91.8053 650.436 81.177 650.68 75.6218 649.972C80.4435 648.8 88.728 648.455 93.8385 648.329L94.299 649.48C98.8928 650.163 113.807 649.674 119.486 649.614C136.298 649.442 153.11 649.356 169.922 649.356C177.544 649.341 191.195 648.964 198.368 649.772Z" fill="#FAFDFD" fill-opacity="0.882353"/>
<path d="M866.79 795.344C871.132 795.149 878.88 794.617 881.182 799.118C879.555 801.398 879.367 800.971 876.57 802.178C872.85 802.621 863.67 803.094 862.2 798.87C863.272 796.71 864.57 796.417 866.79 795.344Z" fill="#BFEBD9"/>
<path d="M1216.9 730.194C1220.73 730.03 1227.62 729.78 1229.35 733.932C1227.9 736.172 1228.13 735.53 1225.18 736.795C1221.49 737.021 1213 737.557 1211.8 733.234C1213.13 731.219 1214.57 731.024 1216.9 730.194Z" fill="#BFEBD9"/>
<path d="M516.47 795.314C520.155 795.209 527.597 794.797 528.961 799.088C527.175 801.248 527.018 800.828 524.221 801.901C520.666 802.043 514.338 802.238 512.57 798.72C513.818 796.394 513.854 796.92 516.47 795.314Z" fill="#BFEBD9" fill-opacity="0.988235"/>
<path d="M1157.76 777.347C1161.68 777.197 1170.94 777.977 1174.78 779.26C1176.18 779.733 1175.88 779.965 1176.55 781.511C1172.83 782.028 1161.71 781.008 1158.32 779.305L1157.76 777.347Z" fill="#0753D1"/>
<path d="M1059.01 772.268C1063.09 771.511 1071.59 771.841 1075.88 772.621C1078.23 773.041 1077.86 773.251 1079.09 775.217C1074.84 776.102 1062.07 775.539 1059.01 772.268Z" fill="#0753D1"/>
<path d="M1125.13 775.172C1129.82 774.902 1139.54 774.684 1143.54 776.5L1144.27 778.503C1140.49 778.405 1128.35 778.435 1125.65 777.145L1125.13 775.172Z" fill="#0753D1"/>
<path d="M1093.82 773.566C1097.75 773.904 1109.14 773.079 1111.24 775.652L1110.52 777.122C1106.29 776.995 1096.46 777.085 1093.16 775.899L1092.82 774.677L1093.82 773.566Z" fill="#0753D1"/>
<path d="M1029.13 766.732C1032.38 766.687 1040.6 768.233 1043.99 769.215C1046.36 769.905 1045.96 770.123 1046.95 772.239C1042.59 771.856 1032.7 770.866 1029.39 768.66L1029.13 766.732Z" fill="#0753D1"/>
<path d="M974.715 691.603L975.893 691.976L975.99 693.204C970.38 697.055 968.655 698.623 968.745 705.291L966.69 703.717C963.33 696.918 969.188 693.85 974.715 691.603Z" fill="#0961F5"/>
<path d="M1050.12 733.99C1051.73 733.496 1052.55 733.655 1054.21 733.745C1054.25 734.592 1054.24 734.209 1053.7 735.135C1049.33 737.206 1045.64 737.348 1040.88 737.887C1038.89 738.27 1038.48 738.106 1036.44 737.803L1037.23 736.547C1042.14 734.682 1044.98 734.55 1050.12 733.99Z" fill="#0753D1"/>
<path d="M1072.48 703.406C1078.59 704.812 1084.7 709.017 1083.29 716.107L1081.74 716.034C1078.88 709.979 1075.67 708.882 1072.48 703.406Z" fill="#0961F5"/>
<path d="M994.523 687.457C997.155 687.256 1002.12 686.469 1003.95 688.72C1002.12 690.121 1001.28 689.693 998.618 689.813C995.97 690.159 989.325 691.508 987.615 689.136C990.03 687.616 991.665 687.728 994.523 687.457Z" fill="#0753D1"/>
<path d="M795.142 698.638C798.9 698.25 810.127 698.436 813.277 700.357L813.45 702.222C808.245 701.165 800.153 701.787 795.975 700.508L795.142 698.638Z" fill="#0753D1"/>
<path d="M952.275 724.258C952.822 724.095 953.602 724.197 954.247 724.217L954.48 725.003L953.453 726.111C948.435 727.727 945.503 727.607 940.32 727.762C938.235 727.417 938.925 727.94 937.89 726.601C940.283 724.479 948.585 724.503 952.275 724.258Z" fill="#0753D1"/>
<path d="M880.17 715.73C884.085 715.684 894.922 717.554 896.227 721.591C892.342 721.559 881.738 719.647 880.17 715.73Z" fill="#0753D1"/>
<path d="M1016.9 688.166C1021.79 687.703 1032.18 687.649 1035.31 691.589C1030.92 691.853 1023.19 690.832 1018.79 689.973C1017.41 689.704 1017.97 689.821 1016.9 688.166Z" fill="#0753D1"/>
<path d="M1078.48 723.159C1079.58 724.433 1079.24 723.664 1079.14 725.684C1075.91 729.241 1071.18 730.888 1066.73 732.423L1066.05 730.996C1067.18 729.292 1075.31 725.306 1078.48 723.159Z" fill="#0961F5"/>
<path d="M764.948 698.707C769.05 698.415 778.793 697.347 781.995 698.974L782.04 700.652C778.23 700.763 768.75 701.429 765.78 700.593L764.948 698.707Z" fill="#0753D1"/>
<path d="M1006.21 756.23C1009.16 756.86 1017.32 761.248 1018.4 764.399C1013.98 764.827 1006.17 761.526 1006.21 756.23Z" fill="#0753D1"/>
<path d="M854.633 707.512C858.848 708.435 865.395 709.617 868.808 712.243L868.823 714.024C864.12 713.021 858.765 712.104 854.64 709.618L854.633 707.512Z" fill="#0753D1"/>
<path d="M970.582 710.92L972.217 712.134C973.837 717.769 970.597 719.715 966.285 722.66L964.98 721.237C966.247 718.81 968.587 716.392 969.097 714.201C969.517 712.4 969.502 712.644 970.582 710.92Z" fill="#0753D1"/>
<path d="M1045.96 693.351C1050.82 692.798 1059.9 695.106 1062.9 699.125C1059.34 699.384 1048.34 696.047 1045.96 693.351Z" fill="#0753D1"/>
<path d="M461.413 646.079L463.111 646.321C461.418 648.112 431.806 647.692 427.371 647.318C437.338 645.879 449.965 647.467 461.413 646.079Z" fill="#BFEBD9" fill-opacity="0.447059"/>
<path d="M1363.89 647.374C1366.79 647.302 1367.82 647.184 1370.7 647.959C1365.85 649.208 1361 648.991 1355.98 648.947C1358.66 648.563 1361.25 647.95 1363.89 647.374Z" fill="#BFEBD9" fill-opacity="0.768627"/>
</svg>
