<svg width="1536" height="1024" viewBox="0 0 1536 1024" fill="none" xmlns="http://www.w3.org/2000/svg">
<path d="M708.198 367.986C739.075 353.227 761.858 362.819 780.24 386.88C783.803 391.542 786.69 390.102 789.893 397.607C795.405 410.49 795.368 427.046 780.938 433.466C780.398 433.707 779.85 433.943 779.303 434.174C773.955 449.816 768.998 459.278 751.988 464.516C757.328 478.197 758.843 492.446 763.365 503.898C768.233 516.212 779.88 521.101 782.648 538.46C790.755 543.466 793.223 544.993 795.72 554.4C808.718 559.709 835.485 566.278 841.538 577.363C841.538 586.389 842.903 589.673 836.513 596.664C827.94 596.548 825.255 600.856 820.83 603.155C819.428 604.026 817.155 605.547 815.753 606.209C803.948 608.209 786.368 613.953 775.028 611.537L772.635 611.251C755.76 616.024 721.846 608.167 704.753 604.897C696.796 604.501 687.598 604.248 679.778 604.184C665.501 604.068 601.596 598.741 596.454 585.076C598.194 580.201 605.452 579.369 609.889 578.568C609.649 569.858 612.061 564.448 615.241 556.464C618.528 548.211 622.15 537.089 633.04 541.391L634.346 542.509L637.714 543.695C637.553 542.281 635.814 537.663 635.329 535.945C633.072 527.95 633.161 524.002 633.742 515.995C628.305 501.515 652.159 468.662 662.493 458.497L662.132 457.816C656.263 446.972 661.4 446.481 663.926 437.158C667.928 422.385 669.186 421.762 685.487 421.576C682.79 405.662 683.3 396.953 691.895 382.863L689.258 380.011C690.93 371.303 693.556 367.627 702.446 365.638L708.198 367.986ZM766.673 549.985L766.515 549.471C749.507 540.952 738.806 524.093 731.781 507.163C726.411 515.985 728.276 514.876 725.987 523.836L725.82 524.476C733.013 533.607 743.354 542.304 747.488 553.427C753.488 552.625 760.763 551.231 766.673 549.985Z" fill="#8BB4FA"/>
<path d="M725.82 524.476C733.012 533.607 743.353 542.304 747.488 553.427C737.885 555.364 727.075 557.325 717.767 560.061C715.09 557.559 712.135 557.118 710.05 554.412L710.919 552.896C707.862 542.979 709.951 543.877 704.136 532.773C716.308 530.251 715.351 529.058 725.441 524.639L725.82 524.476Z" fill="#051C42"/>
<path d="M633.742 515.995C637.961 519.381 641.573 522.293 646.403 524.896C653.546 528.531 660.587 531.494 668.674 532.313C676.219 546.718 679.85 553.452 692.351 564.153L693.785 564.223L694.7 563.265C698.503 558.214 703.889 555.405 710.051 554.412C712.136 557.118 715.091 557.559 717.767 560.061C727.075 557.325 737.885 555.364 747.488 553.427C753.488 552.625 760.763 551.231 766.673 549.985L766.515 549.471C772.253 543.508 771.593 538.678 782.648 538.46C790.755 543.466 793.223 544.993 795.72 554.4C808.718 559.709 835.485 566.278 841.538 577.363C841.538 586.389 842.903 589.673 836.513 596.664C827.94 596.548 825.255 600.856 820.83 603.156C819.428 604.026 817.155 605.547 815.753 606.209C803.948 608.209 786.368 613.953 775.028 611.537L772.635 611.251C755.76 616.024 721.846 608.167 704.753 604.897C696.796 604.501 687.598 604.248 679.778 604.184C665.501 604.069 601.596 598.741 596.454 585.076C598.194 580.201 605.452 579.369 609.889 578.568C609.649 569.858 612.061 564.448 615.241 556.464C618.528 548.211 622.15 537.089 633.04 541.391L634.346 542.509L637.714 543.695C637.553 542.281 635.814 537.663 635.329 535.945C633.072 527.95 633.161 524.002 633.742 515.995Z" fill="#B6D2FD"/>
<path d="M633.742 515.995C637.961 519.381 641.573 522.293 646.403 524.896C653.546 528.531 660.587 531.494 668.674 532.313C676.219 546.718 679.85 553.452 692.351 564.153L693.785 564.223L694.7 563.265C696.122 571.057 696.589 574.283 700.739 581.168C703.248 583.109 706.409 584.341 709.322 585.656C718.825 594.303 759.24 609.784 772.635 611.251C755.76 616.024 721.846 608.167 704.753 604.897C696.796 604.501 687.598 604.248 679.778 604.184C665.501 604.069 601.596 598.741 596.454 585.076C598.194 580.201 605.452 579.369 609.889 578.568C609.649 569.858 612.061 564.448 615.241 556.464C618.528 548.211 622.15 537.089 633.04 541.391L634.346 542.509L637.714 543.695C637.553 542.281 635.814 537.663 635.329 535.945C633.072 527.95 633.161 524.002 633.742 515.995Z" fill="#051C42"/>
<path d="M633.088 576.717L635.235 577.03C635.763 577.82 638.315 582.27 638.741 582.459C653.459 588.938 671.528 601.631 687.626 592.659C692.761 589.797 694.597 580.638 697.683 579.739L700.739 581.168C703.248 583.109 706.409 584.341 709.322 585.656C718.825 594.303 759.24 609.784 772.635 611.251C755.76 616.024 721.846 608.167 704.753 604.897C696.796 604.501 687.598 604.248 679.778 604.184C665.501 604.068 601.596 598.741 596.454 585.076C598.194 580.201 605.452 579.369 609.889 578.568C612.004 584.847 615.912 588.882 623.229 586.419C628.482 584.651 629.528 581.441 631.592 576.721L633.088 576.717Z" fill="#E6EFFF"/>
<path d="M609.889 578.568C609.649 569.858 612.061 564.448 615.241 556.464C618.528 548.211 622.15 537.089 633.04 541.391L634.346 542.509L637.714 543.695C639.6 544.403 640.852 547.691 642.521 549.649L643.124 551.321C638.775 557.415 637.363 559.486 635.44 566.664C635.326 570.841 635.951 573.971 633.088 576.717L631.592 576.721C629.528 581.441 628.482 584.651 623.229 586.419C615.912 588.882 612.004 584.847 609.889 578.568Z" fill="#8BB4FA"/>
<path d="M609.889 578.568C609.649 569.858 612.061 564.448 615.241 556.464C618.528 548.211 622.15 537.089 633.04 541.391L634.346 542.509C629.376 548.676 626.898 553.617 619.733 557.946C619.089 558.334 618.277 561.273 618.083 562.147C617.063 564.712 615.137 568.728 615.289 571.288C624.506 572.011 623.003 573.588 629.704 576.631L631.592 576.721C629.528 581.441 628.482 584.651 623.229 586.419C615.912 588.882 612.004 584.847 609.889 578.568Z" fill="#334767"/>
<path d="M614.32 563.076C618.71 552.031 619.17 540.894 633.04 541.391L634.346 542.509C629.376 548.676 626.898 553.617 619.733 557.946C619.089 558.334 618.277 561.273 618.083 562.147L614.32 563.076Z" fill="#F3F3F0"/>
<path d="M615.289 571.288C624.506 572.011 623.003 573.588 629.704 576.631C627.581 582.694 626.125 586.139 618.691 585.012C614.481 579.891 615.199 578.252 615.289 571.288Z" fill="#F3F3F0"/>
<path d="M614.32 563.076L618.082 562.147C617.062 564.712 615.137 568.728 615.289 571.288C615.199 578.252 614.481 579.891 618.691 585.012C606.991 584.322 611.26 569.788 614.32 563.076Z" fill="#E6EFFF"/>
<path d="M642.521 549.649L643.123 551.321C638.775 557.415 637.363 559.486 635.44 566.664C627.657 558.682 635.762 554.316 642.521 549.649Z" fill="#F4AE8E"/>
<path d="M694.699 563.265C698.503 558.213 703.889 555.405 710.05 554.412C712.135 557.118 715.09 557.559 717.767 560.061C719.966 563.159 723.022 566.847 724.282 570.266L724.014 571.58C721.594 572.032 721.106 571.644 718.54 570.363L716.959 570.762C713.101 578.676 725.881 580.844 730.226 582.984C757.935 596.624 776.918 601.927 806.85 589.994C816.15 586.384 833.595 588.609 841.538 577.363C841.538 586.389 842.902 589.673 836.512 596.664C827.94 596.548 825.255 600.856 820.83 603.155C819.427 604.026 817.155 605.547 815.753 606.209C803.948 608.209 786.367 613.953 775.027 611.537L772.635 611.251C759.24 609.784 718.825 594.303 709.322 585.656C706.408 584.341 703.248 583.109 700.739 581.168C696.589 574.283 696.121 571.057 694.699 563.265Z" fill="#6B9CF9"/>
<path d="M694.699 563.265C698.503 558.213 703.889 555.405 710.05 554.412C712.135 557.118 715.09 557.559 717.767 560.061C719.966 563.159 723.022 566.847 724.282 570.266L724.014 571.58C721.594 572.032 721.106 571.644 718.54 570.363C716.962 568.653 717.892 569.137 715.735 568.715C712.958 573.494 719.765 581.344 718.79 585.979C717.351 586.501 717.395 586.596 715.899 586.444C715.243 586.487 713.995 586.294 713.288 586.213L709.322 585.656C706.408 584.341 703.248 583.109 700.739 581.168C696.589 574.283 696.121 571.057 694.699 563.265Z" fill="#FDBF9E"/>
<path d="M713.288 586.213C713.704 582.682 710.82 581.603 709.976 576.943C712.646 580.362 713.807 582.6 715.899 586.444C715.243 586.487 713.996 586.294 713.288 586.213Z" fill="#E29E8C"/>
<path d="M807.787 603.518C811.215 602.695 816.12 601.245 819.465 601.502L820.83 603.155C819.427 604.026 817.155 605.547 815.752 606.209C803.947 608.209 786.367 613.953 775.027 611.536C781.837 609.334 791.1 608.092 798.787 605.759C801.007 605.441 805.417 604.149 807.787 603.518Z" fill="#E6EFFF"/>
<path d="M798.788 605.759C798.908 605.231 799.343 604.403 799.583 603.87C802.095 602.302 805.065 599.786 807.81 601.633L807.788 603.518C805.418 604.149 801.008 605.441 798.788 605.759Z" fill="#2A90A3"/>
<path d="M766.515 549.471C772.253 543.508 771.593 538.678 782.648 538.46C790.755 543.466 793.223 544.993 795.72 554.4C791.903 554.236 792.263 553.431 788.985 552.372L788.303 555.142L786.848 555.934C782.843 554.841 782.58 549.376 777.435 549.809C773.835 550.113 771.113 550.484 767.49 550.08L766.673 549.985L766.515 549.471Z" fill="#F4AE8E"/>
<path d="M708.198 367.986C739.075 353.227 761.857 362.819 780.24 386.88C783.802 391.542 786.69 390.102 789.892 397.607C795.405 410.49 795.368 427.046 780.938 433.466C780.398 433.707 779.85 433.943 779.302 434.174C773.955 449.816 768.998 459.278 751.988 464.516C743.393 465.758 740.129 465.576 731.615 464.197L726.839 462.102C719.064 459.244 708.965 450.768 707.711 442.114C706.527 443.345 704.438 445.204 703.941 446.713C693.699 438.286 690.798 434.953 685.496 422.52L685.487 421.576C682.79 405.662 683.3 396.953 691.895 382.863L689.258 380.011C690.93 371.303 693.556 367.627 702.446 365.638L708.198 367.986Z" fill="#051C42"/>
<path d="M725.349 424.5C733.211 425.768 733.588 423.835 739.191 424.321C738.223 425.787 738.313 425.033 738.494 426.541C752.783 431.554 767.377 421.015 774.907 409.542C779.445 418.079 781.057 424.61 779.302 434.174C773.955 449.816 768.998 459.278 751.988 464.516C743.393 465.758 740.129 465.576 731.615 464.197L726.839 462.102C719.064 459.244 708.965 450.768 707.711 442.114C706.434 440.614 702.359 440.393 699.895 438.616C697.514 437.11 695.7 434.411 695.213 431.589C693.071 419.17 712.822 413.804 713.286 428.493C713.337 430.102 713.381 430.702 713.977 432.157L715.835 432.681C720.286 431.655 722.595 428.027 725.349 424.5Z" fill="#FDBF9E"/>
<path d="M740.464 434.743L743.398 435.68C747.097 439.776 744.6 442.365 741.388 445.787L738.462 444.652C735.033 440.556 737.444 438.163 740.464 434.743Z" fill="#051C42"/>
<path d="M767.595 436.87C770.632 437.385 771.067 437.886 771.75 440.681C771 443.877 770.197 444.634 768.217 447.131L765.99 446.632C763.972 444.772 764.49 445.733 764.055 443.018C764.887 439.845 765.54 439.274 767.595 436.87Z" fill="#051C42"/>
<path d="M704.257 425.769C707.608 426.424 708.413 426.849 709.909 429.726C709.373 432.751 709.906 431.615 707.765 433.986C704.724 433.582 703.393 433.562 701.594 431.364C701.546 428.817 702.676 427.859 704.257 425.769Z" fill="#F4AE8E"/>
<path d="M702.446 365.638L708.198 367.986C700.366 372.954 697.673 375.795 691.895 382.863L689.258 380.011C690.93 371.303 693.556 367.627 702.446 365.638Z" fill="#0961F5"/>
<path d="M703.941 446.713C704.438 445.204 706.527 443.345 707.711 442.114C708.964 450.768 719.064 459.244 726.838 462.102L731.615 464.197C740.128 465.576 743.392 465.758 751.987 464.516C757.327 478.197 758.842 492.446 763.365 503.898C768.232 516.212 779.88 521.101 782.647 538.46C771.592 538.678 772.252 543.508 766.515 549.471C749.506 540.952 738.805 524.093 731.781 507.163C726.411 515.985 728.276 514.876 725.987 523.836L725.82 524.476L725.441 524.639C715.351 529.058 716.308 530.251 704.136 532.773C701.232 528.863 697.333 520.677 695.076 516.099L693.351 515.746L693.943 515.473C694.642 514.341 695.251 512.898 695.218 511.563C694.794 494.123 698.645 472.629 687.358 458.255C689.5 458.614 691.946 459.237 694.003 458.825L695.816 459.964C697.501 457.995 693.029 449.851 693.457 445.394L695.176 444.64C697.612 446.033 701.053 448.206 703.604 448.942L703.941 446.713Z" fill="#6B9CF9"/>
<path d="M703.941 446.713C704.438 445.204 706.527 443.345 707.711 442.114C708.965 450.768 719.064 459.244 726.839 462.102L721.181 468.42C716.379 462.379 709.016 455.022 703.604 448.942L703.941 446.713Z" fill="#F4AE8E"/>
<path d="M721.181 468.42L726.838 462.102L731.615 464.197C729.322 466.568 726.679 469.804 723.678 470.835C721.737 470.2 722.419 470.637 721.181 468.42Z" fill="#051C42"/>
<path d="M710.989 483.269C716.357 486.213 709.121 491.489 711.241 498.424C713.167 500.678 712.223 500.194 714.833 500.876C720.758 498.023 721.332 486.867 724.721 484.545C726.29 490.167 718.724 496.608 725.021 502.281C724.463 502.613 723.31 502.9 722.636 503.105C718.415 500.326 713.88 503.317 709.353 500.713C706.463 503.159 708.035 509.083 703.503 510.243C702.909 509.168 709.973 486.932 710.989 483.269Z" fill="#F3F3F0"/>
<path d="M661.375 480.19C661.863 499.828 660.749 513.985 668.674 532.313C660.587 531.494 653.546 528.531 646.403 524.896C649.874 514.848 652.389 511.866 656.64 502.632C659.222 497.025 660.474 486.656 661.375 480.19Z" fill="#6B9CF9"/>
<path d="M685.496 422.52C690.798 434.953 693.699 438.286 703.941 446.713L703.604 448.942C701.054 448.206 697.613 446.033 695.177 444.64C690.619 441.214 675.073 434.191 675.806 429.113C678.113 426.942 682.031 425.733 685.08 424.555L685.496 422.52Z" fill="#0961F5"/>
<path d="M687.358 458.255C678.63 452.853 674.761 451.64 665.184 455.869C665.659 452.381 676.008 451.949 678.906 452.506C684.862 453.65 688.847 455.993 694.004 458.825C691.946 459.237 689.5 458.614 687.358 458.255Z" fill="#0961F5"/>
<path d="M1297.25 387.144L1305.08 388.141C1312.52 390.36 1319.33 391.049 1318.87 400.514C1318.27 412.728 1323.87 416.265 1317.17 427.703C1323.89 440.943 1335.97 464.622 1331.24 479.522C1328.45 488.304 1323.33 491.334 1316.11 495.377C1316.44 501.078 1317.79 510.648 1314.71 515.242L1311.87 517.134C1303.79 519.436 1297.75 520.755 1289.35 521.652C1287.09 521.893 1280.66 522.301 1279 522.62C1276.27 525.935 1275.38 526.524 1271.06 526.991C1259.87 525.137 1240.62 523.91 1228.93 522.829C1217.63 521.819 1165.85 517.842 1158.98 515.214C1156.36 512.11 1157.2 499.995 1157.09 494.825L1156.18 493.855C1152.62 492.665 1152.67 491.874 1151.79 488.501L1151.43 485.918L1150.85 483.42L1150.21 481.008L1150.5 476.034L1150.88 474.872C1150.64 470.412 1150.82 469.994 1154.38 467.897L1156.22 468.041C1157.08 457.398 1153.83 431.46 1157.2 423.47C1158.74 422.768 1161.35 421.616 1162.94 421.679C1178.75 422.295 1198.85 423.318 1214.4 425.09C1219.63 415.413 1223.03 415.792 1229.06 408.425C1229.48 405.202 1229.64 404.346 1230.8 401.326L1231.07 400.624C1237.47 403.469 1240.48 403.629 1245.56 405.635C1246.34 406.536 1247.85 408.467 1248.74 409.007C1251.95 407.315 1263.08 411.064 1265.93 403.413C1269.95 401.03 1274.45 397.842 1278.23 395.058L1280.86 398.055C1288.42 394.497 1291.18 392.851 1297.25 387.144Z" fill="#F3F3F0"/>
<path d="M1297.24 387.144L1305.07 388.141C1312.51 390.36 1319.33 391.049 1318.87 400.514C1318.27 412.728 1323.87 416.265 1317.16 427.703C1323.88 440.943 1335.97 464.622 1331.23 479.522C1328.44 488.304 1323.33 491.334 1316.11 495.377C1316.44 501.078 1317.79 510.648 1314.71 515.242L1311.87 517.134C1303.78 519.436 1297.75 520.755 1289.35 521.652C1287.09 521.893 1280.66 522.301 1279 522.62C1278.53 516.768 1280.01 508.376 1277.88 503.424C1277.48 502.489 1275.5 502.358 1274.14 502.035C1280.98 502.167 1284.22 500.528 1289.62 496.683C1292.5 488.61 1291.38 482.92 1285.48 476.687C1283.17 475.427 1280.99 474.077 1278.75 472.714C1278.88 468.339 1277.38 465.193 1279.97 461.969L1283.52 461.928C1273.57 454.386 1282.63 439.075 1276.66 430.85C1272.84 428.195 1222.99 425.866 1214.4 425.09C1219.63 415.413 1223.02 415.792 1229.06 408.425C1229.48 405.202 1229.64 404.346 1230.79 401.326L1231.06 400.624C1237.47 403.469 1240.48 403.629 1245.55 405.635C1246.33 406.536 1247.85 408.467 1248.73 409.007C1251.95 407.315 1263.07 411.064 1265.93 403.413C1269.95 401.03 1274.44 397.842 1278.23 395.058L1280.86 398.055C1288.42 394.497 1291.18 392.851 1297.24 387.144Z" fill="#8BB4FA"/>
<path d="M1296.22 484.095C1297.78 486.236 1297.63 489.268 1297.21 491.884C1296.84 494.2 1296.31 496.486 1295.61 498.726C1303.81 498.398 1308.07 497.954 1316.11 495.377C1316.44 501.078 1317.79 510.648 1314.71 515.242L1311.87 517.134C1303.78 519.436 1297.75 520.755 1289.35 521.652C1287.09 521.893 1280.66 522.301 1279 522.62C1278.53 516.768 1280.01 508.376 1277.88 503.424C1277.48 502.489 1275.5 502.358 1274.14 502.035C1280.98 502.167 1284.22 500.528 1289.62 496.683C1291.28 498.462 1292.56 498.029 1294.31 496.94C1296.75 492.814 1296.67 488.677 1296.22 484.095Z" fill="#6B9CF9"/>
<path d="M1283.52 461.928C1286.97 460.283 1286.43 459.519 1288.27 456.826C1292.87 450.101 1288.95 446.269 1289.65 440.374L1290.21 439.931L1294.04 451.718C1291.87 456.786 1298.41 463.577 1296.19 468.804C1294.51 469.959 1289.5 472.762 1288.73 473.915C1289.45 475.068 1289.21 474.699 1290.35 475.569L1290.55 476.146C1288.42 476.066 1287.34 475.809 1285.48 476.687C1283.17 475.427 1280.99 474.077 1278.75 472.714C1278.88 468.339 1277.38 465.193 1279.97 461.969L1283.52 461.928Z" fill="#6B9CF9"/>
<path d="M1297.25 387.144L1305.07 388.141L1302.25 389.114L1302.16 390.047C1304.74 391.121 1310.47 392.691 1311.75 394.212L1311.43 395.401C1310.22 395.931 1282.08 399.941 1281.25 399.695L1280.84 398.35L1280.86 398.055C1288.42 394.497 1291.18 392.851 1297.25 387.144Z" fill="#0961F5"/>
<path d="M1265.93 403.413C1269.95 401.03 1274.44 397.842 1278.23 395.058L1280.86 398.055L1280.84 398.349C1274.12 404.711 1263.73 407.605 1254.31 417.127C1252.6 414.694 1250.21 411.496 1248.73 409.007C1251.95 407.315 1263.07 411.064 1265.93 403.413Z" fill="#E29E8C"/>
<path d="M1294.04 451.718C1295.62 456.01 1297.82 461.51 1299.06 465.8C1303.16 464.352 1304.13 463.922 1308.42 464.03L1308.69 464.36C1302.47 466.358 1302.26 465.675 1296.19 468.804C1298.42 463.577 1291.88 456.786 1294.04 451.718Z" fill="#0961F5"/>
<path d="M1291.64 412.037C1296.35 411.283 1310.28 412.392 1310.42 418.431L1309.34 418.502C1301.31 410.989 1293.03 412.636 1283.12 415.544C1277.77 417.043 1268.6 420.506 1263.31 419.869C1268.76 417.603 1285.79 413.159 1291.64 412.037Z" fill="#0961F5"/>
<path d="M1278.75 472.714C1280.99 474.077 1283.17 475.427 1285.48 476.687C1291.38 482.92 1292.5 488.61 1289.62 496.683C1284.22 500.528 1280.98 502.167 1274.14 502.035L1273.07 501.623L1272.2 502.359C1264.24 499.577 1261.42 485.468 1266.85 478.851C1269.07 477.39 1270.7 477.787 1273.42 477.898C1275.22 477.603 1276.12 477.389 1277.86 476.885C1277.85 475.279 1278.28 474.239 1278.75 472.714Z" fill="#FDBF9E"/>
<path d="M1273.42 477.898C1275.22 477.603 1276.12 477.389 1277.86 476.885L1277.46 478.218C1272.92 479.76 1269.35 478.285 1266.3 480.291L1265.93 481.597C1267.55 483.648 1271.85 484.424 1274.56 485.146C1271.68 485.145 1268.31 484.801 1265.85 485.988L1265.31 487.215C1267.61 492.043 1272.92 488.314 1275.01 490.642C1272.85 492.024 1269.21 491.404 1266.77 490.845L1266.02 491.726C1266.72 494.025 1266.19 493.313 1267.87 494.892L1275.28 496.525L1274.53 496.524C1272 496.534 1271.51 496.464 1269.06 497.206L1268.51 498.301C1269.85 500.587 1270.45 500.572 1273.07 501.624L1272.2 502.359C1264.24 499.577 1261.42 485.468 1266.85 478.851C1269.07 477.39 1270.7 477.787 1273.42 477.898Z" fill="#766C6D"/>
<path d="M1157.2 423.47C1158.74 422.768 1161.35 421.616 1162.94 421.679C1178.75 422.295 1198.85 423.318 1214.4 425.09C1222.99 425.866 1272.84 428.195 1276.66 430.85C1282.63 439.075 1273.57 454.386 1283.52 461.928L1279.97 461.969C1277.38 465.193 1278.88 468.339 1278.75 472.714C1278.28 474.239 1277.85 475.279 1277.86 476.885C1276.12 477.389 1275.22 477.603 1273.42 477.898C1273.66 471.711 1274.62 437.138 1271.88 433.52C1262.93 429.738 1175.87 425.589 1157.2 423.47Z" fill="#B6D2FD"/>
<path d="M1154.38 467.897L1156.22 468.041C1158.04 469.546 1159.22 469.906 1161.45 470.709C1165.58 475.49 1164.26 487.889 1160.53 492.971C1160.25 493.349 1157.69 494.548 1157.09 494.825L1156.18 493.855C1152.62 492.665 1152.67 491.874 1151.79 488.501L1151.43 485.918L1150.85 483.42L1150.21 481.008L1150.5 476.034L1150.88 474.872C1150.64 470.412 1150.82 469.994 1154.38 467.897Z" fill="#766C6D"/>
<path d="M1150.87 474.872C1150.64 470.412 1150.82 469.994 1154.38 467.897C1157.53 471.06 1158.96 470.042 1161.75 474.038L1161.79 475.322C1158.22 476.441 1154.53 475.564 1150.87 474.872Z" fill="#FDBF9E"/>
<path d="M1150.5 476.034C1154.77 476.705 1158.34 476.664 1161.65 479.132L1161.89 480.438C1158.04 482.554 1154.58 481.579 1150.21 481.008L1150.5 476.034Z" fill="#FDBF9E"/>
<path d="M1150.85 483.42C1153.64 481.563 1158.63 482.093 1160.72 485.1L1160.49 486.756C1157.66 488.365 1154.15 487.557 1151.43 485.918L1150.85 483.42Z" fill="#FDBF9E"/>
<path d="M1151.79 488.501C1154.84 488.392 1157.34 488.032 1160.07 489.448L1160.66 490.634C1159.65 492.603 1158.3 492.891 1156.18 493.855C1152.62 492.665 1152.67 491.874 1151.79 488.501Z" fill="#FDBF9E"/>
<path d="M1273.07 501.623L1274.14 502.035C1275.5 502.358 1277.48 502.489 1277.88 503.424C1280.01 508.376 1278.53 516.768 1279 522.62C1276.27 525.935 1275.37 526.524 1271.05 526.991C1274.5 522.405 1274.92 505.99 1272.2 502.359L1273.07 501.623Z" fill="#B6D2FD"/>
<path d="M1219.76 453.309C1219.63 450.382 1219.15 447.527 1220.35 444.979C1222.49 444.449 1241.54 453.686 1247.5 455.387C1230.88 467.33 1234.52 458.708 1221.53 462.946C1219.01 461.413 1221.91 456.623 1219.76 453.309Z" fill="#6B9CF9"/>
<path d="M1219.76 453.309C1221.91 456.623 1219.01 461.413 1221.53 462.945C1222.79 466.128 1221.2 470.81 1222.73 474.803C1224.22 475.405 1224.36 475.441 1225.68 476.351L1225.07 477.624C1221.59 479.245 1220.11 479.056 1216.42 478L1216.13 476.902C1217.71 476.277 1217.85 476.234 1219.34 475.245C1220.07 471.533 1219.77 457.824 1219.76 453.309Z" fill="#6B9CF9"/>
<path d="M1191.65 472.924C1192.93 473.495 1192.41 473.086 1193.09 474.314C1190.31 476.993 1190.81 475.872 1189.82 479.018C1191.23 481.736 1191.83 481.417 1194.87 483.153C1192.01 483.846 1193.13 483.751 1189.76 482.543C1186.02 477.938 1188.01 476.175 1191.65 472.924Z" fill="#6B9CF9"/>
<path d="M345.797 538.769C342.043 516.868 356.121 516.074 373.598 517.592C376.377 517.815 378.102 517.926 380.87 518.564C382.855 521.677 385.725 527.114 389.233 528.04C396.315 528.578 402.557 530.932 409.157 533.347C417.783 538.229 420.244 540.121 427.085 547.466L427.487 547.905C430.923 554.586 432.842 558.626 429.106 565.853C431.149 565.466 435.248 564.707 437.249 565.109C466.988 571.085 497.425 576.691 522.083 595.713C531.833 603.235 548.779 611.932 550.067 625.437C548.114 633.221 547.184 639.154 540.095 644.189C533.387 648.953 512.149 641.481 509.309 642.81C507.321 645.19 498.503 648.391 495.483 648.719C485.834 649.767 482.708 648.44 475.417 642.981C471.73 644.896 470.386 644.482 466.348 643.208C460.691 645.446 454.743 643.621 448.655 642.559C438.853 639.683 433.723 637.812 424.364 633.811C419.9 630.256 414.377 624.145 410.828 619.706C409.709 624.096 408.911 627.711 408.101 632.168C404.427 633.92 401.375 637.065 398.08 639.61C390.342 645.584 384.385 648.965 375.09 652.21C354.456 657.375 337.672 654.085 319.237 644.588C308.812 631.191 334.351 580.856 342.788 568.177L344.54 564.937C337.565 555.214 339.821 548.106 345.797 538.769Z" fill="#8BB4FA"/>
<path d="M429.106 565.853C431.149 565.466 435.247 564.707 437.249 565.109C466.987 571.085 497.425 576.691 522.083 595.713C531.833 603.235 548.779 611.932 550.066 625.437C548.113 633.221 547.184 639.154 540.094 644.189C533.386 648.953 512.149 641.481 509.309 642.81C507.321 645.19 498.502 648.391 495.483 648.719C485.834 649.767 482.707 648.44 475.417 642.981C480.029 635.957 482.041 631.134 482.349 622.787C480.778 619.494 479.742 619.062 476.308 618.063C474.056 617.554 474.061 616.821 472.306 614.762C468.484 613.179 464.707 611.486 460.983 609.682C459.91 608.42 457.982 606.94 456.741 605.447C450.136 597.496 446.664 590.954 437.113 586.089C435.106 582.141 430.004 569.986 429.106 565.853Z" fill="#B6D2FD"/>
<path d="M482.349 622.787C486.153 622.422 498.38 622.645 500.029 622.308L505.623 622.73C506.13 624.15 506.384 624.987 506.762 626.448C518.11 629.421 540.658 633.482 550.067 625.437C548.114 633.221 547.184 639.154 540.094 644.189C533.386 648.953 512.149 641.481 509.309 642.81C507.321 645.19 498.503 648.391 495.483 648.719C485.834 649.767 482.707 648.44 475.417 642.981C480.029 635.957 482.041 631.134 482.349 622.787Z" fill="#6B9CF9"/>
<path d="M482.349 622.787C486.153 622.422 498.38 622.645 500.029 622.308L505.623 622.73C503.44 629.965 497.543 628.089 496.903 631.571C500.178 636.173 504.796 639.472 509.309 642.81C507.321 645.19 498.503 648.391 495.483 648.719C485.834 649.767 482.707 648.44 475.417 642.981C480.029 635.957 482.041 631.134 482.349 622.787Z" fill="#FDBF9E"/>
<path d="M472.307 614.762C474.776 615.164 499.592 621.835 500.029 622.308C498.38 622.645 486.153 622.422 482.349 622.787C480.778 619.494 479.742 619.062 476.309 618.063C474.056 617.554 474.062 616.821 472.307 614.762Z" fill="#0753D1"/>
<path d="M375.09 652.21C373.511 636.503 367.492 647.809 380.449 634.624C386.732 628.23 392.368 595.619 391.495 586.826C397.93 599.445 402.616 608.062 410.828 619.706C409.709 624.096 408.911 627.711 408.101 632.168C404.427 633.92 401.375 637.065 398.08 639.61C390.342 645.584 384.385 648.965 375.09 652.21Z" fill="#6B9CF9"/>
<path d="M344.54 564.937C370.839 571.185 389.681 540.944 416.318 552.706C419.124 553.944 423.74 556.596 425.147 559.334L424.506 559.654C415.808 553.752 413.086 550.801 401.718 552.787C385.424 555.634 358.983 579.842 342.788 568.177L344.54 564.937Z" fill="#6B9CF9"/>
<path d="M466.348 643.208C470.656 635.767 474.151 628.089 474.755 619.419C474.755 619.419 476.169 618.185 476.308 618.063C479.742 619.062 480.778 619.494 482.349 622.787C482.041 631.134 480.029 635.957 475.417 642.981C471.73 644.896 470.386 644.482 466.348 643.208Z" fill="#6B9CF9"/>
<path d="M373.597 517.592C376.377 517.815 378.102 517.926 380.869 518.564C382.855 521.677 385.725 527.114 389.233 528.04C384.184 527.819 360.051 527.192 356.98 523.919C361.108 519.473 370.931 522.209 373.597 517.592Z" fill="#0961F5"/>
<path d="M437.114 586.089C446.664 590.954 450.136 597.496 456.741 605.447C457.982 606.94 459.91 608.42 460.983 609.682C454.948 607.888 451.421 606.098 445.831 603.368L444.607 602.785C442.138 599.426 438.581 590.138 437.114 586.089Z" fill="#6B9CF9"/>
<path d="M445.831 603.368C444.23 604.701 437.938 609.661 436.192 609.975C438.211 606.933 440.963 603.732 444.607 602.785L445.831 603.368Z" fill="#6B9CF9"/>
<path d="M346.865 574.842L348.488 575.701C350.908 582.243 337.123 594.071 343.14 602.367C356.378 608.867 359.371 585.644 364.145 580.343L365.692 580.665C366.954 584.642 358.617 601.399 357.729 607.718C359.44 608.12 359.67 608.04 361.07 609.154L361.04 610.573C358.586 611.83 359.624 611.54 356.692 611.271C354.316 609.377 354.719 609.071 353.497 606.05C348.731 604.644 348.824 607.098 344.009 606.477C341 604.963 340.43 603.864 338.496 601.219C336.2 606.077 334.31 614.66 329.607 616.561L328.726 615.861C334.091 601.896 340.145 588.207 346.865 574.842Z" fill="#F3F3F0"/>
<path d="M1279 522.62C1280.66 522.301 1287.09 521.893 1289.35 521.652C1297.75 520.755 1303.79 519.436 1311.87 517.134C1313.39 534.812 1315.44 552.44 1318.01 569.996C1319.9 582.751 1322.06 595.472 1323.56 608.279C1324.22 613.885 1322.45 614.442 1317.53 616.847L1317.71 621.798C1321 623.626 1323.56 626.63 1322.48 630.685C1323.15 633.211 1323.8 635.887 1324.55 638.377C1333.53 639.746 1355.06 642.315 1361.23 649.077C1362.1 651.645 1362.04 650.554 1361.45 653.214C1347.28 672.76 1203.25 669.806 1178.82 654.518C1176.99 653.372 1176.65 652.019 1176.14 650.137C1178.13 644.641 1195.07 640.363 1200.59 638.701C1203.89 634.287 1206.36 633.566 1211.45 632.08L1217.48 628.434L1217.69 627.675C1221.44 624.345 1222.13 620.96 1226.23 619.308L1227.03 615.751C1224.65 615.107 1222.46 613.88 1220.23 612.772C1220.45 604.882 1222.12 592.075 1222.94 583.657L1228.93 522.829C1240.62 523.91 1259.87 525.137 1271.06 526.991C1275.38 526.524 1276.27 525.935 1279 522.62ZM1250.14 622.917L1250.25 623.212C1255.73 627.533 1251.73 633.134 1255.37 635.005C1266.53 634.129 1276.81 635.033 1287.59 634.525C1288.8 631.581 1289.02 630.897 1291.13 628.396C1291.72 625.846 1291.89 625.597 1293.88 623.894L1293.3 621.436C1292.15 619.789 1286.83 618.988 1284.47 618.441C1282.71 612.531 1280.65 601.395 1279.25 594.956L1269.19 548.968C1267.49 559.337 1260.59 610.733 1258.13 615.677C1255.8 617.538 1253.36 617.576 1250.33 618.062L1250.14 622.917Z" fill="#051C42"/>
<path d="M1293.3 621.436C1293.33 621.413 1313.98 618.026 1317.53 616.847L1317.71 621.798C1321 623.626 1323.56 626.629 1322.48 630.685C1323.15 633.211 1323.8 635.887 1324.55 638.377C1333.53 639.746 1355.06 642.315 1361.23 649.077C1362.1 651.645 1362.04 650.554 1361.45 653.214C1347.28 672.76 1203.25 669.806 1178.82 654.518C1176.99 653.372 1176.65 652.019 1176.14 650.136C1178.13 644.641 1195.07 640.363 1200.59 638.701C1203.89 634.287 1206.36 633.566 1211.45 632.08L1217.48 628.434L1217.69 627.674C1221.44 624.345 1222.13 620.96 1226.23 619.308L1234.67 621.762C1238.26 621.002 1246.61 621.957 1250.14 622.917L1250.25 623.212C1255.73 627.533 1251.73 633.134 1255.37 635.005C1266.53 634.129 1276.81 635.033 1287.59 634.525C1288.8 631.581 1289.02 630.897 1291.13 628.396C1291.72 625.846 1291.89 625.596 1293.88 623.894L1293.3 621.436Z" fill="#E6EFFF"/>
<path d="M1293.3 621.436C1293.33 621.413 1313.98 618.026 1317.52 616.847L1317.71 621.798C1321 623.626 1323.56 626.629 1322.48 630.685C1323.15 633.211 1323.8 635.887 1324.55 638.377L1324.27 639.503L1324.36 642.162C1320.63 643.177 1318.79 644.668 1315.52 646.093C1310.83 649.109 1306.79 650.644 1301.44 652.241L1300.84 651.107C1300.36 646.96 1298.61 644.551 1296.26 641.312C1291.6 639.676 1290.54 639.515 1285.61 639.188L1287.05 636.606C1290.7 634.522 1289.84 635.692 1290.88 632.412C1291.59 630.831 1291.34 630.111 1291.13 628.396C1291.72 625.846 1291.89 625.596 1293.88 623.894L1293.3 621.436Z" fill="#6B9CF9"/>
<path d="M1293.3 621.436C1293.33 621.413 1313.98 618.026 1317.52 616.847L1317.71 621.798C1316.05 624.416 1315.83 627.673 1313.81 629.087C1311.2 629.538 1310.62 629.411 1307.94 629.188C1306.1 630.479 1306.02 630.536 1304.77 632.429C1298.72 635.743 1304.6 637.561 1298.06 636.485L1298.36 637.603L1298.54 639.727C1297.5 640.56 1297.42 640.749 1296.26 641.312C1291.6 639.676 1290.54 639.515 1285.61 639.188L1287.05 636.606C1290.7 634.522 1289.84 635.692 1290.88 632.412C1291.59 630.831 1291.34 630.111 1291.13 628.396C1291.72 625.846 1291.89 625.596 1293.88 623.894L1293.3 621.436Z" fill="#FDBF9E"/>
<path d="M1290.88 632.412C1291.64 631.661 1292.35 630.936 1292.93 630.038C1298 628.421 1300.81 628.337 1304.77 632.429C1298.72 635.743 1304.6 637.561 1298.06 636.485L1298.36 637.603L1298.54 639.727C1297.5 640.56 1297.42 640.749 1296.26 641.312C1291.6 639.676 1290.54 639.515 1285.61 639.188L1287.05 636.606C1290.7 634.522 1289.84 635.692 1290.88 632.412Z" fill="#E6EFFF"/>
<path d="M1287.05 636.606C1290.88 638.359 1294.82 638.017 1297.68 639.239L1298.36 637.603L1298.54 639.727C1297.5 640.56 1297.42 640.749 1296.26 641.312C1291.6 639.676 1290.54 639.515 1285.61 639.188L1287.05 636.606Z" fill="#0753D1"/>
<path d="M1293.88 623.894C1300.17 623.2 1305.46 622.004 1307.94 629.188C1306.09 630.479 1306.02 630.536 1304.77 632.429C1300.81 628.337 1298 628.421 1292.93 630.038C1292.35 630.936 1291.64 631.661 1290.88 632.412C1291.59 630.831 1291.33 630.111 1291.13 628.396C1291.72 625.846 1291.89 625.596 1293.88 623.894Z" fill="#8BB4FA"/>
<path d="M1315.34 644.944C1315.22 637.014 1316.75 635.681 1322.48 630.685C1323.15 633.211 1323.8 635.887 1324.55 638.377L1324.27 639.503L1324.36 642.162C1320.63 643.177 1318.79 644.668 1315.52 646.093L1315.34 644.944Z" fill="#F3F3F0"/>
<path d="M1324.27 639.503L1324.36 642.162C1320.63 643.177 1318.79 644.668 1315.51 646.093L1315.33 644.944C1316.98 643.548 1322.26 640.641 1324.27 639.503Z" fill="#B6D2FD"/>
<path d="M1226.23 619.308L1234.67 621.762C1238.26 621.002 1246.61 621.957 1250.14 622.917L1250.25 623.212C1255.73 627.533 1251.73 633.134 1255.37 635.005L1253.28 634.653C1253.1 636.737 1252.8 638.43 1253.24 640.477L1252.49 641.002L1252.79 642.596C1249.3 643.269 1243.6 644.615 1240.23 644.41L1239.54 644.602C1233.89 645.681 1228.22 646.66 1222.52 647.539L1222.65 646.385C1222.14 642.522 1221.44 640.418 1220.28 636.678C1219.91 636.38 1219.55 636.088 1219.17 635.804C1216.79 634.01 1214.56 632.574 1211.57 633.011L1211.45 632.08L1217.48 628.434L1217.69 627.674C1221.44 624.345 1222.13 620.96 1226.23 619.308Z" fill="#6B9CF9"/>
<path d="M1226.23 619.308L1234.67 621.762L1235.78 626.122C1234.46 626.512 1232.84 626.9 1231.61 627.47L1231.09 629.002C1228.42 629.869 1224.45 632.457 1223 634.893L1221.76 635.216L1220.28 636.678C1219.91 636.38 1219.55 636.088 1219.17 635.804C1216.79 634.01 1214.56 632.574 1211.57 633.011L1211.45 632.08L1217.48 628.434L1217.69 627.674C1221.44 624.345 1222.13 620.96 1226.23 619.308Z" fill="#F3F3F0"/>
<path d="M1226.23 619.308L1234.67 621.762L1235.78 626.122C1234.46 626.512 1232.84 626.9 1231.61 627.47C1229.29 625.814 1228.79 625.593 1226.1 624.593C1222.92 624.677 1221.41 626.353 1218.3 627.46L1217.69 627.674C1221.44 624.345 1222.13 620.96 1226.23 619.308Z" fill="#6B9CF9"/>
<path d="M1211.45 632.08L1217.48 628.434L1215.77 630.726C1218.29 633.793 1218.11 630.641 1221.76 635.216L1220.28 636.678C1219.91 636.38 1219.55 636.088 1219.17 635.804C1216.79 634.01 1214.56 632.574 1211.57 633.011L1211.45 632.08Z" fill="#0753D1"/>
<path d="M1239.54 644.602C1239.98 639.201 1247 630.728 1252.7 632.758L1253.28 634.653C1253.1 636.737 1252.8 638.43 1253.24 640.477L1252.49 641.002L1252.79 642.596C1249.3 643.269 1243.6 644.615 1240.23 644.41L1239.54 644.602Z" fill="#F3F3F0"/>
<path d="M1240.23 644.41C1243.46 642.421 1248.81 641.559 1252.48 641.002L1252.78 642.596C1249.3 643.269 1243.6 644.615 1240.23 644.41Z" fill="#6B9CF9"/>
<path d="M1234.67 621.762C1238.26 621.002 1246.61 621.957 1250.14 622.917L1250.25 623.212C1246.47 624.38 1240.79 632.972 1235.78 626.122L1234.67 621.762Z" fill="#F4AE8E"/>
<path d="M1211.57 633.011C1214.56 632.574 1216.79 634.01 1219.17 635.804C1219.55 636.088 1219.91 636.38 1220.28 636.678C1221.44 640.418 1222.14 642.522 1222.65 646.385L1222.52 647.539C1214.45 647.594 1210.01 647.912 1202.15 645.44L1202.19 644.255C1199.18 637.92 1207.28 634.824 1211.57 633.011Z" fill="#F3F3F0"/>
<path d="M1202.19 644.255C1210.57 646.314 1213.93 646.892 1222.65 646.385L1222.52 647.539C1214.45 647.594 1210.01 647.912 1202.15 645.44L1202.19 644.255Z" fill="#A2ADBD"/>
<path d="M1285.61 639.188C1290.54 639.515 1291.6 639.676 1296.26 641.312C1298.61 644.551 1300.37 646.96 1300.84 651.107C1292.14 652.543 1285.22 652.017 1276.73 650.514C1277.39 643.121 1279.41 642.356 1285.61 639.188Z" fill="#F3F3F0"/>
<path d="M1324.36 642.162L1324.64 642.671C1324.07 645.063 1323.8 647.328 1321.45 648.771C1313.17 653.863 1284.55 661.48 1277.3 654.02C1276.48 652.637 1276.66 652.111 1276.73 650.514C1285.22 652.017 1292.14 652.543 1300.84 651.107L1301.44 652.241C1306.78 650.644 1310.83 649.109 1315.51 646.093C1318.79 644.668 1320.63 643.177 1324.36 642.162Z" fill="#F3F3F0"/>
<path d="M1276.73 650.514C1285.22 652.017 1292.14 652.543 1300.84 651.107L1301.44 652.242C1298.87 652.694 1296.06 653.266 1293.44 653.301C1288.78 653.361 1284.07 652.84 1279.42 652.504C1277.77 652.385 1277.65 652.011 1277.3 654.02C1276.48 652.637 1276.66 652.111 1276.73 650.514Z" fill="#A2ADBD"/>
<path d="M1240.23 644.41C1243.6 644.615 1249.3 643.269 1252.79 642.596C1251.89 646.163 1252.57 645.374 1250.48 647.629C1243.19 650.124 1206.26 653.732 1201.89 647.101L1202.15 645.44C1210.01 647.912 1214.45 647.594 1222.52 647.539C1228.22 646.66 1233.89 645.681 1239.54 644.602L1240.23 644.41Z" fill="#F3F3F0"/>
<path d="M1291.13 628.396C1291.34 630.111 1291.59 630.831 1290.88 632.412C1289.84 635.692 1290.7 634.522 1287.05 636.606L1285.61 639.188C1279.41 642.356 1277.39 643.121 1276.73 650.514C1276.66 652.111 1276.49 652.637 1277.3 654.02C1284.56 661.48 1313.17 653.863 1321.45 648.771C1323.8 647.328 1324.07 645.063 1324.64 642.671C1327.22 651.239 1316 652.95 1309.4 655.305C1301.71 658.047 1276.07 663.297 1274.51 650.127C1273.79 643.978 1282.85 639.305 1286.93 635.185L1287.59 634.525C1288.8 631.581 1289.02 630.897 1291.13 628.396Z" fill="#334767"/>
<path d="M1200.59 638.701C1203.89 634.287 1206.36 633.566 1211.45 632.08L1211.57 633.011C1207.28 634.824 1199.18 637.921 1202.19 644.255L1202.14 645.44L1201.89 647.101C1206.26 653.732 1243.19 650.124 1250.48 647.629C1252.57 645.374 1251.89 646.164 1252.79 642.596L1252.48 641.002L1253.23 640.477C1254.42 643.596 1254.3 646.105 1251.98 648.571C1247.19 650.93 1236.54 651.07 1230.86 651.806C1223.95 652.702 1216.43 653.123 1209.55 652.146C1199.59 650.735 1199.13 647.666 1200.59 638.701Z" fill="#334767"/>
<path d="M1227.03 615.751C1236.41 617.834 1240.82 618.278 1250.33 618.062L1250.14 622.917C1246.61 621.957 1238.26 621.002 1234.67 621.762L1226.23 619.308L1227.03 615.751Z" fill="#FDBF9E"/>
<path d="M408.101 632.168C413.531 632.63 418.952 633.178 424.364 633.811C433.723 637.812 438.853 639.683 448.654 642.559C459.762 654.062 456.872 667.596 445.799 677.986C445.28 678.478 444.746 678.954 444.195 679.41C445.091 685.271 446.098 690.889 444.114 696.667C455.512 699.174 480.401 702.381 486.619 712.906C487.56 714.498 487.833 716.347 487.211 718.109C485.516 722.909 479.393 726.019 474.99 727.829C433.737 744.791 320.123 742.727 280.094 725.228C277.503 724.095 274.926 722.363 273.942 719.606C273.416 718.131 273.541 716.516 274.263 715.104C276.535 710.66 281.8 708.78 286.315 707.63C288.621 707.043 290.707 706.769 293.001 707.587C294.409 698.155 299.347 689.567 303.234 680.926C307.391 671.687 311.209 663.637 322.49 668.373C324.4 669.546 324.497 669.693 326.665 669.792L329.855 670.323C322.075 661.368 320.84 655.857 319.237 644.588C337.672 654.085 354.456 657.375 375.09 652.21C384.385 648.965 390.342 645.584 398.08 639.61C401.375 637.065 404.427 633.92 408.101 632.168ZM378.587 724.365C389.358 728.733 396.412 729.644 408.063 727.578L408.451 726.81C407.612 726.338 407.929 726.383 407.113 726.333C396.735 725.692 386.545 722.167 376.884 718.537L372.599 716.375C368.893 714.186 363.223 711.706 359.216 709.809C359.054 714.234 358.315 718.222 361.666 721.6C366.021 725.99 373.081 725.572 378.587 724.365ZM309.575 719.855C318.161 719.17 319.345 715.891 322.574 708.76C321.259 705.366 318.176 703.606 314.713 703.53C312.131 704.904 312.767 704.926 311.513 708.187C311.122 712.463 309.731 715.042 308.012 718.994C308.855 719.783 308.47 719.602 309.575 719.855Z" fill="#051C42"/>
<path d="M293.001 707.587C294.409 698.155 299.347 689.567 303.234 680.926C307.391 671.687 311.209 663.637 322.49 668.373C324.4 669.546 324.497 669.693 326.665 669.792L329.855 670.323C332.307 672.047 336.379 675.258 339.002 676.057C338.965 677.209 338.918 678.671 338.861 680.445C336.119 685.314 332.612 686.483 333.768 692.64L334.864 693.075C337.053 697.294 336.001 698.088 336.668 701.928L336.82 702.463C341.19 721.969 355.192 704.613 358.493 716.982C361.542 728.406 369.561 727.799 379.175 726.204L378.587 724.365C389.358 728.733 396.412 729.644 408.063 727.578C408.367 727.777 409.25 727.941 409.662 728.043C411.868 727.288 412.305 727.31 413.727 725.6L412.922 724.783C407.864 723.711 402.097 724.106 396.874 724.22C398.219 718.604 399.219 714.406 402.928 709.772C409.727 713.26 409.428 711.235 414.63 711.929C428.996 712.514 437.786 710.007 444.114 696.667C455.512 699.174 480.401 702.382 486.619 712.906C487.56 714.498 487.833 716.347 487.211 718.109C485.516 722.909 479.393 726.019 474.99 727.829C433.737 744.791 320.123 742.727 280.094 725.228C277.503 724.095 274.926 722.363 273.942 719.606C273.416 718.131 273.541 716.516 274.263 715.104C276.535 710.66 281.8 708.78 286.315 707.631C288.621 707.043 290.707 706.769 293.001 707.587ZM309.575 719.855C318.161 719.17 319.345 715.891 322.574 708.76C321.259 705.366 318.176 703.606 314.713 703.53C312.131 704.904 312.767 704.926 311.513 708.187C311.122 712.463 309.731 715.042 308.012 718.994C308.855 719.783 308.47 719.602 309.575 719.855Z" fill="#E6EFFF"/>
<path d="M293.001 707.587C294.409 698.155 299.347 689.567 303.234 680.926C307.39 671.687 311.209 663.637 322.49 668.373C324.4 669.546 324.496 669.693 326.665 669.792L329.855 670.323C332.307 672.047 336.379 675.258 339.002 676.057C338.965 677.209 338.918 678.671 338.861 680.445C336.118 685.314 332.612 686.483 333.768 692.64L334.864 693.075C337.053 697.294 336.001 698.088 336.668 701.928L336.82 702.463C334.042 705.703 329.83 707.652 325.687 708.364C322.918 710.957 322.359 714.183 320.259 716.346C309.614 727.309 295.059 722.576 293.001 707.587ZM309.575 719.855C318.161 719.17 319.345 715.891 322.574 708.76C321.259 705.366 318.176 703.606 314.713 703.53C312.13 704.904 312.766 704.926 311.512 708.187C311.122 712.463 309.731 715.042 308.011 718.994C308.855 719.783 308.47 719.602 309.575 719.855Z" fill="#0753D1"/>
<path d="M326.665 669.792L329.855 670.323C332.307 672.047 336.379 675.258 339.002 676.057C338.965 677.209 338.918 678.671 338.861 680.445C336.118 685.314 332.612 686.483 333.768 692.64L334.864 693.075C337.053 697.294 336.001 698.088 336.668 701.928L336.82 702.463C334.042 705.703 329.83 707.652 325.687 708.364L322.574 708.76C321.259 705.366 318.176 703.606 314.713 703.53C312.13 704.904 312.766 704.926 311.512 708.187C309.482 710.874 310.354 711.432 308.077 712.324L307.472 711.213C308.152 702.335 317.024 683.599 320.683 674.079L321.648 674.483C324.103 677.92 322.198 679.616 321.841 682.604C323.496 681.983 323.952 678.911 325.187 676.432L325.893 677.708C327.166 675.688 326.3 672.624 326.665 669.792Z" fill="#8BB4FA"/>
<path d="M293.001 707.587C294.409 698.155 299.347 689.567 303.234 680.926C307.39 671.687 311.209 663.637 322.49 668.373C309.782 666.758 310.536 669.695 305.116 680.216C299.305 691.495 283.468 721.432 309.575 719.855C318.161 719.17 319.345 715.891 322.574 708.76L325.687 708.364C322.918 710.957 322.359 714.183 320.259 716.346C309.614 727.309 295.059 722.576 293.001 707.587Z" fill="#334767"/>
<path d="M402.928 709.772C409.727 713.26 409.428 711.235 414.63 711.929L413.027 712.952C414.884 716.657 417.601 718.971 415.925 723.941C412.091 735.306 388.067 729.913 380.929 726.996C380.334 726.756 379.749 726.492 379.175 726.204L378.586 724.365C389.358 728.733 396.412 729.644 408.063 727.578C408.367 727.777 409.25 727.941 409.662 728.043C411.868 727.288 412.305 727.31 413.727 725.6L412.922 724.783C407.864 723.711 402.097 724.106 396.874 724.22C398.219 718.604 399.219 714.406 402.928 709.772Z" fill="#334767"/>
<path d="M376.319 686.808C383.141 687.496 385.545 685.82 389.266 690.367C389.564 690.732 389.855 691.101 390.142 691.474L393.375 695.533C395.701 696.937 396.527 697.273 398.337 699.402C398.096 703.707 402.708 706.415 402.929 709.772C399.219 714.406 398.219 718.604 396.874 724.22C402.097 724.106 407.864 723.711 412.922 724.783L413.727 725.6C412.305 727.31 411.868 727.288 409.662 728.043C409.25 727.941 408.367 727.777 408.063 727.578L408.451 726.81C407.612 726.338 407.93 726.383 407.114 726.333C396.735 725.692 386.545 722.167 376.884 718.537L372.599 716.375C368.893 714.186 363.223 711.706 359.216 709.809L361.252 703.006L363.809 696.374L364.5 694.94C367.401 689.463 368.289 687.88 374.618 688.648L376.319 686.808Z" fill="#8BB4FA"/>
<path d="M364.5 694.94C376.319 698.535 379.587 706.832 376.884 718.537L372.599 716.375C368.893 714.186 363.223 711.706 359.216 709.809L361.252 703.006L363.809 696.374L364.5 694.94Z" fill="#334767"/>
<path d="M361.252 703.006L367.704 705.919C369.901 708.073 374.086 713.562 375.609 714.047C374.618 716.021 375.158 715.36 372.599 716.375C368.893 714.186 363.223 711.706 359.216 709.809L361.252 703.006Z" fill="#035F7D"/>
<path d="M363.808 696.374C368.383 697.485 370.425 698.035 373.552 701.929C371.224 704.366 370.671 704.571 367.704 705.919L361.252 703.006L363.808 696.374Z" fill="#0753D1"/>
<path d="M373.552 701.929C375.089 706.514 375.608 709.135 375.609 714.047C374.086 713.562 369.901 708.073 367.704 705.919C370.671 704.571 371.224 704.366 373.552 701.929Z" fill="#6B9CF9"/>
<path d="M376.319 686.808C383.14 687.496 385.545 685.82 389.266 690.367C389.563 690.732 389.855 691.101 390.142 691.474L393.375 695.533C389.56 697.547 388.15 700.147 383.424 699.174C378.724 695.702 380.794 692.221 374.618 688.648L376.319 686.808Z" fill="#FDBF9E"/>
<path d="M339.002 676.057C344.345 679.939 343.736 686.678 343.19 692.852C340.331 692.71 337.594 692.352 334.865 693.075L333.768 692.64C332.612 686.483 336.119 685.314 338.861 680.445C338.918 678.671 338.965 677.209 339.002 676.057Z" fill="#F4AE8E"/>
<path d="M334.865 693.075C337.594 692.352 340.331 692.71 343.19 692.852C342.764 696.073 342.857 698.793 340.723 701.015C339.02 701.51 338.414 701.658 336.668 701.928C336.001 698.088 337.053 697.294 334.865 693.075Z" fill="#FDBF9E"/>
<path d="M389.812 686.952C393.13 689.524 398.254 692.931 399.971 696.512C399.667 698.125 399.417 698.186 398.337 699.402C396.527 697.273 395.701 696.937 393.375 695.533L390.142 691.474L389.812 686.952Z" fill="#E29E8C"/>
<path d="M381.842 681.417L389.812 686.952L390.142 691.474C389.855 691.101 389.564 690.732 389.266 690.367C385.545 685.82 383.141 687.496 376.319 686.808L381.842 681.417Z" fill="#F4AE8E"/>
<path d="M348.397 677.106C350.941 677.542 360.661 680.978 363.571 681.944L362.92 682.943C359.566 682.466 348.637 680.785 346.783 678.462L348.397 677.106Z" fill="#334767"/>
<path d="M504.054 708.574C519.278 690.713 577.616 686.571 601.786 682.517C612.849 680.661 625.141 685.166 636.666 684.465C637.153 685.594 637.045 685.595 636.901 686.84C650.132 696.4 684.74 699.282 695.072 717.295C694.998 720.804 694.479 731.429 695.648 734.224C698.447 735.615 697.651 734.779 698.987 737.234C695.958 749.508 630.04 762.314 618.302 762.981L614.265 762.659C615.24 761.706 615.931 760.783 616.775 759.725L611.887 760.198C610.992 760.491 605.449 761.991 605.278 762.074C593.374 764.242 579.949 765.742 568.001 763.581C562.442 762.576 557.306 760.018 551.523 759.455C543.932 758.983 549.178 758.653 544.111 754.369C541.186 753.874 536.937 751.076 534.092 749.503C533.796 750.753 533.392 752.734 532.975 753.874C524.619 750.273 497.951 739.168 498.049 729.214C499.906 727.126 499.027 727.767 502.181 727.138C503.485 720.58 501.757 716.588 504.054 708.574Z" fill="#B6D2FD"/>
<path d="M504.054 708.574C506.365 718.337 518.059 724.394 526.971 727.373C529.837 728.891 531.898 730.193 535.099 730.776C556.43 742.017 567.356 749.113 594.161 745.075C623.385 740.673 659.948 734.332 688.024 724.53C690.169 723.781 693.61 719.157 695.072 717.295C694.998 720.804 694.479 731.429 695.648 734.224C698.447 735.615 697.651 734.779 698.987 737.234C695.958 749.508 630.04 762.314 618.302 762.981L614.265 762.659C615.24 761.706 615.931 760.783 616.775 759.725L611.887 760.198C610.992 760.491 605.449 761.991 605.278 762.074C593.374 764.242 579.949 765.742 568.001 763.581C562.442 762.576 557.306 760.018 551.523 759.455C543.932 758.983 549.178 758.653 544.111 754.369C541.186 753.874 536.937 751.076 534.092 749.503C533.796 750.753 533.392 752.734 532.975 753.874C524.619 750.273 497.951 739.168 498.049 729.214C499.906 727.125 499.027 727.767 502.181 727.138C503.485 720.58 501.757 716.588 504.054 708.574Z" fill="#6B9CF9"/>
<path d="M695.648 734.224C698.447 735.615 697.652 734.779 698.987 737.234C695.958 749.508 630.041 762.314 618.302 762.981L614.265 762.659C615.24 761.706 615.932 760.783 616.775 759.725C618.442 758.885 625.013 757.843 627.258 757.422C628.866 757.257 629.903 756.942 631.462 756.567C645.248 753.912 669.85 748.834 682.642 744.497C689.213 742.693 692.395 740.055 695.648 734.224Z" fill="#E6EFFF"/>
<path d="M532.975 753.874C524.619 750.273 497.951 739.168 498.049 729.214C499.906 727.126 499.027 727.767 502.181 727.138C505.057 735.325 515.061 740.241 522.628 743.712L534.092 749.503C533.796 750.753 533.392 752.734 532.975 753.874Z" fill="#E6EFFF"/>
<path d="M631.462 756.567L631.382 755.059C635.492 752.599 677.925 742.966 682.642 744.497C669.85 748.834 645.248 753.912 631.462 756.567Z" fill="#2A90A3"/>
<path d="M522.628 743.712L524.647 742.555C527.047 743.362 543.306 752.329 544.111 754.369C541.186 753.874 536.937 751.076 534.092 749.503L522.628 743.712Z" fill="#2A90A3"/>
<path d="M611.887 760.198L611.701 759.373C613.569 756.53 623.988 755.337 627.258 757.422C625.013 757.842 618.442 758.885 616.775 759.725L611.887 760.198Z" fill="#2A90A3"/>
<path d="M526.971 727.373C529.401 725.94 537.838 725.454 539.503 728.116C537.97 729.844 537.334 729.898 535.099 730.776C531.898 730.193 529.837 728.891 526.971 727.373Z" fill="#BBE1E0"/>
<path d="M399.877 445.966C401.14 440.141 409.393 425.209 415.353 431.994C415.954 436.379 413.353 439.034 410.776 442.585C412.395 441.869 414.042 441.217 415.712 440.631C442.455 431.437 461.542 445.557 479.897 461.203C482.513 463.433 492.028 462.782 495.982 464.735C501.25 473.356 492.925 473.465 491.026 478.565C493.106 481.807 498.143 488.281 497.278 492.31C495.14 502.258 486.675 505.188 477.463 502.993C475.74 513.52 470.131 521.494 471.87 528.922C471.127 530.624 471.739 529.875 470.509 530.837C459.57 539.384 451.115 553.087 434.255 548.686L427.487 547.905L427.084 547.466C420.244 540.121 417.783 538.229 409.156 533.347C402.556 530.932 396.315 528.578 389.233 528.04C385.725 527.114 382.855 521.677 380.869 518.564C367.182 494.143 364.643 469.507 391.248 453.29C388.196 452.946 385.381 452.866 382.681 451.429C380.878 449.195 381.148 450.197 381.297 447.697C386.116 441.599 393.799 443.708 399.877 445.966Z" fill="#051C42"/>
<path d="M449.738 498.73C454.697 502.364 468.559 510.418 474.016 504.454L473.551 501.555L474.287 501.311L477.463 502.993C475.74 513.52 470.131 521.494 471.87 528.922C471.127 530.624 471.739 529.875 470.509 530.837C459.57 539.384 451.115 553.087 434.255 548.686L427.487 547.905L427.084 547.466C420.244 540.121 417.783 538.229 409.156 533.347C416.112 531.658 416.836 531.251 421.762 526.061L422.662 525.025C417.348 522.194 413.008 517.413 413.932 510.896C414.543 506.584 422.42 500.231 426.784 501.684C431.653 503.306 431.336 510.974 433.807 514.963C440.926 518.167 447.943 504.131 449.738 498.73Z" fill="#FDBF9E"/>
<path d="M409.156 533.347C416.112 531.658 416.836 531.251 421.762 526.061C422.938 538.557 427.004 539.205 434.255 548.686L427.487 547.905L427.084 547.466C420.244 540.121 417.783 538.229 409.156 533.347Z" fill="#F4AE8E"/>
<path d="M424.69 508.077C428.098 508.869 429.057 509.754 430.227 512.808C430.174 515.544 429.226 516.506 427.692 518.709C424.558 517.796 423.712 516.985 422.348 514.239C422.231 511.376 423.145 510.422 424.69 508.077Z" fill="#F4AE8E"/>
<path d="M463.823 514.911L465.549 515.653C468.472 519.722 465.878 522.841 463.279 526.333C462.271 526.137 461.539 525.791 460.579 525.422C457.99 521.037 460.825 518.124 463.823 514.911Z" fill="#051C42"/>
<path d="M453.073 532.355C454.819 534.454 455.932 535.398 457.939 537.157L457.864 538.268C454.352 537.528 453.697 535.587 453.073 532.355Z" fill="#766C6D"/>
<path d="M661.902 654.431C671.166 641.675 708.451 638.815 724.035 635.098C732.082 633.179 755.565 630.141 762.892 631.776C779.482 635.475 832.282 648.123 841.282 661.265C842.527 667.191 841.44 675.51 843.06 679.049C842.497 679.419 841.41 680.18 840.847 680.438C840.082 681.71 839.73 681.96 839.527 683.362C836.872 686.178 833.775 687.144 830.205 688.649L831.352 689.915C816.825 694.686 765.112 708.631 752.902 704.4C749.633 704.438 746.011 704.327 742.861 704.976C728.322 706.496 683.905 690.151 670.601 683.015C672.182 682.727 680.112 685.451 682.56 686.103C679.624 684.545 668.413 678.114 665.451 678.646C663.667 678.967 657.651 682.145 654.528 681.13C655.569 679.814 662.135 677.77 664.088 677.078C661.815 672.329 660.622 671.867 660.727 666.66C660.83 661.929 660.766 659.093 661.902 654.431Z" fill="#B6D2FD"/>
<path d="M661.902 654.431C666.52 666.777 693.617 671.556 704.869 676.249C714.234 680.154 725.548 683.514 735.478 685.884C754.2 690.026 784.83 681.952 804.022 676.811L804.195 675.998L802.875 674.862C804.862 674.443 804.465 674.799 806.04 675.363C809.445 676.578 815.272 675.021 818.857 674.046C826.23 672.044 839.512 670.01 841.282 661.265C842.527 667.191 841.44 675.51 843.06 679.049C842.497 679.419 841.41 680.18 840.847 680.438C840.082 681.71 839.73 681.96 839.527 683.362C836.872 686.178 833.775 687.145 830.205 688.649L831.352 689.915C816.825 694.686 765.112 708.631 752.902 704.4C749.633 704.438 746.011 704.327 742.861 704.976C728.322 706.496 683.905 690.151 670.601 683.015C672.182 682.727 680.112 685.451 682.56 686.103C679.624 684.545 668.413 678.114 665.451 678.646C663.667 678.967 657.651 682.145 654.528 681.13C655.569 679.814 662.135 677.77 664.088 677.078C661.815 672.329 660.622 671.867 660.727 666.66C660.83 661.929 660.766 659.093 661.902 654.431Z" fill="#6B9CF9"/>
<path d="M810.802 691.773C816.637 690.787 825.367 686.912 830.205 688.649L831.352 689.915C816.825 694.686 765.112 708.631 752.902 704.4L777.9 699.218C779.767 698.868 781.065 698.511 782.895 697.987C791.94 696.177 800.955 694.229 809.94 692.142L810.802 691.773Z" fill="#E6EFFF"/>
<path d="M660.727 666.66L663.667 673.763C666.967 676.334 669.187 677.938 673.009 679.643C679.289 682.444 690.153 683.667 694.381 689.205C690.788 690.508 687.433 686.165 683.473 686.667L682.56 686.103C679.624 684.545 668.413 678.114 665.451 678.646C663.667 678.967 657.651 682.145 654.528 681.13C655.569 679.814 662.135 677.77 664.088 677.078C661.815 672.329 660.622 671.867 660.727 666.66Z" fill="#2A90A3"/>
<path d="M742.861 704.976C740.236 702.881 736.331 703.716 732.008 701.538C733.616 700.921 752.648 703.297 757.898 701.18C759.735 700.442 773.423 697.956 775.815 697.628L777.9 699.218L752.903 704.4C749.633 704.438 746.011 704.327 742.861 704.976Z" fill="#2A90A3"/>
<path d="M810.802 691.773C811.785 688.035 833.903 684.904 837.54 681.759C838.62 680.819 839.31 680.541 840.615 680.015L839.543 680.265L840.848 680.438C840.083 681.71 839.73 681.96 839.528 683.362C836.873 686.178 833.775 687.144 830.205 688.649C825.367 686.912 816.637 690.787 810.802 691.773Z" fill="#2A90A3"/>
<path d="M782.895 697.987L782.677 696.928C784.507 695.112 800.618 691.284 803.835 690.465C806.13 689.88 808.058 690.83 809.94 692.142C800.955 694.229 791.94 696.177 782.895 697.987Z" fill="#2A90A3"/>
<path d="M713.404 694.854C717.3 694.88 723.272 697.469 726.239 700.067C722.795 699.445 715.298 697.601 713.404 694.854Z" fill="#2A90A3"/>
<path d="M1215.67 366.126C1212.03 365.114 1208.02 360.67 1205.84 357.598C1203.14 353.773 1203.89 346.876 1205.05 342.626C1207 335.42 1211.75 330.528 1216.43 325.01C1216.49 324.94 1215.62 322.825 1215.5 322.67C1214.17 320.072 1212.94 319.55 1212.83 316.494C1213.58 313.925 1214.02 313.814 1216.2 312.026C1220.93 310.427 1228.31 313.457 1231.77 312.712C1251.02 308.558 1257.22 305.787 1277.03 311.85L1276.73 309.195C1283.21 304.493 1293.26 321.542 1295.33 326.849C1301 325.909 1309.09 326.749 1311.89 332.554C1310.61 336.357 1306.28 335.128 1302.89 334.759C1315.97 352.092 1312.7 372.385 1297.25 387.144C1291.18 392.851 1288.42 394.497 1280.86 398.055L1278.23 395.058C1274.45 397.842 1269.95 401.03 1265.93 403.413C1263.08 411.064 1251.95 407.315 1248.74 409.007C1247.85 408.467 1246.34 406.536 1245.56 405.635C1240.48 403.629 1237.47 403.469 1231.07 400.624C1216.7 389.59 1216.7 383.278 1215.67 366.126Z" fill="#051C42"/>
<path d="M1225.73 349.367C1228.19 354.687 1235.08 362.936 1241.41 362.45C1245.45 360.065 1243.48 357.57 1245 358.182C1250.58 360.427 1253.75 366.975 1260.89 363.251C1261.19 363.061 1261.49 362.87 1261.79 362.678C1261.6 361.158 1260.71 360.45 1259.66 359.269L1260.04 357.802C1262.28 356.629 1263.14 356.504 1265.64 355.876C1266.67 362.011 1270.54 376.403 1277.36 377.872C1280.86 375.802 1282.27 368.247 1290.16 369.039C1297.66 369.793 1296.52 385.983 1291.84 386.956C1280.54 389.311 1285.38 387.066 1278.23 395.058C1274.45 397.842 1269.95 401.03 1265.93 403.413C1263.07 411.064 1251.95 407.315 1248.73 409.007C1247.85 408.467 1246.33 406.536 1245.55 405.635C1240.48 403.629 1237.47 403.469 1231.07 400.624C1216.7 389.59 1216.7 383.278 1215.67 366.126C1216.44 357.348 1220.52 357.925 1225.73 349.367Z" fill="#FDBF9E"/>
<path d="M1265.93 403.413C1263.07 411.064 1251.95 407.315 1248.73 409.007C1247.85 408.467 1246.33 406.536 1245.55 405.635C1254.46 406.117 1257.49 405.443 1265.93 403.413Z" fill="#051C42"/>
<path d="M1249.58 372.415C1256.91 372.93 1256.41 378.022 1253.82 383.307L1250.71 382.999C1246.2 379.676 1247.54 376.93 1249.58 372.415Z" fill="#051C42"/>
<path d="M1223.17 370.966C1230.61 371.061 1229.73 376.288 1227.62 381.434C1220.56 380.999 1221.73 375.9 1223.17 370.966Z" fill="#051C42"/>
<path d="M1283.99 375.38C1286.71 375.779 1287.24 375.917 1288.79 378.028C1288.77 380.619 1288.34 380.891 1286.79 383.146C1284.17 383.551 1283.25 383.792 1281.71 381.551C1281.69 378.819 1282.62 377.689 1283.99 375.38Z" fill="#F4AE8E"/>
<path d="M836.513 596.664C842.618 595.045 849.495 595.3 855.578 593.548C882.39 585.823 904.223 589.083 930.225 598.08C939.78 601.386 956.985 604.438 962.813 613.734C963.173 620.955 963.803 624.696 961.583 631.496C962.903 630.972 963.083 630.834 964.283 630.052L965.145 630.988C962.43 639.473 902.37 653.674 893.295 650.915C890.648 650.501 884.07 650.599 881.115 650.566C871.433 652.605 839.408 641.444 830.108 636.886L833.985 637.78C827.775 633.482 811.62 631.316 809.07 626.689L809.55 625.589L812.993 624.645L813.075 610.647L815.753 606.21C817.155 605.547 819.428 604.026 820.83 603.156C825.255 600.856 827.94 596.548 836.513 596.664Z" fill="#B6D2FD"/>
<path d="M813.075 610.647C821.94 621.816 866.078 631.439 880.77 635.168C891.36 637.855 915.9 631.239 927.548 628.429C928.238 627.476 928.095 627.87 928.2 626.677C939.915 624.976 956.07 624.424 962.813 613.734C963.173 620.955 963.803 624.696 961.583 631.496C962.903 630.972 963.083 630.834 964.283 630.052L965.145 630.988C962.43 639.473 902.37 653.674 893.295 650.915C890.648 650.501 884.07 650.599 881.115 650.566C871.433 652.605 839.408 641.444 830.108 636.886L833.985 637.78C827.775 633.482 811.62 631.316 809.07 626.689L809.55 625.589L812.993 624.645L813.075 610.647Z" fill="#6B9CF9"/>
<path d="M881.115 650.566C877.477 649.351 873.795 648.284 870.067 647.366C873.577 646.805 887.85 648.853 892.402 649.188C893.032 650.101 893.077 649.917 893.295 650.915C890.647 650.501 884.07 650.599 881.115 650.566Z" fill="#2A90A3"/>
<path d="M474.431 227.535C499.703 226.862 511.598 241.439 518.482 263.908C541.223 257.346 547.503 266.824 562.004 281.753C530.275 283.123 490.381 281.989 458.063 281.981L402.86 281.926C393.664 281.905 382.378 281.334 373.478 281.979C374.147 281.196 374.827 280.421 375.515 279.655C382.299 272.132 386.226 271.688 396.03 271.151C404.303 251.192 420.07 247.071 438.178 257.247C444.724 239.33 455.645 230.417 474.431 227.535Z" fill="#E6EFFF"/>
<path d="M240.257 397.695C267.559 395.037 280.418 418.275 303.685 427.539C321.833 434.766 332.6 423.283 348.504 425.559C356.925 426.765 370.577 435.373 380.93 438.635C371.29 438.085 359.078 438.67 349.187 438.797C336.556 438.937 323.922 438.83 311.295 438.475C263.186 439.526 212.129 438.673 163.932 438.346C194.316 429.412 214.189 403.487 240.257 397.695Z" fill="#E6EFFF"/>
<path d="M1025.68 207.941C1048.46 207.246 1057.71 218.228 1064.95 238.353C1080.29 234.422 1086.82 241.657 1095.36 253.101C1086.22 253.749 1074.47 253.428 1065.1 253.421L1014.19 253.35C990.87 253.412 966.51 252.946 943.38 253.382C948.817 248.52 951.075 247.081 958.005 244.931C968.107 228.255 977.805 224.631 996.172 231.429C1002.57 217.459 1010.8 211 1025.68 207.941Z" fill="#E6EFFF"/>
<path d="M1180.66 771.353C1177.41 765.929 1170.07 752.629 1173.22 746.659C1183.45 740.695 1197.04 761.008 1201.75 767.31C1204.27 774.909 1207.12 779.86 1209.77 786.852L1213.96 787.077C1217.09 787.512 1219.38 787.835 1222.55 787.94L1226.14 788.713C1224.57 792.959 1220.79 796.612 1222.06 801.031C1222.91 801.938 1227.01 804.526 1228.48 805.509L1227.17 806.124C1224.24 805.689 1219.01 804.249 1216.72 804.219C1197.37 803.986 1178.11 804.601 1158.7 804.324C1142.38 804.091 1129.08 801.773 1113.25 800.738C1143.4 791.008 1143.17 765.389 1180.66 771.353Z" fill="#E6EFFF"/>
<path d="M1180.66 771.353C1177.41 765.929 1170.07 752.629 1173.23 746.659C1183.46 740.695 1197.04 761.008 1201.75 767.31C1204.27 774.909 1207.13 779.86 1209.77 786.852C1198.21 781.916 1194.97 774.242 1180.66 771.353Z" fill="#8BB4FA"/>
<path d="M683.481 387.344C683.08 406.766 674.85 423.214 651.36 416.478C645.985 414.938 636.52 404.432 639.136 398.42C641.243 393.579 645.91 397.267 649.795 395.386C654.273 393.495 655.627 386.293 655.967 381.515C657.385 361.645 668.956 345.552 690.617 352.917C696.436 354.896 699.929 359.83 702.446 365.638C693.556 367.627 690.93 371.303 689.258 380.011C686.499 382.762 685.657 384.081 683.481 387.344Z" fill="#051C42"/>
<path d="M1227.96 787.58C1236.38 777.467 1252.43 769.35 1265.55 774.594C1275.94 778.068 1281.74 780.851 1289.25 788.938C1292.27 792.471 1292.62 796.304 1294.37 797.662C1299.54 798.825 1302.91 799.86 1307.69 802.231C1294.7 807.175 1276.02 808.615 1262.17 807.872C1251.62 808.292 1237.67 807.707 1227.17 806.124L1228.49 805.509C1227.01 804.526 1222.91 801.938 1222.07 801.031C1220.79 796.612 1224.57 792.959 1226.15 788.713L1227.96 787.58Z" fill="#BBE1E0"/>
<path d="M1227.96 787.58C1236.38 777.467 1252.42 769.35 1265.55 774.594C1275.94 778.068 1281.73 780.851 1289.25 788.938C1284.54 791.833 1267.52 797.745 1262.05 797.527C1251.33 797.107 1238.82 788.457 1227.96 787.58Z" fill="#E6EFFF"/>
<path d="M1294.37 797.662C1299.54 798.825 1302.91 799.86 1307.69 802.231C1294.7 807.175 1276.02 808.615 1262.17 807.872L1262.05 806.837C1271.12 805.224 1283.97 805.997 1292.42 802.028C1293.89 801.346 1293.93 799.448 1294.37 797.662Z" fill="#E6EFFF"/>
<path d="M1201.75 767.31C1196.21 751.293 1192.27 724.658 1201.93 709.719C1203.23 707.711 1204.89 706.916 1207.16 706.599C1219.51 709.227 1226.38 744.399 1224.85 755.69C1224.49 758.383 1224.76 762.711 1225 765.434L1225.06 766.065C1221.25 770.528 1223.84 786.304 1217.21 787.107C1216.83 787.152 1214.53 787.1 1213.96 787.077L1209.77 786.852C1207.12 779.86 1204.27 774.909 1201.75 767.31Z" fill="#0961F5"/>
<path d="M1225.07 766.065C1228.39 755.389 1241.63 733.018 1254.6 734.596C1262.05 739.429 1255.16 753.769 1252.13 759.861C1257.13 758.285 1272.92 751.451 1275.6 758.803C1274.87 763.521 1268.88 771.181 1265.55 774.594C1252.43 769.35 1236.38 777.467 1227.96 787.58L1226.15 788.713L1222.55 787.94C1219.38 787.835 1217.09 787.512 1213.96 787.077C1214.54 787.1 1216.83 787.152 1217.21 787.107C1223.84 786.304 1221.25 770.528 1225.07 766.065Z" fill="#8BB4FA"/>
<path d="M1252.13 759.861C1257.13 758.285 1272.92 751.451 1275.6 758.803C1274.87 763.521 1268.88 771.181 1265.55 774.594C1252.43 769.35 1236.38 777.467 1227.96 787.58L1226.15 788.713L1222.55 787.94C1222.66 786.184 1230.59 774.707 1232.45 771.346C1233.37 767.917 1233.58 766.29 1235.93 763.626L1236.64 764.084C1236.44 767.055 1235.09 769.088 1233.7 771.773C1235.37 771.398 1250.47 761.346 1252.13 759.861Z" fill="#0961F5"/>
<path d="M509.261 761.481C514.419 763.499 519.88 765.802 524.062 769.538C524.368 771.068 524.855 774.271 525.565 775.479C528.097 776.912 527.705 776.199 528.781 778.413C525.908 782.569 516.952 782.659 512.255 782.403C507.074 782.546 496.971 781.766 493.987 776.972C492.582 774.714 493.716 771.053 494.272 768.593C498.934 765.202 503.835 763.379 509.261 761.481Z" fill="#6B9CF9"/>
<path d="M509.261 761.481C514.419 763.499 519.88 765.802 524.062 769.538C518.015 773.251 514.676 773.619 507.764 774.894C502.421 773.064 499.006 771.601 494.272 768.593C498.934 765.202 503.835 763.379 509.261 761.481Z" fill="#B6D2FD"/>
<path d="M525.566 775.479C528.097 776.912 527.705 776.2 528.782 778.413C525.908 782.569 516.952 782.659 512.255 782.403C516.877 779.733 522.221 780.918 525.566 775.479Z" fill="#E6EFFF"/>
<path d="M206.988 734.836C211.997 732.169 216.498 730.398 222.093 729.244C226.958 731.21 231.39 733.017 235.444 736.456C236.202 738.699 236.77 740.582 237.837 742.713C240.465 742.634 240.946 742.431 243.128 743.661L243.629 745.131C241.844 747.303 242.415 746.628 239.511 747.795C234.366 747.827 226.749 747.705 221.868 748.294C212.413 747.759 197.332 748.31 206.988 734.836Z" fill="#BBE1E0"/>
<path d="M235.444 736.456C236.202 738.699 236.77 740.582 237.837 742.713C240.465 742.634 240.946 742.431 243.128 743.661L243.628 745.131C241.843 747.303 242.415 746.628 239.511 747.795C234.366 747.827 226.749 747.705 221.868 748.294C220.566 745.059 220.399 744.071 219.784 740.693C224.635 739.963 231.229 738.93 235.444 736.456Z" fill="#0753D1"/>
<path d="M237.837 742.713C240.465 742.634 240.946 742.431 243.128 743.661L243.628 745.131C241.843 747.303 242.415 746.628 239.511 747.795C237.601 747.417 236.035 747.5 235.033 746.263L237.837 742.713Z" fill="#E6EFFF"/>
<path d="M206.988 734.836C209.929 737.569 215.817 739.275 219.784 740.693C220.4 744.071 220.566 745.059 221.868 748.294C212.413 747.759 197.332 748.31 206.988 734.836Z" fill="#6B9CF9"/>
<path d="M954.585 771.391C961.785 767.49 964.515 766.957 971.843 771.196C973.118 773.769 974.918 775.464 974.483 777.632C970.508 779.62 952.785 779.763 949.643 777.062L950.01 775.667C952.485 774.316 953.033 773.746 954.585 771.391Z" fill="#0753D1"/>
<path d="M954.585 771.391C961.785 767.49 964.515 766.957 971.842 771.196C969.99 772.126 965.962 773.529 963.855 774.317C960.202 773.446 958.117 772.719 954.585 771.391Z" fill="#E6EFFF"/>
<path d="M442.066 761.713C449.784 757.858 451.402 757.783 459 761.819C460.053 763.814 460.119 764.002 460.598 766.2C458.834 769.845 455.6 769.463 451.783 769.906C448.603 769.62 440.736 769.455 438.851 767.925L439.009 766.957C440.441 765.404 440.884 763.739 442.066 761.713Z" fill="#BBE1E0"/>
<path d="M451.783 769.905C448.603 769.62 440.736 769.455 438.851 767.925L439.009 766.957C440.441 765.404 440.884 763.739 442.066 761.713C444.922 763.109 447.411 764.377 450.416 765.434L451.783 769.905Z" fill="#6B9CF9"/>
<path d="M459 761.818C460.053 763.814 460.119 764.001 460.598 766.2C458.834 769.845 455.6 769.463 451.783 769.905L450.416 765.434C453.786 764.722 456.547 764.227 459 761.818Z" fill="#6B9CF9"/>
<path d="M1323.81 784.354C1330.46 781.376 1332.59 781.361 1339.01 784.887C1340.41 787.317 1342.37 788.157 1342.59 790.288C1337.83 793.544 1321.77 791.226 1315.96 790.543C1318.67 788.615 1321.23 786.447 1323.81 784.354Z" fill="#B6D2FD"/>
<path d="M1323.81 784.354C1330.46 781.376 1332.59 781.361 1339.01 784.887C1332.64 788.39 1329.87 788.135 1323.81 784.354Z" fill="#E6EFFF"/>
<path d="M1133.26 660.403C1139.92 656.57 1142.58 657.059 1149.01 660.485C1149.87 661.337 1152.25 664.954 1152.37 666.262C1149.68 668.627 1130.47 667.715 1128.45 666.241L1129.03 664.746C1131.55 663.632 1131.93 662.767 1133.26 660.403Z" fill="#0753D1"/>
<path d="M1133.27 660.403C1139.92 656.57 1142.58 657.059 1149.02 660.485C1147.65 661.31 1146.21 661.995 1144.7 662.525C1140.81 663.91 1136.75 662.02 1133.27 660.403Z" fill="#E6EFFF"/>
<path d="M534.092 749.503C536.937 751.076 541.186 753.874 544.111 754.369C549.178 758.653 543.932 758.983 551.523 759.455L557.984 763.086C547.567 761.488 541.975 758.818 532.975 753.874C533.392 752.734 533.796 750.753 534.092 749.503Z" fill="#F3F3F0" fill-opacity="0.952941"/>
<path d="M1043.8 417.112C1045.08 417.211 1044.52 416.977 1045.48 417.8C1041.41 420.799 1037.09 418.635 1033.54 422.98C1031.77 427.628 1034.39 426.709 1032.14 430.689C1029.75 429.801 1029.17 429.818 1027.88 427.814C1028.26 424.678 1029.26 424.246 1031.3 421.399C1034.54 419.948 1040.26 418.268 1043.8 417.112Z" fill="#F3F3F0" fill-opacity="0.94902"/>
<path d="M611.888 760.198L616.775 759.725C615.932 760.783 615.24 761.706 614.265 762.659L618.302 762.981C610.951 764.827 602.982 765.412 595.434 766.125C598.423 765.262 602.997 764.009 605.279 762.074C605.449 761.991 610.992 760.491 611.888 760.198Z" fill="#E6EFFF"/>
<path d="M843.06 679.049L844.943 679.835C846.975 685.025 834.968 688.729 831.353 689.915L830.205 688.649C833.775 687.144 836.873 686.178 839.528 683.362C839.73 681.96 840.083 681.71 840.848 680.438C841.41 680.18 842.498 679.419 843.06 679.049Z" fill="#DFF2F2" fill-opacity="0.968627"/>
<path d="M1029.92 433.377C1032.39 433.797 1035.74 436.347 1037.17 438.34C1041.61 444.515 1036.33 448.292 1032.45 450.952L1032.05 450.712L1031.96 449.826C1033.84 448.021 1035.7 446.197 1037.53 444.351C1038.49 439.951 1032.19 438.232 1029.92 433.377Z" fill="#AAD8D2" fill-opacity="0.92549"/>
<path d="M1012.45 520.237C1013.37 520.523 1012.93 520.254 1013.62 521.224C1011.97 523.365 1010.54 524.698 1008.63 526.562C1011.88 529.07 1016.04 531.764 1019.5 534.292C1014.42 535.876 1008.79 530.249 1008.98 525.218C1009.06 522.981 1010.98 521.69 1012.45 520.237Z" fill="#92CBCB" fill-opacity="0.945098"/>
<path d="M869.43 698.282L870.322 698.664L870.78 699.906C869.07 703.255 863.737 705.465 860.437 707.012L859.17 706.15C860.07 704.28 866.805 700.269 869.43 698.282Z" fill="#04A6AD" fill-opacity="0.988235"/>
<path d="M895.14 677.541C898.028 677.248 900.75 676.9 903.225 678.257C901.493 679.634 900.788 679.316 898.343 679.619C896.978 679.902 895.605 680.154 894.233 680.376C892.403 680.654 890.61 680.889 889.103 679.777C890.61 678.078 892.763 678.019 895.14 677.541Z" fill="#0961F5"/>
<path d="M724.79 748.509C725.19 748.774 725.755 749.45 726.115 749.837C724.927 753.656 720.105 755.659 716.451 757.73L715.713 756.852C716.205 754.737 722.505 750.386 724.79 748.509Z" fill="#0961F5"/>
<path d="M610.331 773.709C614.682 773.416 621.11 772.149 623.156 776.365C619.892 776.425 613.712 776.92 610.979 775.674L610.331 773.709Z" fill="#0961F5"/>
<path d="M631.402 773.731C634.812 773.514 640.907 772.786 643.892 774.016L644.072 775.794C640.967 775.967 634.505 776.747 631.931 775.832L631.402 773.731Z" fill="#0961F5"/>
<path d="M948.765 537.407L949.582 537.635L949.68 538.659C946.252 540.163 939.307 541.073 935.377 541.742L934.147 541.241L934.77 540.194C938.557 538.863 944.64 538.08 948.765 537.407Z" fill="#04A6AD" fill-opacity="0.984314"/>
<path d="M1009.28 642.029C1009.93 642.778 1009.84 642.982 1010.18 644.012C1009.24 647.983 1005.97 650.331 1002.91 652.901L1001.96 651.827C1002.16 649.794 1007.48 644.289 1009.28 642.029Z" fill="#0961F5"/>
<path d="M879.097 683.128L879.93 683.516C880.297 685.695 876.862 689.185 875.265 694.017L874.102 693.756C872.107 689.868 876.315 685.508 879.097 683.128Z" fill="#04A6AD" fill-opacity="0.972549"/>
<path d="M707.538 759.365L708.417 759.748L708.5 760.956C706.241 762.839 701.872 764.099 698.956 765.119C697.911 764.197 698.315 764.759 698.041 763.214C700.245 761.338 704.607 760.288 707.538 759.365Z" fill="#0961F5"/>
<path d="M1071.22 434.517C1076.29 435.64 1082.94 436.796 1083.44 442.736C1079.03 438.943 1072.49 437.499 1071.22 434.517Z" fill="#AAD8D2" fill-opacity="0.937255"/>
<path d="M1060.17 566.192C1061.03 568.054 1060.8 567.055 1060.54 569.34C1058.77 572.057 1055.45 573.479 1052.55 575.108L1051.95 574.391C1052.07 572.596 1058.1 568.079 1060.17 566.192Z" fill="#04A6AD" fill-opacity="0.976471"/>
<path d="M851.19 708.342L851.843 708.871L851.745 710.169C849.158 711.966 845.528 712.736 842.4 713.631C841.673 712.902 841.988 713.202 841.665 711.964C843.668 710.119 848.363 709.147 851.19 708.342Z" fill="#0961F5"/>
<path d="M918.758 675.522C921.353 675.434 922.095 674.923 923.783 676.235C922.125 677.929 920.303 677.775 917.813 678.061C915.968 678.183 913.8 678.609 912.615 677.177C914.647 675.523 916.088 675.721 918.758 675.522Z" fill="#0961F5"/>
<path d="M1030.21 544.037C1034.74 544.67 1039.51 544.887 1042.57 548.167C1038.7 548.452 1032.29 547.643 1030.21 544.037Z" fill="#0961F5"/>
<path d="M990.285 613.642C994.11 613.625 998.873 615.896 1001.3 618.893L999.33 619.335C995.985 618.276 992.49 616.428 990.285 613.642Z" fill="#04A6AD" fill-opacity="0.980392"/>
<path d="M1033.96 477.66C1033.77 477.581 1045.18 487.245 1046.86 488.494L1046.05 488.412C1041.5 487.966 1035.37 482.005 1033.96 477.66Z" fill="#BBE1E0" fill-opacity="0.835294"/>
<path d="M992.663 459.311C993.975 459.216 993.915 459.316 995.235 459.564L995.085 460.387C992.265 461.947 990.27 462.067 987.128 462.532C986.79 462.525 985.365 462.173 984.938 462.078L985.058 461.293C987.788 459.752 989.61 459.711 992.663 459.311Z" fill="#0961F5"/>
<path d="M746.954 730.777L747.586 732.164C746.153 734.282 742.792 735.447 740.303 736.628C739.666 735.702 739.827 735.687 739.553 734.499C741.233 732.528 744.378 731.739 746.954 730.777Z" fill="#0961F5"/>
<path d="M1060.53 497.642C1064.16 497.256 1069.43 497.14 1071.74 500.134C1069.06 500.287 1063.66 500.012 1061.16 499.128L1060.53 497.642Z" fill="#04A6AD" fill-opacity="0.972549"/>
<path d="M1128.44 517.416C1132.74 517.659 1135.09 520.833 1135.52 524.92C1132 523.617 1130.4 520.701 1128.44 517.416Z" fill="#04A6AD" fill-opacity="0.988235"/>
<path d="M1097.45 546.248C1098.9 546.109 1099.74 546.187 1101.17 546.271L1101.56 547.033C1099.4 548.731 1097.98 548.601 1095.21 548.911C1093.09 549.147 1093.33 549.445 1091.68 548.69C1093.57 546.731 1094.74 546.787 1097.45 546.248Z" fill="#04A6AD" fill-opacity="0.980392"/>
<path d="M1078.99 499.916C1083.67 500.346 1086.84 500.526 1090.73 503.236C1086.85 503.632 1081.28 503.29 1078.99 499.916Z" fill="#2A90A3" fill-opacity="0.988235"/>
<path d="M1113.64 509.472C1117.68 509.326 1121.74 510.993 1123.75 514.575C1120.54 513.618 1115.3 512.282 1113.64 509.472Z" fill="#04A6AD" fill-opacity="0.972549"/>
<path d="M1053.56 430.765C1057.3 430.988 1062.73 430.992 1065.29 433.828C1061.84 434.38 1056.07 433.364 1053.56 430.765Z" fill="#BBE1E0" fill-opacity="0.960784"/>
<path d="M1070.5 451.778L1071.88 451.614L1072.27 452.435C1069.97 453.907 1067.91 454.286 1065.28 455.012L1064 454.974L1063.87 454.161C1066.18 452.306 1067.64 452.273 1070.5 451.778Z" fill="#69B5B7" fill-opacity="0.976471"/>
<path d="M1040.29 467.06L1041.03 467.312L1041.32 468.308C1039.63 470.072 1037.99 471.647 1036.23 473.327L1035.14 472.922C1035.8 470.638 1038.4 468.781 1040.29 467.06Z" fill="#BBE1E0" fill-opacity="0.905882"/>
<path d="M1082.9 445.648L1083.54 446.741C1082.42 449.345 1081.63 449.223 1078.95 451.048L1077.98 450.336C1078.73 448.192 1080.77 447.27 1082.9 445.648Z" fill="#BBE1E0" fill-opacity="0.894118"/>
<path d="M1027.42 451.623L1027.98 452.625C1026.26 454.507 1023.41 455.327 1020.95 456.326C1020.44 455.82 1020.64 455.94 1020.43 455.052L1027.42 451.623Z" fill="#BBE1E0" fill-opacity="0.823529"/>
</svg>
